<?xml version="1.0" encoding="UTF-8"?> <!-- Creator: CorelDRAW X6 --> <svg xmlns="http://www.w3.org/2000/svg" xmlns:xlink="http://www.w3.org/1999/xlink" xml:space="preserve" width="16.6667in" height="15.5556in" style="shape-rendering:geometricPrecision; text-rendering:geometricPrecision; image-rendering:optimizeQuality; fill-rule:evenodd; clip-rule:evenodd" viewBox="0 0 16667 15556"> <defs> <style type="text/css"> <![CDATA[ .fil0 {fill:#ECE13D;fill-rule:nonzero} ]]> </style> </defs> <g id="Layer_x0020_1"> <metadata id="CorelCorpID_0Corel-Layer"></metadata> <polygon class="fil0" points="2440,0 1772,0 1775,2 0,1181 0,1626 2443,2 "></polygon> <polygon class="fil0" points="438,1 0,292 0,736 1106,1 1104,0 437,0 "></polygon> <polygon class="fil0" points="1204,1268 0,2070 0,2516 833,1960 833,2668 0,3224 0,3669 1204,2867 "></polygon> <polygon class="fil0" points="5556,1626 7999,2 7995,0 7328,0 7331,2 5556,1181 3781,2 3783,0 3116,0 3112,2 "></polygon> <polygon class="fil0" points="5556,736 6662,1 6660,0 5992,0 5993,1 5556,292 5118,1 5119,0 4451,0 4449,1 "></polygon> <path class="fil0" d="M4722 1960l833 556 833 -556 0 708 -833 556 -833 -556 0 -708zm2037 907l0 -1599 -1204 802 -1204 -802 0 1599 1204 802 1204 -802z"></path> <polygon class="fil0" points="11111,1626 13555,2 13551,0 12883,0 12886,2 11111,1181 9336,2 9339,0 8671,0 8668,2 "></polygon> <polygon class="fil0" points="11111,736 12218,1 12216,0 11548,0 11549,1 11111,292 10673,1 10674,0 10007,0 10005,1 "></polygon> <path class="fil0" d="M10278 1960l833 556 833 -556 0 708 -833 556 -833 -556 0 -708zm2037 907l0 -1599 -1204 802 -1204 -802 0 1599 1204 802 1204 -802z"></path> <polygon class="fil0" points="0,6151 0,6596 1775,7780 0,8959 0,9403 2443,7780 "></polygon> <polygon class="fil0" points="0,7041 0,7487 438,7779 0,8069 0,8514 1106,7779 "></polygon> <polygon class="fil0" points="1204,9046 0,9848 0,10293 833,9738 833,10446 0,11002 0,11447 1204,10644 "></polygon> <path class="fil0" d="M7331 7780l-1775 1179 -1775 -1179 1775 -1183 1775 1183zm-1775 1624l2444 -1623 -2444 -1629 -2444 1629 2444 1623z"></path> <path class="fil0" d="M5993 7779l-438 291 -438 -291 438 -292 438 292zm-438 736l1106 -735 -1106 -738 -1106 738 1106 735z"></path> <path class="fil0" d="M4722 9738l833 556 833 -556 0 708 -833 556 -833 -556 0 -708zm2037 907l0 -1599 -1204 802 -1204 -802 0 1599 1204 802 1204 -802z"></path> <path class="fil0" d="M11111 8959l-1775 -1179 1775 -1183 1775 1183 -1775 1179zm-2444 -1179l2444 1623 2444 -1623 -2444 -1629 -2444 1629z"></path> <path class="fil0" d="M11111 8069l-438 -291 438 -292 438 292 -438 291zm-1106 -290l1106 735 1106 -735 -1106 -738 -1106 738z"></path> <path class="fil0" d="M11944 10446l-833 556 -833 -556 0 -708 833 556 833 -556 0 708zm370 -1400l-1204 802 -1204 -802 0 1599 1204 802 1204 -802 0 -1599z"></path> <path class="fil0" d="M2778 2707l1775 1183 -1775 1179 -1775 -1179 1775 -1183zm2444 1184l-2444 -1629 -2444 1629 2444 1623 2444 -1623z"></path> <path class="fil0" d="M2778 3598l438 292 -438 291 -438 -291 438 -292zm1106 293l-1106 -738 -1106 738 1106 735 1106 -735z"></path> <path class="fil0" d="M1944 5849l833 556 833 -556 0 708 -833 556 -833 -556 0 -708zm2037 907l0 -1599 -1204 802 -1204 -802 0 1599 1204 802 1204 -802z"></path> <path class="fil0" d="M8333 5070l-1775 -1179 1775 -1183 1775 1183 -1775 1179zm-2444 -1179l2444 1623 2444 -1623 -2444 -1629 -2444 1629z"></path> <path class="fil0" d="M8333 4181l-438 -291 438 -292 438 292 -438 291zm-1106 -290l1106 735 1106 -735 -1106 -738 -1106 738z"></path> <path class="fil0" d="M9167 6557l-833 556 -833 -556 0 -708 833 556 833 -556 0 708zm-2037 -1400l0 1599 1204 802 1204 -802 0 -1599 -1204 802 -1204 -802z"></path> <path class="fil0" d="M13889 5070l-1775 -1179 1775 -1183 1775 1183 -1775 1179zm-2444 -1179l2444 1623 2443 -1623 -2443 -1629 -2444 1629z"></path> <path class="fil0" d="M13889 4181l-438 -291 438 -292 438 292 -438 291zm-1106 -290l1106 735 1106 -735 -1106 -738 -1106 738z"></path> <path class="fil0" d="M14722 6557l-833 556 -833 -556 0 -708 833 556 833 -556 0 708zm-2037 -1400l0 1599 1204 802 1204 -802 0 -1599 -1204 802 -1204 -802z"></path> <path class="fil0" d="M2778 10485l1775 1183 -1775 1179 -1775 -1179 1775 -1183zm2444 1184l-2444 -1629 -2444 1629 2444 1623 2444 -1623z"></path> <path class="fil0" d="M2778 11375l438 292 -438 291 -438 -291 438 -292zm1106 293l-1106 -738 -1106 738 1106 735 1106 -735z"></path> <path class="fil0" d="M1944 13627l833 556 833 -556 0 708 -833 556 -833 -556 0 -708zm2037 906l0 -1599 -1204 802 -1204 -802 0 1599 1204 803 1204 -803z"></path> <path class="fil0" d="M10108 11669l-1775 1179 -1775 -1179 1775 -1183 1775 1183zm-1775 1624l2444 -1623 -2444 -1629 -2444 1629 2444 1623z"></path> <path class="fil0" d="M8771 11667l-438 291 -438 -291 438 -292 438 292zm-438 736l1106 -735 -1106 -738 -1106 738 1106 735z"></path> <path class="fil0" d="M7500 13627l833 556 833 -556 0 708 -833 556 -833 -556 0 -708zm2037 906l0 -1599 -1204 802 -1204 -802 0 1599 1204 803 1204 -803z"></path> <path class="fil0" d="M12114 11669l1775 -1183 1775 1183 -1775 1179 -1775 -1179zm1775 -1628l-2444 1629 2444 1623 2443 -1623 -2443 -1629z"></path> <path class="fil0" d="M13451 11667l438 -292 438 292 -438 291 -438 -291zm438 -737l-1106 738 1106 735 1106 -735 -1106 -738z"></path> <path class="fil0" d="M14722 14335l-833 556 -833 -556 0 -708 833 556 833 -556 0 708zm-2037 -1400l0 1599 1204 803 1204 -803 0 -1599 -1204 802 -1204 -802z"></path> <path class="fil0" d="M1944 9002l833 -556 833 556 0 708 -833 -556 -833 556 0 -708zm2037 1400l0 -1599 -1204 -802 -1204 802 0 1599 1204 -802 1204 802z"></path> <path class="fil0" d="M7500 9002l833 -556 833 556 0 708 -833 -556 -833 556 0 -708zm-370 1400l1204 -802 1204 802 0 -1599 -1204 -802 -1204 802 0 1599z"></path> <path class="fil0" d="M13056 9002l833 -556 833 556 0 708 -833 -556 -833 556 0 -708zm2037 1400l0 -1599 -1204 -802 -1204 802 0 1599 1204 -802 1204 802z"></path> <path class="fil0" d="M1944 1224l833 -556 833 556 0 708 -833 -556 -833 556 0 -708zm2037 1400l0 -1599 -1204 -802 -1204 802 0 1599 1204 -802 1204 802z"></path> <path class="fil0" d="M7500 1224l833 -556 833 556 0 708 -833 -556 -833 556 0 -708zm2037 1400l0 -1599 -1204 -802 -1204 802 0 1599 1204 -802 1204 802z"></path> <path class="fil0" d="M13056 1224l833 -556 833 556 0 708 -833 -556 -833 556 0 -708zm2037 1400l0 -1599 -1204 -802 -1204 802 0 1599 1204 -802 1204 802z"></path> <polygon class="fil0" points="1204,12693 0,11890 0,12335 833,12891 833,13599 0,13044 0,13489 1204,14291 "></polygon> <path class="fil0" d="M4722 12891l833 -556 833 556 0 708 -833 -556 -833 556 0 -708zm-370 1400l1204 -802 1204 802 0 -1599 -1204 -802 -1204 802 0 1599z"></path> <path class="fil0" d="M10278 12891l833 -556 833 556 0 708 -833 -556 -833 556 0 -708zm-370 1400l1204 -802 1204 802 0 -1599 -1204 -802 -1204 802 0 1599z"></path> <polygon class="fil0" points="1204,4915 0,4113 0,4558 833,5113 833,5822 0,5266 0,5711 1204,6514 "></polygon> <path class="fil0" d="M6389 5822l-833 -556 -833 556 0 -708 833 -556 833 556 0 708zm-2037 -907l0 1599 1204 -802 1204 802 0 -1599 -1204 -802 -1204 802z"></path> <path class="fil0" d="M11944 5822l-833 -556 -833 556 0 -708 833 -556 833 556 0 708zm-2037 -907l0 1599 1204 -802 1204 802 0 -1599 -1204 -802 -1204 802z"></path> <polygon class="fil0" points="16667,1626 16667,1181 14892,2 14895,0 14227,0 14223,2 "></polygon> <polygon class="fil0" points="16229,1 16230,0 15562,0 15560,1 16667,736 16667,292 "></polygon> <polygon class="fil0" points="15463,2867 16667,3669 16667,3224 15833,2668 15833,1960 16667,2516 16667,2070 15463,1268 "></polygon> <polygon class="fil0" points="16667,9403 16667,8959 14892,7780 16667,6596 16667,6151 14223,7780 "></polygon> <polygon class="fil0" points="16667,8514 16667,8069 16229,7779 16667,7487 16667,7041 15560,7779 "></polygon> <polygon class="fil0" points="15463,10644 16667,11447 16667,11002 15833,10446 15833,9738 16667,10293 16667,9848 15463,9046 "></polygon> <polygon class="fil0" points="0,14374 1772,15556 2440,15556 0,13929 "></polygon> <polygon class="fil0" points="437,15556 1104,15556 0,14819 0,15264 "></polygon> <polygon class="fil0" points="3116,15556 3783,15556 5556,14374 7328,15556 7995,15556 5556,13929 "></polygon> <polygon class="fil0" points="4451,15556 5119,15556 5556,15264 5992,15556 6660,15556 5556,14819 "></polygon> <polygon class="fil0" points="8671,15556 9339,15556 11111,14374 12883,15556 13551,15556 11111,13929 "></polygon> <polygon class="fil0" points="10007,15556 10674,15556 11111,15264 11548,15556 12216,15556 11111,14819 "></polygon> <polygon class="fil0" points="16667,14374 16667,13929 14227,15556 14895,15556 "></polygon> <polygon class="fil0" points="16667,15264 16667,14819 15562,15556 16230,15556 "></polygon> <polygon class="fil0" points="15463,12693 15463,14291 16667,13489 16667,13044 15833,13599 15833,12891 16667,12335 16667,11890 "></polygon> <polygon class="fil0" points="15463,4915 15463,6514 16667,5711 16667,5266 15833,5822 15833,5113 16667,4558 16667,4113 "></polygon> </g> </svg> 