<?xml version="1.0" encoding="UTF-8"?> <!-- Generator: Adobe Illustrator 21.1.0, SVG Export Plug-In . SVG Version: 6.00 Build 0) --> <svg xmlns="http://www.w3.org/2000/svg" xmlns:xlink="http://www.w3.org/1999/xlink" id="Capa_1" x="0px" y="0px" viewBox="0 0 1532 958" style="enable-background:new 0 0 1532 958;" xml:space="preserve"> <style type="text/css"> .st0{fill:#BDBDBD;} .st1{clip-path:url(#SVGID_2_);fill:#DE2B22;} .st2{clip-path:url(#SVGID_2_);} .st3{clip-path:url(#SVGID_4_);} .st4{clip-path:url(#SVGID_4_);fill:#DE2B22;} .st5{clip-path:url(#SVGID_4_);fill:#FFFFFF;} .st6{clip-path:url(#SVGID_4_);fill:#3F72CE;} .st7{clip-path:url(#SVGID_4_);fill:#F5D630;} .st8{clip-path:url(#SVGID_6_);fill:#FFFFFF;} .st9{clip-path:url(#SVGID_6_);} .st10{clip-path:url(#SVGID_8_);} .st11{clip-path:url(#SVGID_8_);fill:#DE2B22;} .st12{clip-path:url(#SVGID_8_);fill:#FFFFFF;} .st13{clip-path:url(#SVGID_8_);fill:#3F72CE;} .st14{clip-path:url(#SVGID_8_);fill:#F5D630;} .st15{clip-path:url(#SVGID_10_);fill:#FFFFFF;} .st16{clip-path:url(#SVGID_10_);} .st17{clip-path:url(#SVGID_12_);} .st18{clip-path:url(#SVGID_12_);fill:#DE2B22;} .st19{clip-path:url(#SVGID_12_);fill:#F5D630;} .st20{clip-path:url(#SVGID_12_);fill:#3F72CE;} .st21{clip-path:url(#SVGID_14_);fill:#DE2B22;} .st22{clip-path:url(#SVGID_14_);} .st23{clip-path:url(#SVGID_16_);} .st24{clip-path:url(#SVGID_16_);fill:#DE2B22;} .st25{clip-path:url(#SVGID_16_);fill:#FFFFFF;} .st26{clip-path:url(#SVGID_16_);fill:#3F72CE;} .st27{clip-path:url(#SVGID_16_);fill:#F5D630;} .st28{clip-path:url(#SVGID_18_);fill:#FFFFFF;} .st29{clip-path:url(#SVGID_18_);} .st30{clip-path:url(#SVGID_20_);} .st31{clip-path:url(#SVGID_20_);fill:#DE2B22;} .st32{clip-path:url(#SVGID_20_);fill:#FFFFFF;} .st33{clip-path:url(#SVGID_20_);fill:#3F72CE;} .st34{clip-path:url(#SVGID_20_);fill:#F5D630;} </style> <rect class="st0" width="1531.8" height="957.8"></rect> <g> <defs> <rect id="SVGID_1_" x="28.9" y="32.5" width="1473" height="154.4"></rect> </defs> <clipPath id="SVGID_2_"> <use xlink:href="#SVGID_1_" style="overflow:visible;"></use> </clipPath> <rect x="28.9" y="32.8" class="st1" width="1473" height="154"></rect> <g class="st2"> <defs> <rect id="SVGID_3_" x="429" y="-345.8" width="1672.2" height="1264.6"></rect> </defs> <clipPath id="SVGID_4_"> <use xlink:href="#SVGID_3_" style="overflow:visible;"></use> </clipPath> <polygon class="st3" points="1145.8,-354.2 1145.8,-232.4 833.7,-232.4 429,239.6 429,924.5 2101.2,924.5 2101.2,239.6 1698.2,-232.4 1384.8,-232.4 1384.8,-354.2 "></polygon> <rect x="548.4" y="361.6" class="st4" width="656.9" height="441.2"></rect> <rect x="1324.8" y="361.6" class="st5" width="657.1" height="441.2"></rect> <polygon class="st6" points="1952.2,238.9 1652.3,-111.8 1025.2,-111.9 1326.4,238.9 "></polygon> <polygon class="st7" points="1175.9,239.3 881.8,-112.7 579.7,239.3 "></polygon> </g> </g> <g> <defs> <rect id="SVGID_5_" x="28.9" y="218.5" width="1473" height="154.4"></rect> </defs> <clipPath id="SVGID_6_"> <use xlink:href="#SVGID_5_" style="overflow:visible;"></use> </clipPath> <rect x="28.9" y="218.8" class="st8" width="1473" height="154"></rect> <g class="st9"> <defs> <rect id="SVGID_7_" x="-244" y="-73.8" width="1672.2" height="1264.6"></rect> </defs> <clipPath id="SVGID_8_"> <use xlink:href="#SVGID_7_" style="overflow:visible;"></use> </clipPath> <polygon class="st10" points="472.8,-82.2 472.8,39.6 160.7,39.6 -244,511.6 -244,1196.5 1428.2,1196.5 1428.2,511.6 1025.2,39.6 711.8,39.6 711.8,-82.2 "></polygon> <rect x="-124.6" y="633.6" class="st11" width="656.9" height="441.2"></rect> <rect x="651.8" y="633.6" class="st12" width="657.1" height="441.2"></rect> <polygon class="st13" points="1279.2,510.9 979.3,160.2 352.2,160.1 653.4,510.9 "></polygon> <polygon class="st14" points="502.9,511.3 208.8,159.3 -93.3,511.3 "></polygon> </g> </g> <g> <defs> <rect id="SVGID_9_" x="28.9" y="404.5" width="1473" height="154.4"></rect> </defs> <clipPath id="SVGID_10_"> <use xlink:href="#SVGID_9_" style="overflow:visible;"></use> </clipPath> <rect x="28.9" y="404.8" class="st15" width="1473" height="154"></rect> <g class="st16"> <defs> <rect id="SVGID_11_" x="-346" y="-413.8" width="1672.2" height="1264.6"></rect> </defs> <clipPath id="SVGID_12_"> <use xlink:href="#SVGID_11_" style="overflow:visible;"></use> </clipPath> <polygon class="st17" points="370.8,-422.2 370.8,-300.4 58.7,-300.4 -346,171.6 -346,856.5 1326.2,856.5 1326.2,171.6 923.2,-300.4 609.8,-300.4 609.8,-422.2 "></polygon> <rect x="-226.6" y="293.6" class="st18" width="656.9" height="441.2"></rect> <rect x="549.8" y="293.6" class="st19" width="657.1" height="441.2"></rect> <polygon class="st20" points="1177.2,170.9 877.3,-179.8 250.2,-179.9 551.4,170.9 "></polygon> <polygon class="st19" points="400.9,171.3 106.8,-180.7 -195.3,171.3 "></polygon> </g> </g> <g> <defs> <rect id="SVGID_13_" x="28.9" y="590.5" width="1473" height="154.4"></rect> </defs> <clipPath id="SVGID_14_"> <use xlink:href="#SVGID_13_" style="overflow:visible;"></use> </clipPath> <rect x="28.9" y="590.8" class="st21" width="1473" height="154"></rect> <g class="st22"> <defs> <rect id="SVGID_15_" x="-823" y="251.2" width="1672.2" height="1264.6"></rect> </defs> <clipPath id="SVGID_16_"> <use xlink:href="#SVGID_15_" style="overflow:visible;"></use> </clipPath> <polygon class="st23" points="-106.2,242.8 -106.2,364.6 -418.3,364.6 -823,836.6 -823,1521.5 849.2,1521.5 849.2,836.6 446.2,364.6 132.8,364.6 132.8,242.8 "></polygon> <rect x="-703.6" y="958.6" class="st24" width="656.9" height="441.2"></rect> <rect x="72.8" y="958.6" class="st25" width="657.1" height="441.2"></rect> <polygon class="st26" points="700.2,835.9 400.3,485.2 -226.8,485.1 74.4,835.9 "></polygon> <polygon class="st27" points="-76.1,836.3 -370.2,484.3 -672.3,836.3 "></polygon> </g> </g> <g> <defs> <rect id="SVGID_17_" x="28.9" y="776.5" width="1473" height="154.4"></rect> </defs> <clipPath id="SVGID_18_"> <use xlink:href="#SVGID_17_" style="overflow:visible;"></use> </clipPath> <rect x="28.9" y="776.8" class="st28" width="1473" height="154"></rect> <g class="st29"> <defs> <rect id="SVGID_19_" x="972" y="437.2" width="1672.2" height="1264.6"></rect> </defs> <clipPath id="SVGID_20_"> <use xlink:href="#SVGID_19_" style="overflow:visible;"></use> </clipPath> <polygon class="st30" points="1688.8,428.8 1688.8,550.6 1376.7,550.6 972,1022.6 972,1707.5 2644.2,1707.5 2644.2,1022.6 2241.2,550.6 1927.8,550.6 1927.8,428.8 "></polygon> <rect x="1091.4" y="1144.6" class="st31" width="656.9" height="441.2"></rect> <rect x="1867.8" y="1144.6" class="st32" width="657.1" height="441.2"></rect> <polygon class="st33" points="2495.2,1021.9 2195.3,671.2 1568.2,671.1 1869.4,1021.9 "></polygon> <polygon class="st34" points="1718.9,1022.3 1424.8,670.3 1122.7,1022.3 "></polygon> </g> </g> </svg> 