<?xml version="1.0" encoding="UTF-8" standalone="no"?> <svg xmlns:dc="http://purl.org/dc/elements/1.1/" xmlns:cc="http://creativecommons.org/ns#" xmlns:rdf="http://www.w3.org/1999/02/22-rdf-syntax-ns#" xmlns:svg="http://www.w3.org/2000/svg" xmlns="http://www.w3.org/2000/svg" viewBox="0 0 2800 2800" height="2800" width="2800" xml:space="preserve" id="svg2"><metadata id="metadata8"></metadata><defs id="defs6"></defs><g transform="matrix(1.3333333,0,0,-1.3333333,0,2800)" id="g10"><g transform="scale(0.1)" id="g12"><g transform="scale(1.28834)" id="g14"><path id="path16" style="fill:#ffffff;fill-opacity:1;fill-rule:nonzero;stroke:none" d="M 16300,0 H 0 V 16300 H 16300 V 0"></path></g><path id="path18" style="fill:#e4e3d6;fill-opacity:1;fill-rule:nonzero;stroke:none" d="m 8444.33,10500 c -192.12,-348.2 272.5,1272.9 1499.28,2057.4 1573.09,1005.9 3679.69,959.3 4442.09,1706.5 96.1,94.2 126.2,-647.4 -974.9,-1289.9 C 12090,12203.3 10948.3,12018.3 9943.34,11583.3 8938.39,11148.4 8519.33,10635.9 8444.33,10500"></path><path id="path20" style="fill:#e4e3d6;fill-opacity:1;fill-rule:nonzero;stroke:none" d="m 7940,8120 c -0.12,590 204.81,1493.5 696.67,2190 993.33,1406.7 3616.33,1549.9 4708.33,2051.9 1083.8,498.1 1065,1048.1 1135,1118.1 70,70 232.6,-1307.3 -610,-1880 C 12756.7,10843.3 10450,10570 9560,10070 8670,9570 8434.77,9238.1 8190,8760 8048.41,8483.4 7940,8120 7940,8120"></path><path id="path22" style="fill:#e4e3d6;fill-opacity:1;fill-rule:nonzero;stroke:none" d="m 7996.03,7364.2 c 0,585.8 434.9,1494.9 1154.94,2040 1179.03,892.5 2714.83,1155.5 3704.83,1230.5 989.9,75 1263.3,526.2 1385.7,689.4 80,106.6 -2.3,-927.4 -1190.7,-1545 C 12128.2,9299.7 10257,9195.7 9480.96,8759.2 8220,8050 7996.03,7305 7996.03,7364.2"></path><path id="path24" style="fill:#e4e3d6;fill-opacity:1;fill-rule:nonzero;stroke:none" d="m 9675,12700 c 0,0 1.57,2.1 0,0 -10.09,-13.3 595,1035 2395,1700 1169.3,432 1800,1200 1880,1350 80,150 344.4,-750.8 30,-1170 -390,-520 -1627.5,-797.5 -2340,-980 -1210,-310 -1770,-740 -1960,-900 h -5"></path><path id="path26" style="fill:#e4e3d6;fill-opacity:1;fill-rule:nonzero;stroke:none" d="m 8086.02,6839.3 c -89.99,-169.3 57.31,1030.7 1739.91,1739.9 896.27,377.7 2843.87,189.8 3854.77,1184.9 216,212.6 -314.9,-1109.9 -1304.9,-1559.9 -989.9,-450 -2159.9,-450 -2834.85,-600 -674.97,-150 -1363.13,-592.3 -1454.93,-764.9"></path><path id="path28" style="fill:#e4e3d6;fill-opacity:1;fill-rule:nonzero;stroke:none" d="m 8023.33,6163.3 c 86.67,466.7 777.94,1049.2 1540,1197.6 633.37,123.4 1999.97,0 2533.37,122.4 64.8,14.9 -71.7,-173.3 -978.3,-560 -906.7,-386.6 -1883.66,-399.6 -2261.73,-460 -626.67,-100 -842.62,-349.9 -833.34,-300"></path><g transform="scale(1.16748)" id="g30"><path id="path32" style="fill:#e4e3d6;fill-opacity:1;fill-rule:nonzero;stroke:none" d="m 16300,5370.52 c 0,1142.03 -222.7,2663.85 -1764.5,3738.81 -1541.8,1074.97 -1747.3,1862.97 -1815.8,1948.67 -68.6,85.6 -274.1,-616.7 0,-1421.9 274,-805.15 1627.4,-1661.69 2141.3,-2141.35 513.9,-479.67 876.8,-821.17 1199.2,-1524.65 125.6,-274.09 239.8,-525.06 239.8,-599.58"></path></g><g transform="scale(1.16748)" id="g34"><path id="path36" style="fill:#e4e3d6;fill-opacity:1;fill-rule:nonzero;stroke:none" d="m 15985.2,3648.87 c 134.9,315.29 314.8,1314.79 -130.2,2193.18 -581.6,1147.93 -2222.6,2046.7 -2775,2541.02 -552.5,494.22 -697.1,931.06 -721.1,1021 -24.1,89.91 -348.6,-899.37 0,-1541.7 348.5,-642.4 1649.3,-1301.34 2224.2,-1683.02 637.7,-423.39 1078.1,-966.77 1211.5,-1442.67 46.7,-166.43 231.3,-706.13 190.6,-1087.81"></path></g><g transform="scale(1.14615)" id="g38"><path id="path40" style="fill:#e4e3d6;fill-opacity:1;fill-rule:nonzero;stroke:none" d="m 15835.6,2704.7 c 218.3,431.88 464.4,1392.66 -69.8,2277.18 -532.2,881.21 -1633,1390.39 -2469.2,1771.14 -977.1,444.97 -1221.4,1265.1 -1221.4,1265.1 -34.9,69.8 -299.9,-471.31 -97.3,-1046.98 359,-1020.37 1318.7,-1291.27 2173.8,-1675.17 855,-383.89 1133.2,-702.87 1387.2,-1134.22 375.2,-636.92 296.7,-1457.05 296.7,-1457.05"></path></g><g transform="scale(1.11537)" id="g42"><path id="path44" style="fill:#e4e3d6;fill-opacity:1;fill-rule:nonzero;stroke:none" d="m 15721.8,1788.2 c 296.9,348.58 578.2,1465.79 188.2,2165.11 -389.9,699.32 -1492.7,1208.84 -2420.6,1559.22 -927.9,350.38 -1085,753.56 -1180.9,1009.35 -52.5,139.6 -190.1,-617.82 266.5,-1196.91 685.2,-869.04 1971.8,-958.7 2671.1,-1828.37 419.1,-521.26 484.1,-904.63 516.1,-1251.15 31.8,-346.53 -40.4,-457.25 -40.4,-457.25"></path></g><g transform="scale(1.07548)" id="g46"><path id="path48" style="fill:#e4e3d6;fill-opacity:1;fill-rule:nonzero;stroke:none" d="m 15620.9,790.341 c 185.9,204.559 679.1,1071.239 437,1887.519 -241.8,815.17 -680.3,1236.09 -1501.6,1558.46 -621.4,243.8 -855.5,426.69 -1055.4,682.39 -67.9,86.75 -27.3,-330.08 260.3,-697.36 252.9,-322.83 989.4,-886.67 1469.1,-1627.17 393.6,-607.45 477.3,-994.9 468,-1320.34 -9.3,-325.43 -77.4,-483.499 -77.4,-483.499"></path></g><path id="path50" style="fill:#e4e3d6;fill-opacity:1;fill-rule:nonzero;stroke:none" d="m 5491.15,1439.6 c -297.82,193.7 -765.38,909.1 -573.5,1983.7 C 5161.46,4788.9 6525.03,5925 7095,6630 c 569.97,705 586.05,1034.2 616.04,1139.2 30,105 359.99,-449.9 0,-1409.9 C 7353.29,5405.3 6814.58,4849.9 6196.12,3869.4 5581.15,2894.5 5458.7,2271 5459.99,1893.3 c 1.23,-358.9 31.16,-453.7 31.16,-453.7"></path><path id="path52" style="fill:#e4e3d6;fill-opacity:1;fill-rule:nonzero;stroke:none" d="m 4872.79,1979.5 c 0,0 -231.13,462.2 -336.12,957.2 -105,495 -155.46,1142.7 564.51,2177.7 719.96,1034.9 2018.3,2140.8 2435.15,2912.7 C 8105,9080 7552.88,10438.3 7530,10210 7463.95,9550.9 7275,8825 6479.43,8150 5703.19,7491.4 3790,6236.7 3691.25,4499.4 3605.85,2997.1 4501.21,2159.5 4872.79,1979.5 v 0"></path><path id="path54" style="fill:#e4e3d6;fill-opacity:1;fill-rule:nonzero;stroke:none" d="M 3616.26,3224.5 C 3669.96,3030 2326.32,4754.4 3063.33,6776.7 3660.21,8414.4 5555.28,9306 6166.13,10004.1 6740,10660 6945,11085 6975,11460 c 4.79,59.8 581.72,-905.1 1.67,-2116.7 C 6390.57,8119.2 4193.13,7235.2 3623.33,5836.7 3026.1,4370.8 3554.72,3447.3 3616.26,3224.5"></path><path id="path56" style="fill:#e4e3d6;fill-opacity:1;fill-rule:nonzero;stroke:none" d="m 4663.34,9096.7 c 313.33,573.3 1560,1286.6 1751.66,2028.3 249.35,964.9 -440.65,1345.6 -903.11,1574.9 -73.05,36.2 143.83,-451.8 98.11,-1099.9 -44.44,-630 -412.5,-1229.1 -673.33,-1743.3 -233.34,-460 -273.33,-760 -273.33,-760"></path><path id="path58" style="fill:#e4e3d6;fill-opacity:1;fill-rule:nonzero;stroke:none" d="m 7940,9730 c -62.08,904.7 -789.54,1936.8 -1380,2490 -475,445 -1423.99,965.8 -1375,995 210,125 843.51,30 1197.12,-35 C 7035,13060 7895,12339.2 8125,11399.2 8368.58,10403.7 7940,9730 7940,9730"></path><path id="path60" style="fill:#e4e3d6;fill-opacity:1;fill-rule:nonzero;stroke:none" d="m 8485,11170 c 155,255 193.3,1230.7 -126.84,1810 C 7905,13800 7140,14085 5950,14272 c -1052.56,165.5 -2225,448 -2660,718 -125.86,78.1 64.05,-423.5 450,-770 440,-395 1044,-654.8 1982,-737.4 938,-82.6 1746.32,-335.7 2253,-987.6 427.5,-550 510,-1325 510,-1325"></path><g transform="scale(1.03336)" id="g62"><path id="path64" style="fill:#e4e3d6;fill-opacity:1;fill-rule:nonzero;stroke:none" d="m 8579.75,12076.1 c 100.66,436.5 -94.78,1871.4 -972.51,2496.6 -1210.64,862.4 -2917.5,769.3 -3817.44,885.4 -899.94,116.1 -1291.85,638.7 -1466.02,740.3 -174.18,101.6 57.11,-851.8 537.06,-1190.2 858.41,-605.4 2873.96,-682.2 3802.93,-987.1 928.97,-304.8 1218.12,-587.6 1506.98,-1037.6 288.85,-450 409,-907.4 409,-907.4"></path></g><g transform="scale(1.13817)" id="g66"><path id="path68" style="fill:#e4e3d6;fill-opacity:1;fill-rule:nonzero;stroke:none" d="m 7780.02,12453.6 c 0,615 -373.41,1595.2 -1234.44,2078.5 -834.64,468.4 -2073.5,606.2 -2899.38,790.7 -825.89,184.5 -1651.77,418.8 -1906.57,773.2 -146.69,204 34.14,-716.6 317.7,-1036.8 306.11,-345.6 833.27,-729.2 1887.59,-738 1054.32,-8.8 2114.62,-211.7 2635.8,-527.2 500.81,-303.1 850.38,-650.4 1016.27,-919.6 91.46,-148.4 183.03,-420.8 183.03,-420.8"></path></g><g transform="scale(1.21221)" id="g70"><path id="path72" style="fill:#e4e3d6;fill-opacity:1;fill-rule:nonzero;stroke:none" d="m 6187.03,13883.7 c -140.24,247.5 -1025.68,1017.4 -1955.1,1303.4 -949.43,292.1 -2188.83,753.4 -2452.82,993 -132.16,119.9 -215.08,-495.4 -65.99,-828 142.99,-319 480.98,-534.9 1999.1,-734.2 952.83,-125.1 1854.95,-471.5 2070.59,-561 258.48,-107.2 445.47,-242 445.47,-242 l -41.25,68.8"></path></g><g transform="scale(1.09924)" id="g74"><path id="path76" style="fill:#e4e3d6;fill-opacity:1;fill-rule:nonzero;stroke:none" d="m 8360.29,11266.8 c 632.26,727.8 956.48,2429.4 157.69,3528.7 -462.44,636.3 -582.53,965.1 -693.21,1352 -43.64,152.5 -232,-322.3 -180.88,-912.9 67.48,-779.2 489.84,-1320 680.02,-1941.1 173.62,-567.1 250.17,-1028.2 209.23,-1421.7 -20.5,-197 -172.85,-605 -172.85,-605"></path></g><g transform="scale(1.21556)" id="g78"><path id="path80" style="fill:#e4e3d6;fill-opacity:1;fill-rule:nonzero;stroke:none" d="m 8377.46,11141.6 c 235.78,246.6 932.41,879.9 707.49,1886.7 -198.76,890.1 -787.95,1261.2 -1233.97,1935.5 -397.62,601 -329.87,1114.1 -326.32,1225.1 3.54,111.1 -492.92,-558.8 -332.65,-1251.8 252.27,-1091 925.46,-1439.6 1081.3,-2303.7 135.74,-752.7 7.98,-1454.3 -60.17,-1602.3 -50.28,-109.3 164.32,110.5 164.32,110.5"></path></g><g transform="scale(1.28834)" id="g82"><path id="path84" style="fill:#e4e3d6;fill-opacity:1;fill-rule:nonzero;stroke:none" d="m 8724.54,11153 c 229.51,151.4 736.6,595.8 671.87,1571.7 -82.12,1239 -1129.36,2154.1 -1478.57,2561.5 -303.41,354 -396.56,867.4 -373.27,959.5 23.28,92 -368.63,-516.2 -278.36,-1016.6 164.84,-913.7 907.85,-1608 1274.45,-2139.9 367.44,-533 393.22,-1072 366.82,-1377.3 -23.2,-267.8 -182.94,-558.9 -182.94,-558.9"></path></g><path id="path86" style="fill:#e4e3d6;fill-opacity:1;fill-rule:nonzero;stroke:none" d="m 10108.7,539.801 c -129.59,-356 -47.8,-655.801 50.2,-928.801 17.2,0.398 20.6,-2.199 37.8,-1 20,0 -16.7,30 3.3,30 259.9,4.102 519.8,9.699 779.7,11.699 -142.3,114.504 -271.1,220.703 -378.1,321.4026 C 10163.9,385 10161,683.402 10108.7,539.801"></path><path id="path88" style="fill:#e4e3d6;fill-opacity:1;fill-rule:nonzero;stroke:none" d="M 12256.7,503.301 C 12080.8,737.102 11190,1250 10500,2834.5 9895.01,4223.7 10245,5590 10022,6001.6 9857.12,6306.1 9675,6235 9730,6270 c 110,70 980,40 1310,-800 330,-840 222.8,-1687.4 303.3,-2433.3 100,-926.7 343.5,-1775.8 913.4,-2533.399"></path><path id="path90" style="fill:#e4e3d6;fill-opacity:1;fill-rule:nonzero;stroke:none" d="m 12240.8,5504.3 c -430.8,920.7 -1343.7,1050 -1397.5,1035 -53.8,-15 306.3,-134.2 475.6,-738.6 381.1,-1360.7 137.8,-2572.5 621.9,-4092.2 298.9,-938.398 691,-1637.8984 1159.4,-2157.5 3.2,-0.398 6.5,-0.598 9.8,-1 30,-10 60,-30 90,-30 200,-10 400,10 600,0 20,0 40,-30 60,-30 31.6,-0.301 63.3,-0.5 94.9,-0.699 -369.8,586.8006 -795.1,1421.301 -1092.2,2490.199 -266.6,959.5 -217.8,2661.3 -621.9,3524.8"></path><path id="path92" style="fill:#e4e3d6;fill-opacity:1;fill-rule:nonzero;stroke:none" d="m 14085.7,3989.4 c -228.3,1200.8 -1400,1906.6 -1679.5,1926.2 -89.6,6.3 299.6,-337.3 423.8,-1105.6 76,-470.4 89.7,-2100.6 400.8,-3160.5 215.7,-735.102 576.7,-1517 1015,-2172.301 233,-0.699 512,10 744.9,10.801 -219,493.8984 -426,1050.801 -530,1500.5 -214,925.6 -219.2,2181.5 -375,3000.9"></path><g transform="scale(1.28834)" id="g94"><path id="path96" style="fill:#e4e3d6;fill-opacity:1;fill-rule:nonzero;stroke:none" d="m 9757.88,16510.9 c 442.32,-738.4 1013.12,-1162.2 1675.92,-1399.6 0,0 -483.8,478.1 -941.3,1396.5 -244.8,-2.5 -489.7,6.7 -734.62,3.1"></path></g><g transform="scale(1.28834)" id="g98"><path id="path100" style="fill:#e4e3d6;fill-opacity:1;fill-rule:nonzero;stroke:none" d="m 11014.1,16548.4 c -116.8,-20.6 -221.5,-4.8 -330.1,-11.7 396.8,-792.2 966.8,-1522.7 1579.8,-1657.1 l -96.5,80.4 c -157.7,129.8 -549.6,901.4 -792.5,1599.1 -120.2,4.2 -240.4,7.8 -360.7,-10.7"></path></g><path id="path102" style="fill:#e4e3d6;fill-opacity:1;fill-rule:nonzero;stroke:none" d="m 2928.11,14579.5 c 113.33,132.2 728.56,-405.1 621.34,-725.7 C 3382.46,13354.5 2580,13210 2270,12940 c -166.59,-145.1 222.43,356.7 500,856.7 238.95,430.4 129.54,749.4 158.11,782.8"></path><path id="path104" style="fill:#e4e3d6;fill-opacity:1;fill-rule:nonzero;stroke:none" d="m 680,11110 c 755,615 2420,1074 3080,1285 660,211 951.51,665 772.9,1030 -115,235 -542.9,465 -632.9,435 -90,-30 121.07,-140 -214.46,-470 C 3350,13060 2000.57,12574.4 1485,12105 919.629,11590.3 680,11110 680,11110"></path><g transform="scale(1.28834)" id="g106"><path id="path108" style="fill:#e4e3d6;fill-opacity:1;fill-rule:nonzero;stroke:none" d="m 17487.6,8056.86 c 0,77.62 15.5,155.24 15.5,232.85 9.1,154.55 8.7,309.03 6.8,463.54 -393.3,-147.94 -755.8,-314.12 -999.6,-498.7 -576,-436.22 -1017.1,-1217.76 -1095.2,-1664.69 0,0 527.4,606.59 884,843.48 302.5,200.88 657,354.57 1165.2,500.72 0,2.18 0,4.27 0,6.37 7.7,38.81 23.3,77.62 23.3,116.43"></path></g><g transform="scale(1.28834)" id="g110"><path id="path112" style="fill:#e4e3d6;fill-opacity:1;fill-rule:nonzero;stroke:none" d="m 17417.7,7032.29 c 7.8,108.66 0,217.33 15.5,326 13.2,66.13 11.4,132.26 8.9,198.39 -2340.7,-761.37 -2534.9,-2350.69 -2406.4,-2120.01 71.4,128.07 502.2,734.04 1629.1,1129.28 181.6,63.65 438.4,118.99 726.4,172.63 1.5,66.75 2.7,133.58 3.2,200.56 0,31.05 15.6,62.1 23.3,93.15"></path></g><g transform="scale(1.28834)" id="g114"><path id="path116" style="fill:#e4e3d6;fill-opacity:1;fill-rule:nonzero;stroke:none" d="m 15688.6,5790.38 c -863.7,-731.02 -857.2,-1764.82 -808.6,-1536.86 39.5,186.29 372.5,589.91 998.8,846.05 301.4,123.18 873.6,197.39 1423.6,296.97 31.3,318.47 57.6,636.71 74.1,956.5 -656.9,-103.46 -1296.1,-230.99 -1687.9,-562.66"></path></g><g transform="scale(1.28834)" id="g118"><path id="path120" style="fill:#e4e3d6;fill-opacity:1;fill-rule:nonzero;stroke:none" d="m 15252.5,4401 c -449.8,-405.17 -404.3,-1086.67 -285.4,-1210.86 43.6,-23.28 103.1,131.96 285.4,349.29 182.4,217.33 852.5,506.54 1712.5,822.76 81.4,29.96 159.9,62.87 235.2,98.03 25,217.96 49.8,434.98 72.9,651.77 -688.8,-121.78 -1545.6,-283.23 -2020.6,-710.99"></path></g><path id="path122" style="fill:#e4e3d6;fill-opacity:1;fill-rule:nonzero;stroke:none" d="m 4863.54,13084.1 c 27.8,-224.1 -104.99,-605.1 -624.67,-905.1 -496.78,-286.8 -2983.75,-799 -3967.972,-1544.3 -156.496,-118.6 -305.2144,-256.9 -443.496,-406.8 -1.636,-109.3 -6.472,-218.6 -17.402,-327.9 -10,-70 -20,-160 -20,-240 0,-10 20,-20 30,-30 9.551,-57.3 10.078,-105.7 18.812,-170.9 55.215,43.9 108.9575,83.7 159.97706,117.6 C 580.984,9963.3 1312.68,10214.1 2630.23,10500 c 1317.54,285.9 2433.32,775.8 2635.1,1424 197.99,636 -417.78,1289.1 -401.79,1160.1"></path><path id="path124" style="fill:#e4e3d6;fill-opacity:1;fill-rule:nonzero;stroke:none" d="M 5032.81,11139.2 C 4907.54,11044.4 4889.3,10573.9 2164.09,9929.1 1159.37,9691.4 407.219,9340.8 -151.742,8963.5 c -0.692,-47.9 -0.531,-95.7 1.742,-143.5 0,-10 30,-20 30,-30 2.633,-189.5 6.633,-379.1 10.027,-568.6 175.1566,83.2 367.953,163.4 580.024,237.8 790.109,277.1 2689.099,432.2 3493.059,790.9 986.1,439.9 1195,1984 1069.7,1889.1"></path><path id="path126" style="fill:#e4e3d6;fill-opacity:1;fill-rule:nonzero;stroke:none" d="m 4053.78,8960 c -849.94,-748.9 -2860.5,-632.3 -4158.354,-1119.4 3.363,-382.8 -1.524,-765.5 -30.707,-1148.3 C 728.344,6895 2174.6,7011.2 2789.2,7400 c 727.17,460 1565.4,1825.1 1264.58,1560"></path><path id="path128" style="fill:#e4e3d6;fill-opacity:1;fill-rule:nonzero;stroke:none" d="M 2531.88,6920 C 2206.71,6665.1 949.098,6605.2 -129.941,6282.2 -130.039,6205.6 -136.73,6129.8 -160,6060 c -30,-70 0,-160 -20,-240 -10,-10 -30,-20 -30,-30 -6.301,-195.3 -0.703,-390.6 1.812,-585.9 313.27,132.6 673.836,272.1 1064.958,415.9 1325.83,487.5 2053.03,1596.2 1675.11,1300"></path><path id="path130" style="fill:#e4e3d6;fill-opacity:1;fill-rule:nonzero;stroke:none" d="m 10970,1640 c -223.6,-1.6 -320,-600 -320,-780 -20,-440 240,-755 560,-1035 66.9,-58.301 134.3,-116.297 201.6,-174.297 236.2,-3.402 472.3,-12.301 708.4,-30.703 74.1,-5.301 148.1,-5 222.2,-5 -286.7,493 -651.3,940.902 -922.2,1365 -120,180 -370,660.6 -450,660"></path><g transform="scale(1.28834)" id="g132"><path id="path134" style="fill:#e4e3d6;fill-opacity:1;fill-rule:nonzero;stroke:none" d="m 9022.36,14545.1 c 718.05,-1015 804.21,-2192.9 341.06,-3106.6 0,0 644.98,629.5 782.08,1474.7 87.3,538.2 86.1,1303 -468.58,2027.7 -473.78,619.1 -1104.98,1015.4 -1448.06,1338.2 -68.54,64.5 -123.57,125.5 -168.04,180.9 -87.95,-0.5 -175.19,-2.9 -262.51,-4.1 -34.54,-725.7 760.43,-1255.4 1224.05,-1910.8"></path></g><g transform="scale(1.25031)" id="g136"><path id="path138" style="fill:#e4e3d6;fill-opacity:1;fill-rule:nonzero;stroke:none" d="m 10268,12200.1 c 110.3,129.4 285.4,392.8 373.4,708.7 219.5,788 96.6,1702.6 -107.5,2314.4 -204.1,611.8 -408.4,1076.8 -408.4,1076.8 443.9,-239.9 1200.1,-1095.8 1183.7,-2343.4 -7.8,-599.9 -258.6,-1290.4 -1041.2,-1756.5 v 0"></path></g><g transform="scale(1.28834)" id="g140"><path id="path142" style="fill:#e4e3d6;fill-opacity:1;fill-rule:nonzero;stroke:none" d="m 9197.86,16439.7 c -254.05,-7.2 -508.1,-14.5 -762.14,3.6 73.66,-100.4 165.71,-192 265.38,-279.1 481.23,-419.2 993.52,-818.9 1257.42,-1408.8 l -46.57,388.1 c -81.96,492.3 -356.5,926.3 -636.39,1325.1 -17.86,-0.4 -35.94,-1.9 -54.42,-5.6 -7.76,-7.8 -15.52,-23.3 -23.28,-23.3"></path></g><path id="path144" style="fill:#e4e3d6;fill-opacity:1;fill-rule:nonzero;stroke:none" d="M 10066.8,3320 C 9515,3740 9034.77,5020.7 8970,5470 c -80,555 -250,574.9 -200,637.5 50,62.5 579.53,94.5 870,-191.8 300,-295.7 238.96,-976 220,-1425.7 -35,-830 336.3,-1268.6 206.8,-1170"></path><path id="path146" style="fill:#e4e3d6;fill-opacity:1;fill-rule:nonzero;stroke:none" d="m 13860,5380 c -376.7,133.3 -640,350 -850,560 -380,370 -617.1,1116.7 -380,1700 138.4,340.6 430,550 630,840 200,-380 40,-860 -20,-1260 -70,-450 73.3,-1263.3 620,-1840 v 0"></path><path id="path148" style="fill:#e4e3d6;fill-opacity:1;fill-rule:nonzero;stroke:none" d="m 12623.3,6076.7 c -226.6,306.6 -493.3,640 -413.3,1046.6 -333.3,60 -666.7,-293.3 -400,-593.3 126.7,-140 293.3,-233.3 446.7,-320 106.6,-60 253.3,-113.3 366.6,-133.3 v 0"></path><g transform="scale(1.28834)" id="g150"><path id="path152" style="fill:#e4e3d6;fill-opacity:1;fill-rule:nonzero;stroke:none" d="m 11619.6,16556.1 c -17.2,-0.6 -34.3,-0.9 -51.5,-1.1 38.4,-130.5 82.5,-261.2 133.5,-390.8 554.4,-1408.8 1301.5,-1608.8 1260.8,-1556.3 -476.5,615.2 -678.9,1309.8 -777.3,1975.7 -173,-1 -345.9,-2.4 -519,-4.2 -15.5,0 -31,-23.3 -46.5,-23.3"></path></g><path id="path154" style="fill:#e4e3d6;fill-opacity:1;fill-rule:nonzero;stroke:none" d="m 14155,4775 c -78.7,3.5 325.4,-369.3 401.7,-1411.7 37.4,-510.6 -54.4,-2081.3 519,-3538.3 46.6,-118.602 94.4,-230.5 142.8,-336.199 236.1,1 428.1,-6 664.3,-5.098 C 15607.5,492.5 15601,1438 15540.7,2264.5 15430,3780 14489.3,4760 14155,4775"></path><g transform="scale(1.28834)" id="g156"><path id="path158" style="fill:#e4e3d6;fill-opacity:1;fill-rule:nonzero;stroke:none" d="m 12392.7,16584.5 c 35.7,-278.2 92.1,-537.8 135,-688.1 139.7,-489 483.8,-1426.7 1211.3,-1676.6 -660.2,939.2 -714.5,1459.2 -775.3,2160.4 -6.1,70.1 -9.9,138.2 -12.3,204.8 -186.2,0.3 -372.5,0.2 -558.7,-0.5"></path></g><g transform="scale(1.02997)" id="g160"><path id="path162" style="fill:#e4e3d6;fill-opacity:1;fill-rule:nonzero;stroke:none" d="m 15977.9,2184.53 c -126.8,293.41 -369,634.29 -758.4,802.16 318.1,-446.13 319.8,-1152.07 253.5,-1731.99 -64.1,-559.048 92.6,-1386.451 194,-1747.433 203.8,0.485 407.6,0.485 611.3,-0.387 -27.1,191.753 -44.6,386.321 -62.6,593.415 -66.3,763.615 84.3,1338.875 -237.8,2084.235"></path></g><g transform="scale(1.13283)" id="g164"><path id="path166" style="fill:#e4e3d6;fill-opacity:1;fill-rule:nonzero;stroke:none" d="m 15558.9,9529.39 c -464,1425.41 -388.1,3113.11 0,4081.51 704.1,1757.7 -272.7,2622.7 -667,2675.7 -99.8,13.4 148,-504.3 -9.6,-1444.3 -157.6,-940.1 -551.7,-2215.2 -280.7,-3438.8 298.4,-1346.9 957.3,-1874.11 957.3,-1874.11"></path></g><g transform="scale(1.17894)" id="g168"><path id="path170" style="fill:#e4e3d6;fill-opacity:1;fill-rule:nonzero;stroke:none" d="m 14550,9389.82 c -493.8,254.47 -1501.5,1005.38 -1654.2,2716.08 -152.7,1710.6 271.2,2450.6 231.9,3119.7 -45.1,769 -454.5,1020.1 -391,1034.8 170.4,39.6 1003.7,-202.4 1199.8,-780.3 305.2,-899.2 -42,-1903.1 -207.5,-2980.1 -199.9,-1300.6 134.8,-2300.2 508.9,-2742.84 239.9,-283.87 312.1,-367.34 312.1,-367.34 v 0"></path></g><g transform="scale(1.19439)" id="g172"><path id="path174" style="fill:#e4e3d6;fill-opacity:1;fill-rule:nonzero;stroke:none" d="m 13124.3,10349.9 c -239.8,390.8 -674.5,1279.4 -652.9,2421.3 17.2,916.6 335.7,1967.1 207.3,2536.4 -126.6,561.3 -569.4,992.4 -1011.1,992.4 -200.9,0 -89.2,-26.2 134.6,-551 307.1,-720.4 138.3,-1962.4 134.2,-2590.3 -5.7,-848.4 403.3,-1846.6 692,-2299.6 284.7,-446.6 495.9,-509.2 495.9,-509.2"></path></g><g transform="scale(1.22482)" id="g176"><path id="path178" style="fill:#e4e3d6;fill-opacity:1;fill-rule:nonzero;stroke:none" d="m 14414.8,9453.65 c -122.4,575.55 -293.9,1690.45 514.3,2578.05 808.3,887.6 877,1487.6 854.8,1610.1 -22,122.5 516.1,-237.6 504.2,-864.4 -11.9,-626.9 -782.9,-1233.4 -1121.2,-1589.4 -419.2,-440.9 -676.7,-1096.8 -715.3,-1379.21 -33.2,-242.1 -36.8,-355.14 -36.8,-355.14"></path></g><g transform="scale(1.17454)" id="g180"><path id="path182" style="fill:#e4e3d6;fill-opacity:1;fill-rule:nonzero;stroke:none" d="m 15065.5,12353.8 c -102.2,842.8 766.2,1578.3 459.7,2485 170.3,-67.1 519.4,-262.9 634.3,-518.3 140.5,-306.5 9,-567.2 -182.6,-809.8 -189.4,-243.5 -588.4,-649.4 -911.4,-1156.9 v 0"></path></g><path id="path184" style="fill:#e4e3d6;fill-opacity:1;fill-rule:nonzero;stroke:none" d="m -349.555,16041 c 48.543,-539.2 -35.82,-1094.5 39.555,-1641 20,-160 -40,-370 20,-540 20,-30 10,-80 20,-120 0.816,-0.8 1.633,-1.6 2.449,-2.4 241.7971,353.8 392.778,750.6 421.36,1190.8 30.007,462.2 -256.961,885.5 -503.364,1112.6"></path><path id="path186" style="fill:#e4e3d6;fill-opacity:1;fill-rule:nonzero;stroke:none" d="m 7576.05,5302.5 c -90,-428.1 18.55,-917.4 216.5,-1353.6 C 8270,2896.7 9385.83,2243.9 9616.67,1296.7 9810,503.301 9603.33,-163 9423.34,-343.301 c 0,0 1.12,345.19944 -286.67,846.602 C 8696.67,1270 7640.08,1922.2 7235.1,2680 c -404.98,757.8 -345.1,1330 -205,1760 151.92,466.2 545.95,862.5 545.95,862.5"></path><path id="path188" style="fill:#e4e3d6;fill-opacity:1;fill-rule:nonzero;stroke:none" d="M 8490,6076.7 C 8169.41,5823.3 7673.29,5215.5 8023.04,4250 8416.67,3163.3 10013.2,2156.7 10013.2,616.703 10013.2,548.102 10600,1430 10340,2220 10080,3010 9013.3,4231 8760.96,4775 8358.16,5643.3 8517.25,6098.2 8490,6076.7"></path><path id="path190" style="fill:#e4e3d6;fill-opacity:1;fill-rule:nonzero;stroke:none" d="M 7750,1439.6 C 6267.46,3023.9 6736.57,4060.9 6676.09,4004.4 5824.91,3209.5 6043.34,2196.7 6541.1,1439.6 6884.51,917.199 7568.51,455.801 8251.01,-375.398 c 37.12,-45.204 71.48,-89.301 103.33,-132.301 15.22,2 30.44,4.398 45.66,7.699 130,30 260,10 390,20 30,10 60,30 90,30 77.36,6.398 154.72,-3.699 232.07,-3.699 C 9063.16,403.203 8217.93,939.5 7750,1439.6"></path><g transform="scale(1.28834)" id="g192"><path id="path194" style="fill:#e4e3d6;fill-opacity:1;fill-rule:nonzero;stroke:none" d="m 7428.14,16486.3 c -79.42,14.4 -158.84,-4.7 -238.27,11.3 124.9,-281.9 124.44,-464.1 124.44,-464.1 66.72,66.9 138.13,219.8 178.23,428.3 -5.95,0.5 -11.87,0.7 -17.83,1.2 -15.52,0 -31.04,15.5 -46.57,23.3"></path></g><g transform="scale(1.28834)" id="g196"><path id="path198" style="fill:#e4e3d6;fill-opacity:1;fill-rule:nonzero;stroke:none" d="m 6543.29,16532.9 c -15.53,0 -31.05,23.2 -46.58,23.2 -69.85,7.8 -139.71,-7.7 -209.57,0 -7.76,0 -15.52,23.3 -23.28,23.3 -128.92,5.9 -257.84,-1.5 -386.75,-2.2 169.06,-165.3 348.2,-350.5 527.25,-568.6 454.58,-553.6 381.34,-897.3 381.34,-897.3 0,0 50.63,-31.7 177.49,268.7 196.97,466.2 109.94,830.7 -86.07,1135.8 -2.62,0.5 -5.23,0.9 -7.83,1.5 -116.43,23.3 -217.34,7.8 -326,15.6"></path></g><path id="path200" style="fill:#e4e3d6;fill-opacity:1;fill-rule:nonzero;stroke:none" d="M 5915,2420 C 5359.97,1549.5 5584.03,565 6129.45,-87.8984 6282.78,-271.5 6488.76,-449.5 6726.77,-648.398 c 107.75,27.101 215.49,-1 323.23,28.398 80,20 160,0 240,30 80,20 160,0 240,30 120,30 240,10 360,20 16.46,5.5 32.92,13.898 49.38,20.5 C 7711.05,-311.102 7466.28,-133 7266.01,37.1016 5710.12,1357.8 5956.88,2485.7 5915,2420"></path><path id="path202" style="fill:#e4e3d6;fill-opacity:1;fill-rule:nonzero;stroke:none" d="m 5723.58,30 7.56,-90.3984 c 0,0 3.65,-249.4996 112.76,-636.9996 121.1,0.097 242.19,1 363.29,2.398 -232.87,221.203 -421.03,462.199 -483.61,725"></path><g transform="scale(1.28834)" id="g204"><path id="path206" style="fill:#e4e3d6;fill-opacity:1;fill-rule:nonzero;stroke:none" d="m 4504.26,16629 c 67.46,-143.7 153.46,-277.6 253.36,-397.2 292.07,-349.7 830.24,-673.3 1378.17,-1274.6 438.54,-481.2 378.71,-1016.8 378.71,-1016.8 0,0 88.26,184.3 160.74,481.2 252.26,1033.4 -555.97,1500.1 -1035.43,1907.2 -116.17,98.6 -219.35,195.8 -311.08,291 -274.81,23 -549.64,16.1 -824.47,9.2"></path></g><g transform="scale(1.28834)" id="g208"><path id="path210" style="fill:#e4e3d6;fill-opacity:1;fill-rule:nonzero;stroke:none" d="m 4442.59,16323.3 c 116.43,-489 792.83,-881 1165.39,-1195.3 454.04,-395.9 831.31,-1040.3 761.45,-1680.7 -23.28,-197.9 -82.29,-376.3 -162.99,-558.8 -128.06,582.1 -605.4,978 -954.67,1432 -244.49,314.4 -375.89,610.6 -540.29,965.7 -257.02,555.2 -263.02,966.9 -263.02,966.9 l -5.87,70.2"></path></g><path id="path212" style="fill:#e4e3d6;fill-opacity:1;fill-rule:nonzero;stroke:none" d="m 470,15493.9 c 150,-713.9 70.355,-1245.6 -280,-1757.2 -123.5859,-180.5 -258.0781,-339.9 -400.797,-486.5 -1.566,-36.7 -2.266,-73.5 0.797,-110.2 0,-10 30,-20 30,-30 10,-70 -10,-140 10,-210 40,-130 0,-280 20,-420 0,-10 30,-20 30,-30 -3.691,-107 -0.57,-212.6 2.32,-318.4 525.664,385.6 1089.09,844.1 1334.03,1367.3 254.99,540 33.65,1541.1 -746.35,1995"></path><path id="path214" style="fill:#e4e3d6;fill-opacity:1;fill-rule:nonzero;stroke:none" d="m 1323.35,13250 c -75,-210 -167,-426 -316.99,-606 -338.153,-371.3 -732.008,-669.3 -1132.305,-958.9 -3.625,-34.8 -8.172,-69.8 -14.055,-105.1 -30,-150 0,-300 -10,-450 0,-10 -30,-20 -30,-30 -4.203,-168.1 0.422,-336.3 4.23,-504.4 202.8989,202.7 407.524,403.4 612.161,593.5 344.98,300 597.579,573.1 779.959,1004.9 164.43,389.3 162.19,624.5 107,1056"></path><g transform="scale(1.28834)" id="g216"><path id="path218" style="fill:#e4e3d6;fill-opacity:1;fill-rule:nonzero;stroke:none" d="m 14099.3,7706.87 c -275.7,631.2 -339.6,1301.01 -4.5,2018.4 466.5,998.33 1898.2,1728.73 1675.8,2800.93 -50.7,244.7 690.3,-299.1 648.8,-938.9 -46.1,-709.8 -502,-1274.3 -1148.7,-1696.61 -646.7,-422.35 -1014.3,-775.62 -1132.5,-1226.75 -113.8,-434.77 -38.9,-957.07 -38.9,-957.07"></path></g><g transform="scale(1.28834)" id="g220"><path id="path222" style="fill:#e4e3d6;fill-opacity:1;fill-rule:nonzero;stroke:none" d="m 16664.8,12026.2 c 116.4,-554.1 54.7,-966.8 -217.3,-1363.9 -489,-714.12 -1197.4,-1005.44 -1857.4,-1699.89 -341.8,-359.63 -510.8,-792 -191.8,-1930.75 -23.3,931.43 709,1593.13 1407.5,2093.76 477.4,349.26 1182.2,805.15 1438.3,1352.38 197.9,419.1 26.1,1196.1 -579.3,1548.4"></path></g><g transform="scale(1.28834)" id="g224"><path id="path226" style="fill:#e4e3d6;fill-opacity:1;fill-rule:nonzero;stroke:none" d="m 17327.2,10284.5 c -58.2,-163 -129.7,-330.65 -246,-470.35 -593.8,-651.97 -1408.8,-1012.88 -2002.5,-1664.85 -291.1,-326 -526.4,-691.04 -514.8,-1168.4 11.6,-279.35 102.2,-697.64 401.1,-1116.78 -93.2,221.21 -15.6,652 65.9,849.93 151.4,395.85 350.5,713.4 641.5,1016.11 314.3,314.36 640.3,652 966.3,954.68 267.8,232.85 463.9,444.87 605.4,780.04 127.7,302.18 125.9,484.74 83.1,819.62"></path></g><path id="path228" style="fill:#e4e3d6;fill-opacity:1;fill-rule:nonzero;stroke:none" d="m 3270,1210 c 420,1100 320,1940 -380,2860 57.89,-206.9 66.67,-353.3 46.67,-513.3 C 2836.67,2736.7 2030,2030 1850,1170 1739.58,648 1853.52,39.8008 2131.26,-507.199 c 129.58,0.101 259.16,-0.602 388.74,-2.801 10,0 20,-30 30,-30 80,-10 170,20 240,-10 32.73,-10.898 65.46,-13.797 98.19,-14.199 C 2858.75,37.4023 3056.45,644.699 3270,1210"></path><path id="path230" style="fill:#e4e3d6;fill-opacity:1;fill-rule:nonzero;stroke:none" d="m 4646.48,1690.8 c -260,420 -438.42,545.9 -849.81,899.2 C 4110,1910 3400,460 3300,-400 c -8.7,-66.102 -12.6,-132.199 -12.22,-198.102 64.08,3.004 128.15,4.102 192.22,-11.898 130,-30 260,0 390,-20 20,-10 40,-30 60,-30 166.64,-4.5 333.27,-2.898 499.91,-0.699 99.07,294.402 229.25,585.699 335.25,850.699 180,400 81.32,1100.8 -118.68,1500.8"></path><path id="path232" style="fill:#e4e3d6;fill-opacity:1;fill-rule:nonzero;stroke:none" d="m 5123.33,1016.7 c 73.18,-417.598 -185.97,-1065.8992 -326.76,-1673.899 81.14,0.101 162.29,-0.602 243.43,-2.801 20,0 40,-30 60,-30 156.52,-3.301 313.04,-5.398 469.56,-6.598 45.43,583.496 54.95,1242.598 -446.23,1713.298"></path><path id="path234" style="fill:#e4e3d6;fill-opacity:1;fill-rule:nonzero;stroke:none" d="m 1883.33,2236.7 c 320,540 673.34,1246.6 780.32,1793.3 C 2769.11,4568.9 2650,5380 2330,6030 2390,5180 1970,4530 1630,4110 790,3130 170.367,1960 370.367,620 419.219,278 624.984,-144.297 958.945,-512.5 c 269.255,-1.398 538.525,1.602 807.785,3.703 C 1231.81,417.5 1276.65,1199.4 1883.33,2236.7"></path><path id="path236" style="fill:#e4e3d6;fill-opacity:1;fill-rule:nonzero;stroke:none" d="m 640,-520 c -1001.641,764.699 -1650,2150 -1550,3150 40,600 271.687,1270.6 640,1740 510,650 2210,1510 2210,1510 80,-440 -113.77,-949 -423.15,-1310 C 959.742,3920 405.211,3400 170,2790 -105.359,2075.9 -200,650 640,-520 v 0"></path><g transform="scale(1.28834)" id="g238"><path id="path240" style="fill:#e4e3d6;fill-opacity:1;fill-rule:nonzero;stroke:none" d="m 2212.14,16486.3 c -77.62,-15.5 -163,7.7 -232.85,-15.5 -108.67,-31.1 -232.86,0 -349.29,-7.8 -7.76,0 -15.52,-15.5 -23.29,-23.3 -46.97,-9.4 -99.6,-7.4 -147.61,-6.1 147.53,-619.4 578.86,-1235.8 1167.01,-1538.5 -31.05,46.6 -67.76,62.5 -124.19,150.1 -305.57,473.8 -305.84,977.2 -194.36,1466.4 -24.05,-0.3 -48.08,-0.9 -72.13,-2 -7.76,0 -15.53,-15.6 -23.29,-23.3"></path></g><g transform="scale(1.28834)" id="g242"><path id="path244" style="fill:#e4e3d6;fill-opacity:1;fill-rule:nonzero;stroke:none" d="m 3423,16579.4 c -15.52,0 -31.05,-15.5 -46.57,-23.3 -69.86,-7.7 -139.72,0 -209.57,-15.5 -131.96,-23.3 -263.91,0 -395.86,-7.7 -7.76,0 -15.52,-23.3 -23.29,-23.3 -24.55,-1.1 -49.1,-1.7 -73.65,-2 -52.21,-188.3 -94.86,-365.2 -112.63,-518.1 -77.62,-589.9 326,-1181.8 853.81,-1383.6 l 194.05,-83.4 c 0,15.5 -15.53,15.5 -15.53,31.1 -201.81,294.9 -326,481.2 -248.38,884.8 62.1,341.6 229.1,698.6 353.29,1009.1 20.31,45.1 35.92,95.3 47.5,148.8 -22.34,-2.3 -44.68,-5.3 -67.03,-9.1 -85.38,-15.5 -170.76,0 -256.14,-7.8"></path></g><g transform="scale(1.28834)" id="g246"><path id="path248" style="fill:#e4e3d6;fill-opacity:1;fill-rule:nonzero;stroke:none" d="m 3937.92,16602.9 c -110.66,-494 -363.47,-1104 -254,-1526.8 109.23,-421.8 572.19,-755.4 1079.31,-864.1 -263.91,310.5 -496.18,882.3 -450.19,1425.6 25.84,305.5 54.33,648.1 -37.32,959.6 -112.6,-4.6 -225.2,3.8 -337.8,5.7"></path></g><g transform="scale(1.28834)" id="g250"><path id="path252" style="fill:#e4e3d6;fill-opacity:1;fill-rule:nonzero;stroke:none" d="m 400.72,16415.8 c 223.131,-485.6 741.04,-1018.1 1459.55,-1153.3 -156.87,122.5 -296.47,321.1 -461.05,595.1 -115.41,192.1 -199.03,375.8 -251.28,557 -249.072,-12 -498.147,-2.9 -747.22,1.2"></path></g><g transform="scale(1.28834)" id="g254"><path id="path256" style="fill:#e4e3d6;fill-opacity:1;fill-rule:nonzero;stroke:none" d="m 69.8571,16393.1 c -23.4191,-5 -47.5719,-7.4 -71.96434,-8.4 148.48024,-182.6 316.09124,-348.8 498.86924,-488.3 -120.946,168.4 -216.876,343.7 -291.629,521.1 -37.33,-0.1 -74.657,-0.4 -111.9901,-1.1 -7.7619,0 -15.5239,-15.5 -23.2858,-23.3"></path></g><g transform="scale(1.28834)" id="g258"><path id="path260" style="fill:#e4e3d6;fill-opacity:1;fill-rule:nonzero;stroke:none" d="m 17045.1,3213.43 c 7.8,54.33 -7.7,108.67 0,163 0,15.52 23.3,31.05 23.3,46.57 7.8,54.33 0,108.67 0,163 7.8,23.29 15.6,46.57 23.3,69.86 0,38.81 -7.7,77.62 0,116.43 23.3,93.14 54.3,186.28 62.1,279.42 6,53.64 12,107.2 18.2,160.75 -396.3,-235.88 -870.4,-551.4 -1081.6,-820.51 -285.8,-364.34 -465.7,-884.85 -496.7,-1350.57 -77.7,-776.19 425.6,-1851.447 1203.1,-2444.999 -652,908.143 -578.6,2014.919 -364.8,2569.189 115.8,300.39 331.5,572.75 584.1,860.56 -0.1,46.57 1,93.3 5.8,140.73 0,15.52 23.2,31.04 23.2,46.57"></path></g><g transform="scale(1.27382)" id="g262"><path id="path264" style="fill:#e4e3d6;fill-opacity:1;fill-rule:nonzero;stroke:none" d="m 15813.3,819.032 c -209.3,403.038 -329.7,1015.758 -240.7,1653.838 83.3,597.5 439.6,1099.06 727.4,1355.53 h -26.1 26.1 c -617.5,-146.57 -1099.1,-633.29 -1175,-1198.52 -29.6,-220.05 91.6,-1064.12 688.3,-1810.848 v 0"></path></g><g transform="scale(1.26773)" id="g266"><path id="path268" style="fill:#e4e3d6;fill-opacity:1;fill-rule:nonzero;stroke:none" d="m 2379.28,11830.7 c -378.61,118.9 -1265.98,533 -1573.603,1633.4 -307.619,1100.3 -349.478,2255 -616.695,2629.7 -147.0455,206.2 933.768,-245.1 1075.748,-788.2 141.98,-543.1 107.78,-1214.5 250.3,-1959.9 142.53,-745.3 663.3,-1290.5 864.25,-1447.8 200.95,-157.3 0,-67.2 0,-67.2"></path></g><g transform="scale(1.27293)" id="g270"><path id="path272" style="fill:#e4e3d6;fill-opacity:1;fill-rule:nonzero;stroke:none" d="m 1316.52,12074.5 c -239.77,197.4 -680.191,974.2 -908.829,1681.2 -228.638,707 -289.852,1602.6 -407.691,2215.4 -20.051,104.2 -68.1132,216.7 -132.507,328.9 -2.925,-128.6 -9.019,-257.2 6.812,-391.8 31.4241,-290.7 -7.855,-581.3 15.712,-872 23.568,-204.2 31.4239,-408.5 0,-612.7 -7.856,-78.6 7.856,-172.9 -7.856,-259.3 -7.856,-15.7 -23.567,-31.4 -23.567,-47.1 -7.856,-141.4 23.567,-282.8 -7.856,-424.2 -23.568,-78.6 0,-172.9 -15.712,-259.3 -7.856,-7.9 -23.568,-15.7 -23.568,-23.6 0,-109.9 -7.856,-212.1 15.712,-329.9 4.008,-24.1 6.101,-48.1 7.132,-72.2 441.235,-575.7 952.05,-787.5 1357.318,-933.4 0,0 188.62,-52.4 124.9,0"></path></g><g transform="scale(1.28659)" id="g274"><path id="path276" style="fill:#e4e3d6;fill-opacity:1;fill-rule:nonzero;stroke:none" d="m 16300,-468.293 c -246.4,563.0384 -801,1246.553 -692.9,864.38 53.5,-189.105 13.6,-496.0424 -30.5,-872.073 241.1,-4.433 482.3,-5.52 723.4,7.693"></path></g><g transform="scale(1.21807)" id="g278"><path id="path280" style="fill:#e4e3d6;fill-opacity:1;fill-rule:nonzero;stroke:none" d="m 16251.2,693.722 c -37,307.868 -198.3,607.518 -390,943.708 24.6,-430.93 -282,-935.826 -503.7,-1292.949 -157.8,-252.5321 -259.4,-516.638 -309.7,-787.476 82.2,-3.12 164.6,-8.376 246.9,-16.75 197.1,-16.419 394.1,8.21 591.1,-8.209 24.6,-8.21 49.3,-24.63 73.9,-24.63 50.6,-0.821 101.1,-1.805 151.6,-2.956 109.5,402.6867 188.7,773.933 139.9,1189.262"></path></g><g transform="scale(1.17546)" id="g282"><path id="path284" style="fill:#e4e3d6;fill-opacity:1;fill-rule:nonzero;stroke:none" d="m 16249,2279.96 c -38.3,267.98 -127.7,450.46 -296.5,782.25 25.5,-587.01 -484.9,-1020.88 -791.1,-1467.43 -447.8,-633.537 -809.1,-1265.547 -705.8,-2027.971 30.6,-0.256 61.3,-0.426 91.9,-0.682 17,0 34,-25.522 51,-25.522 212.6,-4.336 425.1,2.383 637.5,4.34 72.1,570.841 380.9,1027.341 732.2,1578.015 191.4,306.27 331.8,799.69 280.8,1157"></path></g><g transform="scale(1.28834)" id="g286"><path id="path288" style="fill:#e4e3d6;fill-opacity:1;fill-rule:nonzero;stroke:none" d="m 17600.7,11930 c -236.9,195.1 -672,962.5 -897.9,1661.1 -225.9,698.6 -144.6,1556 -402.8,2188.9 -93.1,228.2 -243.6,483.1 -383.8,681.8 -19.5,-0.2 -39.1,0.1 -58.6,1.2 -15.6,0 -31.1,23.3 -46.6,23.3 -66.6,4.7 -133.2,0.8 -199.8,-1.3 9.3,-633 -375.7,-1883.9 164.3,-3033.6 489.3,-1041.6 1184.3,-1335.1 1701.9,-1521.4 0,0 186.3,-51.8 123.3,0"></path></g><g transform="scale(1.28834)" id="g290"><path id="path292" style="fill:#e4e3d6;fill-opacity:1;fill-rule:nonzero;stroke:none" d="m 15089.1,16525.1 c -131.9,38.8 -271.6,0 -395.8,15.5 -71.3,10.5 -142.4,15.8 -213.7,18.2 -367.7,-635 -369,-1343.1 -87.9,-2040.3 151.4,-407.5 495.6,-1152.5 1276.2,-1580.9 l 42.2,-29.6 c -209.6,314.4 -412.7,708.8 -512.3,1071.2 -194,706.3 -154.1,1179.6 32.2,1843.2 64.5,236.5 118.2,461.4 139.2,691.7 -93.4,1.1 -186.7,-13.9 -280.1,11"></path></g><g transform="scale(1.28834)" id="g294"><path id="path296" style="fill:#e4e3d6;fill-opacity:1;fill-rule:nonzero;stroke:none" d="m 13901.6,16556.1 c -7.8,0 -15.6,23.3 -23.3,23.3 -216.8,2.3 -433.7,3.8 -650.5,4.8 -79.9,-321.4 -79.8,-663.1 46.3,-1041.2 119.1,-356.8 282.1,-721.7 491.6,-1024.4 116.5,-162.9 450.2,-539.4 742.5,-710.3 -349.2,349.3 -509.6,1017 -591.1,1494.3 -83.6,494.6 12.1,879.5 194.7,1253.6 -70,-1.4 -140.1,-2.1 -210.2,-0.1"></path></g><path id="path298" style="fill:#e4e3d6;fill-opacity:1;fill-rule:nonzero;stroke:none" d="m 1770,12910 c 210.31,220 366.67,373.3 506.67,693.3 120.76,276 273.33,620.4 186.66,1009.5 -46.47,208.7 -302.22,322.4 -520,385.3 -201.97,58.4 -380,111.9 -603.33,111.9 -189.99,0 110,-380 200,-530 140,-220 250,-386.7 310,-636.7 90,-320 0,-823.3 -170,-1103.3 l 90,70"></path></g></g></svg> 