<?xml version="1.0" standalone="no"?>
<!DOCTYPE svg PUBLIC "-//W3C//DTD SVG 1.1//EN" "http://www.w3.org/Graphics/SVG/1.1/DTD/svg11.dtd" >
<svg>
<metadata>
Created by FontForge 20120731 at Thu Oct 10 14:43:41 2019
 By www-data
Copyright \(c\) 2018 by Ralf Sander and Petra Niedernolte. Published by Buntype. All rights reserved. You may only use this software, if you have purchased a legal license from Buntype or an authorized distributor! This font software may not be reproduced, modified, disclosed or transferred without the express written approval of Buntype, Germany. Bunday is a trademark of Ralf Sander and Petra Niedernolte and may be registered in certain jurisdictions in the name of Buntype. This typeface is original artwork of Ralf Sander and Petra Niedernolte. The design may be protected in certain jurisdictions.
</metadata>
<defs>
<font id="BundayClean-Bold" horiz-adv-x="530" >
  <font-face 
    font-family="Bunday Clean"
    font-weight="700"
    font-stretch="normal"
    units-per-em="1000"
    panose-1="2 0 7 0 0 0 0 0 0 0"
    ascent="750"
    descent="-250"
    x-height="503"
    cap-height="697"
    bbox="-281 -293 1211 1007"
    underline-thickness="50"
    underline-position="-50"
    stemh="105"
    stemv="131"
    unicode-range="U+000D-FB06"
  />
<missing-glyph horiz-adv-x="635" 
d="M118 580v-533h398v533h-398zM67 0v627h500v-627h-500z" />
    <glyph glyph-name="fi" unicode="fi" horiz-adv-x="560" 
d="M428 681l-15 -96c-42 7 -108 16 -157 16c-42 0 -61 -6 -61 -61v-37h299v-503h-132v398h-167v-398h-132v550c0 134 65 154 159 154c74 0 177 -16 206 -23z" />
    <glyph glyph-name="fl" unicode="fl" horiz-adv-x="587" 
d="M560 105l13 -100c-19 -6 -56 -12 -96 -12c-75 0 -116 27 -116 147v458c-38 3 -75 6 -94 6c-54 0 -72 -6 -72 -60v-41h103l-15 -104h-88v-399h-132v550c0 134 65 154 167 154c91 0 215 -15 263 -23v-536c0 -38 12 -43 32 -43c15 0 28 2 35 3z" />
    <glyph glyph-name="f_b" unicode="fb" horiz-adv-x="811" 
d="M493 681v-106c0 -44 -2 -81 -2 -81h2c24 8 64 18 105 18c101 0 175 -44 175 -244c0 -211 -75 -277 -203 -277c-74 0 -149 17 -209 41v566c-38 3 -75 6 -94 6c-54 0 -72 -6 -72 -60v-41h103l-16 -105h-87v-398h-132v550c0 134 65 154 167 154c91 0 215 -15 263 -23z
M557 99c54 0 84 21 84 166c0 123 -35 139 -74 139c-25 0 -50 -6 -74 -16v-277c16 -7 40 -12 64 -12z" />
    <glyph glyph-name="f_f" unicode="ff" horiz-adv-x="629" 
d="M195 503h163v47c0 134 65 154 153 154c43 0 109 -7 140 -14l-16 -95c-32 3 -63 6 -84 6c-43 0 -61 -6 -61 -61v-37h140l-18 -105h-122v-398h-132v398h-163v-398h-132v550c0 134 65 154 152 154c41 0 83 -4 112 -11l-17 -96c-17 1 -37 4 -54 4c-43 0 -61 -6 -61 -61v-37z
" />
    <glyph glyph-name="f_h" unicode="fh" horiz-adv-x="828" 
d="M766 0h-132v323c0 57 -19 81 -69 81c-34 0 -62 -12 -72 -15v-389h-132v598c-38 3 -75 6 -94 6c-54 0 -72 -6 -72 -60v-41h103l-15 -105h-88v-398h-132v550c0 134 65 154 167 154c91 0 215 -15 263 -23v-106c0 -44 -2 -80 -2 -80h2c21 7 55 17 97 17
c98 0 176 -40 176 -186v-326z" />
    <glyph glyph-name="f_f_i" unicode="ffi" horiz-adv-x="858" 
d="M727 681l-16 -96c-42 7 -108 16 -157 16c-42 0 -61 -6 -61 -61v-37h298v-503h-131v398h-167v-398h-132v398h-166v-398h-132v503v47c0 134 65 154 152 154c41 0 83 -4 112 -11l-17 -96c-17 1 -37 4 -54 4c-43 0 -61 -6 -61 -61v-37h166v47c0 134 65 154 159 154
c74 0 177 -16 207 -23z" />
    <glyph glyph-name="f_j" unicode="fj" horiz-adv-x="556" 
d="M428 681l-15 -96c-42 7 -108 16 -157 16c-42 0 -61 -6 -61 -61v-37h298v-484c0 -146 -48 -187 -141 -207c-34 -7 -54 -10 -86 -15l-19 100c20 5 43 8 64 15c47 15 50 49 50 111v375h-166v-398h-132v503v47c0 134 65 154 159 154c74 0 177 -16 206 -23z" />
    <glyph glyph-name="f_f_j" unicode="ffj" horiz-adv-x="855" 
d="M727 681l-16 -96c-42 7 -108 16 -157 16c-42 0 -61 -6 -61 -61v-37h298v-484c0 -146 -47 -187 -141 -207c-34 -7 -54 -10 -86 -15l-19 100c20 5 43 8 64 15c47 15 51 49 51 111v375h-167v-398h-132v398h-166v-398h-132v503v47c0 134 65 154 152 154c41 0 83 -4 112 -11
l-17 -96c-17 1 -37 4 -54 4c-43 0 -61 -6 -61 -61v-37h166v47c0 134 65 154 159 154c74 0 177 -16 207 -23z" />
    <glyph glyph-name="f_k" unicode="fk" horiz-adv-x="817" 
d="M493 681v-363c106 9 135 59 156 185h132c-17 -114 -44 -188 -104 -233l148 -270h-144l-116 222c-22 -4 -46 -8 -72 -10v-212h-132v598c-38 3 -75 6 -94 6c-54 0 -72 -6 -72 -60v-41h103l-15 -105h-88v-398h-132v550c0 134 65 154 167 154c91 0 215 -15 263 -23z" />
    <glyph glyph-name="f_f_l" unicode="ffl" horiz-adv-x="885" 
d="M858 105l13 -100c-19 -6 -56 -12 -96 -12c-75 0 -115 27 -115 147v458c-38 3 -76 6 -95 6c-54 0 -72 -6 -72 -60v-41h104l-16 -105h-88v-398h-132v398h-166v-398h-132v503v47c0 134 65 154 152 154c41 0 83 -4 112 -11l-17 -96c-17 1 -37 4 -54 4c-43 0 -61 -6 -61 -61
v-37h166v47c0 134 65 154 167 154c91 0 215 -15 263 -23v-536c0 -38 12 -43 32 -43c15 0 28 2 35 3z" />
    <glyph glyph-name="f_t" unicode="ft" horiz-adv-x="643" 
d="M195 0h-132v551c0 134 66 153 154 153c41 0 82 -4 111 -11l-17 -96c-17 2 -37 4 -54 4c-42 0 -62 -5 -62 -60v-38h168l9 130l121 12v-142h127l-19 -105h-108v-257c0 -37 13 -41 41 -41c21 0 58 8 70 10l16 -99c-18 -7 -68 -18 -118 -18c-98 0 -141 25 -141 147v258h-166
v-398z" />
    <glyph glyph-name=".notdef" horiz-adv-x="635" 
d="M118 580v-533h398v533h-398zM67 0v627h500v-627h-500z" />
    <glyph glyph-name="space" unicode=" " horiz-adv-x="224" 
 />
    <glyph glyph-name="exclam" unicode="!" horiz-adv-x="261" 
d="M64 202v495h133v-495h-133zM64 0v113h133v-113h-133z" />
    <glyph glyph-name="quotedbl" unicode="&#x22;" horiz-adv-x="419" 
d="M258 512l-9 210h109l-9 -210h-91zM70 512l-9 210h109l-9 -210h-91z" />
    <glyph glyph-name="numbersign" unicode="#" horiz-adv-x="776" 
d="M65 142l9 86h161l13 122h-161l9 84h161l17 160h85l-17 -160h128l17 160h85l-17 -160h153l-9 -84h-153l-13 -122h153l-8 -86h-154l-15 -146h-85l15 146h-127l-16 -146h-85l16 146h-162zM320 228h128l13 122h-128z" />
    <glyph glyph-name="dollar" unicode="$" horiz-adv-x="555" 
d="M70 31l19 105c43 -9 108 -25 168 -25c78 0 101 24 101 85c0 45 -18 74 -83 102l-46 20c-97 42 -150 85 -150 197c0 114 64 165 160 177v96h76v-94c59 -3 113 -14 147 -24l-22 -103c-47 11 -102 17 -141 17c-59 0 -90 -19 -90 -69c0 -49 26 -68 76 -89l39 -17
c103 -43 164 -86 164 -212c0 -131 -50 -186 -173 -195v-93h-76v93c-70 4 -136 18 -169 29z" />
    <glyph glyph-name="percent" unicode="%" horiz-adv-x="889" 
d="M29 480c0 169 37 225 149 225s144 -57 144 -226c0 -168 -36 -221 -148 -221s-145 53 -145 222zM176 338c37 0 45 29 45 142s-8 144 -45 144s-47 -31 -47 -144s10 -142 47 -142zM566 215c0 169 38 225 150 225s144 -57 144 -226c0 -168 -36 -221 -148 -221
s-146 53 -146 222zM714 73c37 0 45 29 45 142s-8 144 -45 144s-47 -31 -47 -144s10 -142 47 -142zM226 -22l344 740h93l-344 -740h-93z" />
    <glyph glyph-name="ampersand" unicode="&#x26;" horiz-adv-x="571" 
d="M498 456l30 -99l-64 -20c17 -45 44 -95 44 -162c0 -125 -103 -186 -230 -186c-129 0 -229 54 -229 181c0 92 50 141 106 166v2c-57 30 -81 78 -81 144c0 83 57 155 186 155c65 0 123 -13 147 -22l-20 -97c-33 7 -72 12 -102 12c-58 0 -81 -21 -81 -67
c0 -42 27 -71 67 -74zM344 298c-32 -9 -77 -22 -102 -33c-43 -21 -62 -46 -62 -91c0 -47 31 -78 99 -78c65 0 98 36 98 83c0 41 -17 78 -33 119z" />
    <glyph glyph-name="quoteright" unicode="&#x2019;" horiz-adv-x="252" 
d="M140 512h-99c4 11 48 93 48 210h106c0 -121 -48 -198 -55 -210z" />
    <glyph glyph-name="parenleft" unicode="(" horiz-adv-x="389" 
d="M329 -27h-141c-85 140 -110 256 -110 381c0 113 26 229 111 370h139c-96 -148 -125 -275 -125 -369c0 -108 29 -234 126 -382z" />
    <glyph glyph-name="parenright" unicode=")" horiz-adv-x="389" 
d="M201 -27h-141c97 148 126 274 126 382c0 94 -29 221 -125 369h139c85 -141 111 -257 111 -370c0 -125 -25 -241 -110 -381z" />
    <glyph glyph-name="asterisk" unicode="*" horiz-adv-x="498" 
d="M164 318l-66 46l89 116l-143 43l26 75l140 -46l-3 145h83l-2 -145l140 46l26 -75l-142 -43l91 -116l-69 -46l-85 118z" />
    <glyph glyph-name="plus" unicode="+" horiz-adv-x="515" 
d="M205 103v160h-157v101h157v160h104v-160h158v-101h-158v-160h-104z" />
    <glyph glyph-name="comma" unicode="," horiz-adv-x="263" 
d="M141 -106h-111c16 29 52 105 52 226h118c0 -119 -43 -202 -59 -226z" />
    <glyph glyph-name="hyphen" unicode="-" horiz-adv-x="367" 
d="M37 234v104h293v-104h-293z" />
    <glyph glyph-name="period" unicode="." horiz-adv-x="263" 
d="M60 0v120h143v-120h-143z" />
    <glyph glyph-name="slash" unicode="/" horiz-adv-x="389" 
d="M246 697h114l-218 -697h-113z" />
    <glyph glyph-name="zero" unicode="0" horiz-adv-x="538" 
d="M42 347c0 252 50 362 231 362c180 0 223 -110 223 -362s-49 -359 -229 -359c-181 0 -225 107 -225 359zM270 98c79 0 93 65 93 249s-14 252 -93 252c-80 0 -95 -68 -95 -252s15 -249 95 -249z" />
    <glyph glyph-name="one" unicode="1" horiz-adv-x="318" 
d="M115 0v587h-95v110h228v-697h-133z" />
    <glyph glyph-name="two" unicode="2" horiz-adv-x="476" 
d="M45 0v159c0 141 47 178 150 225l40 18c43 21 68 48 68 110c0 54 -21 84 -76 84c-57 0 -108 -14 -150 -23l-19 103c38 10 112 30 187 30c128 0 187 -59 187 -186c0 -135 -58 -184 -143 -224l-41 -18c-57 -27 -70 -54 -70 -128v-40h254v-110h-387z" />
    <glyph glyph-name="three" unicode="3" horiz-adv-x="480" 
d="M26 26l26 100c42 -13 91 -26 154 -26c78 0 97 41 97 99c0 70 -19 109 -122 112l-65 2v103l68 3c90 2 108 35 108 97c0 51 -17 80 -79 80c-70 0 -120 -17 -155 -27l-22 98c25 10 106 39 189 39c140 0 200 -55 200 -185c0 -78 -37 -133 -81 -151c56 -24 93 -73 92 -172
c-1 -140 -65 -208 -220 -208c-74 0 -142 18 -190 36z" />
    <glyph glyph-name="four" unicode="4" horiz-adv-x="520" 
d="M50 181l-20 102l197 427l123 -45l-77 -162c-55 -116 -107 -212 -107 -212h166l9 138h120v-429h-133v181h-278z" />
    <glyph glyph-name="five" unicode="5" horiz-adv-x="493" 
d="M43 22l20 103c41 -10 100 -25 162 -25c70 0 100 33 100 109c0 68 -14 114 -107 114c-49 0 -89 -7 -122 -14l-33 20v368h353v-110h-220v-160s29 5 59 5c140 0 203 -74 203 -223c0 -160 -79 -219 -218 -219c-74 0 -161 20 -197 32z" />
    <glyph glyph-name="six" unicode="6" horiz-adv-x="511" 
d="M285 596c-84 0 -106 -51 -110 -188c30 16 78 30 123 30c96 0 176 -51 176 -223c0 -176 -91 -227 -214 -227c-171 0 -218 108 -218 342c0 267 43 376 240 376c66 0 127 -17 156 -28l-22 -101c-37 8 -77 19 -131 19zM265 331c-29 0 -67 -11 -90 -26c3 -152 20 -207 85 -207
c52 0 81 27 81 117c0 88 -28 116 -76 116z" />
    <glyph glyph-name="seven" unicode="7" horiz-adv-x="455" 
d="M207 0h-135c54 248 101 367 211 587h-256v110h402v-102c-113 -227 -175 -366 -222 -595z" />
    <glyph glyph-name="eight" unicode="8" horiz-adv-x="532" 
d="M35 200c0 99 39 146 90 174c-39 20 -68 78 -68 142c0 134 77 193 210 193s208 -60 208 -193c0 -65 -31 -121 -69 -141c52 -27 91 -76 90 -175c-1 -143 -76 -212 -231 -212c-156 0 -230 68 -230 212zM265 419c54 0 81 31 81 95c0 56 -25 90 -80 90c-56 0 -80 -34 -80 -90
c0 -63 24 -95 79 -95zM265 95c66 0 100 28 100 111c0 74 -34 110 -99 110s-101 -34 -101 -111c0 -82 34 -110 100 -110z" />
    <glyph glyph-name="nine" unicode="9" horiz-adv-x="511" 
d="M226 101c83 0 105 50 109 188c-29 -17 -78 -30 -122 -30c-96 0 -176 51 -176 223c0 176 91 227 214 227c171 0 218 -108 218 -342c0 -267 -43 -376 -240 -376c-66 0 -127 17 -156 28l22 101c37 -8 77 -19 131 -19zM246 366c28 0 67 10 89 26c-2 151 -20 207 -84 207
c-52 0 -81 -27 -81 -117c0 -88 28 -116 76 -116z" />
    <glyph glyph-name="colon" unicode=":" horiz-adv-x="263" 
d="M60 316v120h143v-120h-143zM60 0v120h143v-120h-143z" />
    <glyph glyph-name="semicolon" unicode=";" horiz-adv-x="263" 
d="M61 316v120h142v-120h-142zM141 -106h-111c16 29 52 105 52 226h118c0 -119 -43 -202 -59 -226z" />
    <glyph glyph-name="less" unicode="&#x3c;" horiz-adv-x="515" 
d="M81 251v123l352 246v-132l-248 -174l248 -177v-132z" />
    <glyph glyph-name="equal" unicode="=" horiz-adv-x="515" 
d="M58 365v101h399v-101h-399zM58 162v100h399v-100h-399z" />
    <glyph glyph-name="greater" unicode="&#x3e;" horiz-adv-x="515" 
d="M433 374v-123l-352 -246v132l248 177l-248 174v132z" />
    <glyph glyph-name="question" unicode="?" horiz-adv-x="414" 
d="M129 198v63c0 87 25 114 67 158l29 30c25 26 31 49 31 80c0 56 -28 70 -82 70c-35 0 -92 -11 -126 -21l-20 97c15 5 84 31 175 31c118 0 183 -49 183 -176c0 -77 -27 -113 -56 -143l-31 -33c-32 -33 -40 -54 -40 -106v-50h-130zM129 0v113h130v-113h-130z" />
    <glyph glyph-name="at" unicode="@" horiz-adv-x="763" 
d="M46 255c0 245 127 358 336 358s335 -112 335 -358c0 -136 -49 -186 -145 -186c-49 0 -75 17 -93 42c-20 -18 -57 -51 -131 -51c-58 0 -120 28 -120 187c0 164 75 199 159 199c107 0 144 -52 144 -169v-85c0 -41 20 -51 40 -51c39 0 69 17 69 115c0 207 -93 288 -258 288
c-166 0 -260 -81 -260 -289s93 -290 260 -290c44 0 78 6 108 11l8 -67c-17 -4 -70 -12 -116 -12c-211 0 -336 112 -336 358zM363 131c29 0 61 13 84 42v105c0 76 -11 97 -59 97c-46 0 -78 -25 -78 -128c0 -85 17 -116 53 -116z" />
    <glyph glyph-name="A" unicode="A" horiz-adv-x="556" 
d="M403 0l-29 157h-195l-28 -157h-136l111 584c19 104 89 125 153 125c63 0 133 -20 152 -124l110 -585h-138zM251 573l-58 -319h166l-58 319c-3 23 -11 29 -24 29s-22 -6 -26 -29z" />
    <glyph glyph-name="B" unicode="B" horiz-adv-x="558" 
d="M279 0h-210v697h189c167 0 233 -51 233 -182c0 -78 -38 -119 -85 -142c67 -21 115 -70 115 -169c0 -148 -82 -204 -242 -204zM199 413h49c88 0 114 28 114 94c0 64 -25 87 -113 87h-50v-181zM199 108h70c82 0 121 22 121 101c0 76 -32 101 -122 101h-69v-202z" />
    <glyph glyph-name="C" unicode="C" horiz-adv-x="477" 
d="M432 118l19 -102c-34 -11 -104 -25 -163 -25c-172 0 -246 77 -246 355c0 250 56 360 248 360c57 0 123 -10 157 -22l-18 -101c-46 8 -81 13 -120 13c-97 0 -134 -31 -134 -250c0 -213 33 -245 135 -245c38 0 81 9 122 17z" />
    <glyph glyph-name="D" unicode="D" horiz-adv-x="566" 
d="M220 0h-151v697h150c248 0 305 -68 305 -347c0 -284 -51 -350 -304 -350zM202 110h27c136 0 163 22 163 241c0 220 -34 236 -162 236h-28v-477z" />
    <glyph glyph-name="E" unicode="E" horiz-adv-x="494" 
d="M69 0v697h385v-110h-252v-172h202v-106h-202v-199h258v-110h-391z" />
    <glyph glyph-name="F" unicode="F" horiz-adv-x="476" 
d="M69 0v697h387v-110h-254v-190h195v-111h-195v-286h-133z" />
    <glyph glyph-name="G" unicode="G" horiz-adv-x="536" 
d="M42 351c0 245 56 355 250 355c59 0 143 -14 178 -25l-17 -102c-47 7 -109 17 -147 17c-93 0 -131 -31 -131 -245c0 -219 36 -250 130 -250c25 0 43 3 55 6v266h128v-349c-52 -21 -132 -33 -197 -33c-174 0 -249 77 -249 360z" />
    <glyph glyph-name="H" unicode="H" horiz-adv-x="592" 
d="M69 0v697h133v-281h188v281h133v-697h-133v306h-188v-306h-133z" />
    <glyph glyph-name="I" unicode="I" horiz-adv-x="270" 
d="M69 0v697h133v-697h-133z" />
    <glyph glyph-name="J" unicode="J" horiz-adv-x="406" 
d="M12 10l17 101c24 -4 60 -10 105 -10c55 0 76 25 76 82v514h133v-516c0 -139 -74 -190 -191 -190c-57 0 -110 10 -140 19z" />
    <glyph glyph-name="K" unicode="K" horiz-adv-x="560" 
d="M202 697v-276c24 -4 46 -9 66 -14l126 290h138l-155 -338c96 -64 137 -177 179 -359h-139c-43 206 -95 292 -215 310v-310h-133v697h133z" />
    <glyph glyph-name="L" unicode="L" horiz-adv-x="436" 
d="M69 0v697h133v-587h215v-110h-348z" />
    <glyph glyph-name="M" unicode="M" horiz-adv-x="796" 
d="M748 0h-134l-11 263c-4 130 -7 273 -7 273h-5l-63 -205c-28 -93 -68 -122 -133 -122c-61 0 -102 27 -131 121l-62 206h-5s-3 -134 -8 -268l-11 -268h-130l41 697h174l105 -336c10 -31 16 -39 30 -39c13 0 21 8 30 38l106 337h172z" />
    <glyph glyph-name="N" unicode="N" horiz-adv-x="618" 
d="M69 0v697h168c176 -456 194 -539 194 -539h3s-8 139 -8 264v275h123v-697h-168c-175 460 -193 539 -193 539h-4s7 -149 8 -276l1 -263h-124z" />
    <glyph glyph-name="O" unicode="O" horiz-adv-x="570" 
d="M42 348c0 252 56 361 246 361s240 -109 240 -362c0 -252 -56 -359 -246 -359c-189 0 -240 108 -240 360zM285 98c89 0 110 68 110 250s-21 251 -110 251c-88 0 -110 -69 -110 -251s22 -250 110 -250z" />
    <glyph glyph-name="P" unicode="P" 
d="M69 0v697h202c160 0 230 -64 230 -225s-72 -224 -230 -224h-69v-248h-133zM202 358h57c79 0 110 29 110 114c0 86 -31 115 -107 115h-60v-229z" />
    <glyph glyph-name="Q" unicode="Q" horiz-adv-x="570" 
d="M42 348c0 252 56 361 246 361s240 -109 240 -362c0 -163 -24 -265 -92 -317c35 -41 89 -65 155 -84l-32 -96c-93 20 -191 60 -242 140c-11 -1 -23 -2 -35 -2c-189 0 -240 108 -240 360zM285 98c89 0 110 68 110 250s-21 251 -110 251c-88 0 -110 -69 -110 -251
s22 -250 110 -250z" />
    <glyph glyph-name="R" unicode="R" horiz-adv-x="556" 
d="M69 0v697h201c161 0 231 -64 231 -219c0 -91 -42 -148 -105 -177c43 -27 82 -52 145 -301h-139c-56 204 -77 252 -167 252h-33v-252h-133zM202 362h55c81 0 112 32 112 114s-31 111 -108 111h-59v-225z" />
    <glyph glyph-name="S" unicode="S" horiz-adv-x="488" 
d="M33 21l19 106c43 -9 107 -26 168 -26c77 0 101 26 101 89c0 48 -14 80 -82 109l-41 18c-101 43 -156 90 -156 205c0 133 85 184 205 184c71 0 139 -13 178 -25l-22 -103c-47 10 -103 18 -142 18c-58 0 -89 -20 -89 -74c0 -53 29 -73 81 -96l34 -16
c106 -48 164 -88 164 -219c0 -145 -61 -200 -211 -200c-83 0 -168 18 -207 30z" />
    <glyph glyph-name="T" unicode="T" horiz-adv-x="464" 
d="M166 0v587h-149v110h430v-110h-148v-587h-133z" />
    <glyph glyph-name="U" unicode="U" horiz-adv-x="580" 
d="M63 187v510h133v-512c0 -53 26 -87 93 -87c69 0 94 34 94 87v512h133v-510c0 -138 -81 -199 -227 -199c-145 0 -226 61 -226 199z" />
    <glyph glyph-name="V" unicode="V" horiz-adv-x="535" 
d="M294 125l90 572h134l-99 -582c-17 -105 -83 -127 -151 -127c-67 0 -133 22 -151 127l-100 582h137l90 -572c4 -22 12 -28 25 -28c12 0 21 6 25 28z" />
    <glyph glyph-name="W" unicode="W" horiz-adv-x="792" 
d="M398 252h-5s-11 -42 -20 -81l-12 -54c-23 -105 -68 -129 -135 -129c-60 0 -120 22 -132 127l-73 582h135l35 -326c17 -149 26 -247 26 -247c2 -21 9 -27 19 -27c11 0 16 6 22 27l77 281l3 287h119l3 -286l78 -282c6 -21 11 -27 22 -27c10 0 17 6 18 27c0 0 10 92 27 243
l36 330h130l-72 -582c-12 -105 -72 -127 -131 -127c-69 0 -113 22 -137 130l-12 52c-10 41 -21 82 -21 82z" />
    <glyph glyph-name="X" unicode="X" horiz-adv-x="525" 
d="M263 278h-6s-39 -99 -64 -158l-50 -120h-139l173 365l-163 332h142l43 -96c25 -58 62 -153 62 -153h6s37 89 66 156l42 93h137l-164 -333l174 -364h-142l-55 122c-25 57 -62 156 -62 156z" />
    <glyph glyph-name="Y" unicode="Y" horiz-adv-x="506" 
d="M185 0v307l-191 390h144l80 -172c16 -38 27 -63 34 -83h3c8 21 21 52 34 81l83 174h141l-195 -391v-306h-133z" />
    <glyph glyph-name="Z" unicode="Z" horiz-adv-x="493" 
d="M28 0v61l258 526h-235v110h398v-57l-257 -530h267v-110h-431z" />
    <glyph glyph-name="bracketleft" unicode="[" horiz-adv-x="366" 
d="M98 -87v865h202v-84h-88v-695h88v-86h-202z" />
    <glyph glyph-name="backslash" unicode="\" horiz-adv-x="389" 
d="M29 697h114l217 -697h-113z" />
    <glyph glyph-name="bracketright" unicode="]" horiz-adv-x="366" 
d="M268 778v-865h-202v86h88v695h-88v84h202z" />
    <glyph glyph-name="asciicircum" unicode="^" horiz-adv-x="539" 
d="M32 374l182 323h111l182 -323h-107l-131 234l-133 -234h-104z" />
    <glyph glyph-name="underscore" unicode="_" horiz-adv-x="440" 
d="M0 -161v82h440v-82h-440z" />
    <glyph glyph-name="quoteleft" unicode="&#x2018;" horiz-adv-x="252" 
d="M112 722h99c-4 -11 -48 -93 -48 -210h-106c0 121 48 198 55 210z" />
    <glyph glyph-name="a" unicode="a" horiz-adv-x="506" 
d="M444 326v-293c-58 -25 -142 -42 -209 -42c-148 0 -194 60 -194 157c0 87 35 142 146 160c49 7 104 11 130 12v10c0 64 -14 76 -68 76c-44 0 -112 -14 -167 -32l-23 95c34 15 127 43 207 43c108 0 178 -34 178 -186zM317 102v129c-24 -1 -70 -4 -95 -10
c-43 -9 -54 -33 -54 -67c0 -36 14 -63 72 -63c31 0 58 5 77 11z" />
    <glyph glyph-name="b" unicode="b" horiz-adv-x="513" 
d="M63 697h132v-122c0 -44 -2 -81 -2 -81h2c24 8 64 18 105 18c101 0 175 -44 175 -244c0 -211 -75 -277 -203 -277c-74 0 -149 17 -209 41v665zM259 99c54 0 84 21 84 166c0 123 -35 139 -74 139c-25 0 -50 -6 -74 -16v-277c16 -7 40 -12 64 -12z" />
    <glyph glyph-name="c" unicode="c" horiz-adv-x="421" 
d="M39 250c0 159 44 262 211 262c41 0 100 -8 138 -21l-19 -100c-25 6 -56 13 -96 13c-77 0 -102 -47 -102 -154c0 -117 25 -151 100 -151c35 0 66 7 99 15l23 -99c-43 -16 -98 -24 -149 -24c-163 0 -205 92 -205 259z" />
    <glyph glyph-name="d" unicode="d" horiz-adv-x="514" 
d="M39 250c0 157 53 262 194 262c39 0 71 -7 86 -11h3s-3 36 -3 107v89h132v-664c-60 -25 -128 -42 -193 -42c-154 0 -219 64 -219 259zM319 110v283c-17 6 -44 11 -64 11c-55 0 -84 -29 -84 -155c0 -111 24 -150 88 -150c23 0 44 4 60 11z" />
    <glyph glyph-name="e" unicode="e" horiz-adv-x="484" 
d="M39 251c0 162 40 264 217 264c165 0 191 -103 191 -164c0 -103 -22 -135 -144 -135c-34 0 -97 6 -133 16v-7c1 -99 25 -132 97 -132c51 0 95 10 147 26l21 -93c-24 -12 -96 -35 -188 -35c-165 0 -208 83 -208 260zM173 319c24 -8 65 -15 96 -15c45 0 50 19 50 50
c0 40 -21 65 -66 65c-46 0 -76 -23 -80 -100z" />
    <glyph glyph-name="f" unicode="f" horiz-adv-x="334" 
d="M318 398h-123v-398h-132v550c0 134 65 154 152 154c44 0 110 -7 141 -14l-17 -95c-31 3 -62 6 -83 6c-43 0 -61 -6 -61 -61v-37h140z" />
    <glyph glyph-name="g" unicode="g" horiz-adv-x="514" 
d="M156 -206l-19 98c50 8 83 15 122 27c43 12 65 32 65 93v32h-2c-25 -13 -60 -25 -112 -25c-92 0 -171 52 -171 226c0 160 49 267 208 267c67 0 144 -18 204 -41v-462c0 -128 -67 -173 -154 -193c-36 -7 -96 -17 -141 -22zM171 252c0 -95 31 -125 75 -125c29 0 53 7 73 18
v248c-15 6 -40 11 -64 11c-53 0 -84 -27 -84 -152z" />
    <glyph glyph-name="h" unicode="h" horiz-adv-x="533" 
d="M63 0v697h132v-122c0 -44 -2 -80 -2 -80h2c21 7 54 17 96 17c99 0 179 -40 179 -186v-326h-131v323c0 57 -20 81 -70 81c-35 0 -64 -12 -74 -15v-389h-132z" />
    <glyph glyph-name="i" unicode="i" horiz-adv-x="263" 
d="M65 0v503h132v-503h-132zM63 589v108h137v-108h-137z" />
    <glyph glyph-name="j" unicode="j" horiz-adv-x="267" 
d="M-26 -206l-20 98c20 4 43 7 65 15c47 14 50 48 50 111v485h132v-487c0 -146 -48 -187 -141 -207c-34 -7 -54 -10 -86 -15zM67 589v108h137v-108h-137z" />
    <glyph glyph-name="k" unicode="k" horiz-adv-x="519" 
d="M195 697v-379c106 9 136 59 156 185h132c-17 -114 -44 -188 -104 -233l148 -270h-144l-116 222c-22 -4 -46 -8 -72 -10v-212h-132v697h132z" />
    <glyph glyph-name="l" unicode="l" horiz-adv-x="293" 
d="M262 103l13 -100c-19 -6 -56 -12 -96 -12c-75 0 -116 26 -116 146v560h132v-554c0 -38 12 -44 32 -44c15 0 28 2 35 4z" />
    <glyph glyph-name="m" unicode="m" horiz-adv-x="779" 
d="M63 0v471c57 24 139 41 201 41c70 0 102 -14 124 -28c32 13 81 28 142 28c116 0 186 -40 186 -186v-326h-131v323c0 57 -20 81 -66 81c-26 0 -52 -5 -72 -13c0 0 7 -20 7 -57v-334h-129v325c0 56 -18 79 -61 79c-24 0 -44 -4 -69 -12v-392h-132z" />
    <glyph glyph-name="n" unicode="n" horiz-adv-x="533" 
d="M63 0v471c62 24 144 41 208 41c128 0 199 -40 199 -186v-326h-131v323c0 57 -20 81 -70 81c-35 0 -64 -9 -74 -12v-392h-132z" />
    <glyph glyph-name="o" unicode="o" horiz-adv-x="503" 
d="M248 -12c-171 0 -209 102 -209 264c0 161 44 263 215 263c172 0 210 -102 210 -263c0 -162 -44 -264 -216 -264zM251 96c63 0 81 46 81 156c0 104 -18 155 -81 155c-62 0 -80 -51 -80 -155c0 -110 18 -156 80 -156z" />
    <glyph glyph-name="p" unicode="p" horiz-adv-x="514" 
d="M475 253c0 -158 -52 -262 -194 -262c-39 0 -71 7 -86 10h-3s3 -35 3 -106v-91h-132v666c60 25 128 42 194 42c152 0 218 -63 218 -259zM195 393v-283c17 -7 45 -11 64 -11c54 0 84 28 84 155c0 107 -24 150 -88 150c-22 0 -44 -5 -60 -11z" />
    <glyph glyph-name="q" unicode="q" horiz-adv-x="514" 
d="M451 -196h-132v124c0 43 2 81 2 81h-2c-23 -8 -64 -18 -105 -18c-101 0 -175 43 -175 244c0 211 76 277 210 277c68 0 142 -17 202 -41v-667zM255 404c-54 0 -84 -27 -84 -167c0 -122 37 -138 74 -138c25 0 50 6 74 16v277c-15 7 -40 12 -64 12z" />
    <glyph glyph-name="r" unicode="r" horiz-adv-x="376" 
d="M365 500l-19 -109s-42 8 -83 8c-52 0 -69 -24 -69 -80v-319h-132v326c0 146 68 186 191 186c62 0 112 -12 112 -12z" />
    <glyph glyph-name="s" unicode="s" horiz-adv-x="451" 
d="M29 23l19 101c45 -12 104 -29 171 -29c49 0 66 12 66 48c0 30 -10 44 -60 59l-24 7c-113 33 -161 66 -161 160c0 113 70 143 169 143c71 0 151 -16 186 -28l-19 -96c-41 9 -102 21 -150 21c-43 0 -58 -14 -58 -40c0 -23 8 -38 61 -54l24 -7c121 -36 161 -73 161 -167
c0 -115 -74 -150 -180 -150c-94 0 -170 22 -205 32z" />
    <glyph glyph-name="t" unicode="t" horiz-adv-x="345" 
d="M63 140v491l132 14v-142h127l-16 -105h-111v-257c0 -37 13 -41 41 -41c26 0 57 8 70 10l16 -99c-17 -7 -68 -18 -118 -18c-98 0 -141 25 -141 147z" />
    <glyph glyph-name="u" unicode="u" 
d="M467 503v-467c-57 -25 -139 -45 -207 -45c-120 0 -198 39 -198 189v323h132v-316c0 -62 20 -88 69 -88c33 0 55 7 72 14v390h132z" />
    <glyph glyph-name="v" unicode="v" horiz-adv-x="476" 
d="M88 121l-70 382h136l57 -372c3 -22 12 -35 28 -35s25 13 29 36l60 371h130l-71 -381c-20 -107 -75 -134 -149 -134c-75 0 -130 27 -150 133z" />
    <glyph glyph-name="w" unicode="w" horiz-adv-x="759" 
d="M383 256h-5s-11 -57 -21 -95l-14 -50c-24 -91 -59 -123 -129 -123c-65 0 -111 26 -128 124l-67 391h137l52 -367c4 -24 9 -37 21 -37c13 0 17 13 24 38l65 248l4 112h118l4 -112l66 -249c8 -24 12 -37 24 -37c13 0 19 13 23 38l52 366h130l-68 -393
c-16 -96 -67 -122 -123 -122c-69 0 -110 30 -132 123l-12 46c-11 43 -21 99 -21 99z" />
    <glyph glyph-name="x" unicode="x" horiz-adv-x="474" 
d="M9 0l154 262l-139 241h145l39 -78c16 -31 30 -64 32 -68c1 2 17 36 34 69l40 77h139l-139 -240l151 -263h-149l-39 77c-19 39 -38 85 -40 89l-39 -83l-43 -83h-146z" />
    <glyph glyph-name="y" unicode="y" 
d="M229 19c-87 0 -167 39 -167 188v296h132v-289c0 -64 19 -87 68 -87c28 0 54 8 73 19v357h132v-489c0 -134 -68 -178 -154 -198c-36 -8 -97 -17 -142 -22l-18 99c52 9 81 13 122 26c43 13 65 34 65 96v29h-2c-25 -13 -64 -25 -109 -25z" />
    <glyph glyph-name="z" unicode="z" horiz-adv-x="445" 
d="M38 0v59l194 336h-176v108h347v-56l-196 -339h210v-108h-379z" />
    <glyph glyph-name="braceleft" unicode="{" horiz-adv-x="358" 
d="M114 62v165c0 66 -16 82 -81 82v88c64 0 81 17 81 81v152c0 121 45 148 143 148h35v-86h-27c-34 0 -42 -12 -42 -45v-165c0 -87 -27 -116 -61 -130c33 -13 61 -50 61 -134v-175c0 -30 10 -43 41 -43h28v-86h-32c-100 0 -146 27 -146 148z" />
    <glyph glyph-name="bar" unicode="|" horiz-adv-x="265" 
d="M83 -196v1088h99v-1088h-99z" />
    <glyph glyph-name="braceright" unicode="}" horiz-adv-x="358" 
d="M244 227v-165c0 -121 -46 -148 -146 -148h-32v86h28c31 0 41 13 41 43v175c0 84 28 121 61 134c-34 14 -61 43 -61 130v165c0 33 -8 45 -42 45h-27v86h35c98 0 143 -27 143 -148v-152c0 -64 17 -81 81 -81v-88c-65 0 -81 -16 -81 -82z" />
    <glyph glyph-name="asciitilde" unicode="~" 
d="M124 244l-66 59c37 52 73 72 120 72c90 0 122 -80 170 -80c29 0 45 22 57 33l66 -58c-38 -52 -73 -73 -120 -73c-89 0 -123 81 -170 81c-29 0 -46 -22 -57 -34z" />
    <glyph glyph-name="exclamdown" unicode="&#xa1;" horiz-adv-x="261" 
d="M197 299v-495h-133v495h133zM197 501v-113h-133v113h133z" />
    <glyph glyph-name="cent" unicode="&#xa2;" horiz-adv-x="555" 
d="M70 336c0 138 33 234 151 257v104h78v-99c38 -2 87 -9 120 -20l-19 -100c-25 6 -55 12 -96 12c-76 0 -102 -46 -102 -154c0 -116 26 -150 100 -150c35 0 67 6 99 15l23 -99c-36 -14 -81 -22 -125 -24v-95h-78v99c-119 19 -151 107 -151 254z" />
    <glyph glyph-name="sterling" unicode="&#xa3;" horiz-adv-x="555" 
d="M142 397v107c0 107 44 201 208 201c45 0 101 -6 139 -21l-19 -96c-24 6 -54 12 -93 12c-78 0 -103 -33 -103 -96v-107h111v-75h-111v-216h223v-106h-441v106h86v216h-68v75h68z" />
    <glyph glyph-name="fraction" unicode="&#x2044;" horiz-adv-x="207" 
d="M-115 -22l344 740h93l-344 -740h-93z" />
    <glyph glyph-name="yen" unicode="&#xa5;" horiz-adv-x="555" 
d="M114 342h77l-174 355h144l80 -172c16 -38 27 -63 34 -83h3c8 21 21 52 34 81l83 174h141l-177 -355h79v-74h-97v-47h97v-75h-97v-146h-133v146h-94v75h94v47h-94v74z" />
    <glyph glyph-name="florin" unicode="&#x192;" horiz-adv-x="435" 
d="M280 409l-27 -390c-11 -151 -49 -182 -156 -207c-34 -7 -54 -10 -87 -15l-12 100c21 5 43 8 66 15c47 15 52 49 57 111l27 386h-68l7 94h68l3 48c10 134 56 154 162 154c46 0 112 -10 142 -18l-25 -95c-30 4 -68 10 -91 10c-37 0 -52 -6 -56 -61l-3 -38h108l-22 -94h-93z
" />
    <glyph glyph-name="section" unicode="&#xa7;" horiz-adv-x="511" 
d="M48 -79l17 101c43 -8 110 -22 169 -22c77 0 99 16 99 64c0 33 -15 50 -76 71l-55 20c-92 32 -144 71 -144 163c0 52 18 85 46 108c-28 26 -46 62 -46 115c0 118 83 164 203 164c67 0 138 -13 177 -26l-22 -103c-49 11 -109 19 -147 19c-53 0 -81 -15 -81 -52
c0 -33 21 -48 70 -63l46 -15c103 -34 159 -71 159 -182c0 -45 -14 -81 -36 -108c24 -28 36 -63 36 -111c0 -126 -59 -174 -209 -174c-82 0 -166 18 -206 31zM257 355l-42 14c-18 -8 -27 -23 -27 -44c0 -34 22 -47 70 -63l47 -16l17 -6c8 10 11 25 11 43c0 32 -14 52 -76 72z
" />
    <glyph glyph-name="currency" unicode="&#xa4;" horiz-adv-x="721" 
d="M128 60l-61 60l82 81c-33 46 -49 96 -49 152c0 55 15 102 49 151l-83 81l61 61l81 -82c51 35 97 50 152 50c57 0 104 -16 152 -51l82 80l60 -59l-82 -81c36 -53 49 -96 49 -150c0 -55 -13 -101 -47 -149l81 -82l-59 -60l-82 80c-48 -35 -97 -51 -154 -51
c-54 0 -99 15 -151 49zM360 187c92 0 165 74 165 166c0 91 -73 165 -165 165c-91 0 -164 -74 -164 -165c0 -92 75 -166 164 -166z" />
    <glyph glyph-name="quotesingle" unicode="'" horiz-adv-x="231" 
d="M70 512l-9 210h109l-9 -210h-91z" />
    <glyph glyph-name="quotedblleft" unicode="&#x201c;" horiz-adv-x="433" 
d="M293 722h99c-4 -11 -48 -93 -48 -210h-106c0 121 48 198 55 210zM112 722h99c-4 -11 -48 -93 -48 -210h-106c0 121 48 198 55 210z" />
    <glyph glyph-name="guillemotleft" unicode="&#xab;" horiz-adv-x="532" 
d="M157 54l-99 200l100 199h107l-99 -199l99 -200h-108zM359 54l-99 200l100 199h107l-99 -199l99 -200h-108z" />
    <glyph glyph-name="guilsinglleft" unicode="&#x2039;" horiz-adv-x="316" 
d="M150 54l-99 200l100 199h107l-99 -199l99 -200h-108z" />
    <glyph glyph-name="guilsinglright" unicode="&#x203a;" horiz-adv-x="316" 
d="M265 254l-100 -200h-107l98 200l-99 199h108z" />
    <glyph glyph-name="endash" unicode="&#x2013;" horiz-adv-x="507" 
d="M37 234v105h433v-105h-433z" />
    <glyph glyph-name="dagger" unicode="&#x2020;" horiz-adv-x="515" 
d="M211 0v457h-138v89h138v151h93v-151h138v-89h-138v-457h-93z" />
    <glyph glyph-name="daggerdbl" unicode="&#x2021;" horiz-adv-x="515" 
d="M211 238v219h-138v89h138v151h93v-151h138v-89h-138v-219h138v-89h-138v-149h-93v149h-138v89h138z" />
    <glyph glyph-name="periodcentered" unicode="&#xb7;" horiz-adv-x="244" 
d="M55 257v133h135v-133h-135z" />
    <glyph glyph-name="paragraph" unicode="&#xb6;" horiz-adv-x="603" 
d="M452 0v697h81v-697h-81zM305 0v299h-73c-79 0 -163 30 -163 159v83c0 130 84 156 163 156h157v-697h-84z" />
    <glyph glyph-name="bullet" unicode="&#x2022;" horiz-adv-x="278" 
d="M52 267v170h174v-170h-174z" />
    <glyph glyph-name="quotesinglbase" unicode="&#x201a;" horiz-adv-x="252" 
d="M140 -91h-99c4 11 48 93 48 210h106c0 -121 -48 -198 -55 -210z" />
    <glyph glyph-name="quotedblbase" unicode="&#x201e;" horiz-adv-x="434" 
d="M322 -91h-99c4 11 48 93 48 210h106c0 -121 -48 -198 -55 -210zM140 -91h-99c4 11 48 93 48 210h106c0 -121 -48 -198 -55 -210z" />
    <glyph glyph-name="quotedblright" unicode="&#x201d;" horiz-adv-x="433" 
d="M321 512h-99c4 11 48 93 48 210h106c0 -121 -48 -198 -55 -210zM140 512h-99c4 11 48 93 48 210h106c0 -121 -48 -198 -55 -210z" />
    <glyph glyph-name="guillemotright" unicode="&#xbb;" horiz-adv-x="532" 
d="M272 254l-100 -200h-107l98 200l-99 199h108zM474 254l-100 -200h-107l98 200l-99 199h108z" />
    <glyph glyph-name="ellipsis" unicode="&#x2026;" horiz-adv-x="821" 
d="M71 0v120h143v-120h-143zM339 0v120h143v-120h-143zM607 0v120h143v-120h-143z" />
    <glyph glyph-name="perthousand" unicode="&#x2030;" horiz-adv-x="1240" 
d="M29 480c0 169 37 225 149 225s144 -57 144 -226c0 -168 -36 -221 -148 -221s-145 53 -145 222zM176 338c37 0 45 29 45 142s-8 144 -45 144s-47 -31 -47 -144s10 -142 47 -142zM566 215c0 169 38 225 150 225s144 -57 144 -226c0 -168 -36 -221 -148 -221
s-146 53 -146 222zM714 73c37 0 45 29 45 142s-8 144 -45 144s-47 -31 -47 -144s10 -142 47 -142zM917 215c0 169 37 225 150 225c112 0 144 -57 144 -226c0 -168 -36 -221 -148 -221s-146 53 -146 222zM1065 73c37 0 45 29 45 142s-8 144 -45 144s-47 -31 -47 -144
s10 -142 47 -142zM226 -22l344 740h93l-344 -740h-93z" />
    <glyph glyph-name="questiondown" unicode="&#xbf;" horiz-adv-x="414" 
d="M285 303v-63c0 -87 -25 -114 -67 -158l-29 -30c-25 -26 -31 -49 -31 -80c0 -56 28 -70 82 -70c35 0 92 11 126 21l20 -97c-15 -5 -84 -31 -175 -31c-118 0 -183 49 -183 176c0 77 27 113 56 143l31 33c32 33 40 54 40 106v50h130zM285 501v-113h-130v113h130z" />
    <glyph glyph-name="grave" unicode="`" horiz-adv-x="300" 
d="M153 640l-134 124h134l93 -124h-93z" />
    <glyph glyph-name="acute" unicode="&#xb4;" horiz-adv-x="300" 
d="M225 764l-133 -124h-95l92 124h136z" />
    <glyph glyph-name="circumflex" unicode="&#x2c6;" horiz-adv-x="300" 
d="M-8 640l113 124h100l112 -124h-112l-53 63l-52 -63h-108z" />
    <glyph glyph-name="tilde" unicode="&#x2dc;" horiz-adv-x="488" 
d="M175 700h-69c0 11 -1 103 85 103c53 0 77 -37 109 -37c25 0 29 32 29 35h68c0 -9 2 -104 -83 -104c-54 0 -79 37 -109 37c-27 0 -30 -32 -30 -34z" />
    <glyph glyph-name="macron" unicode="&#xaf;" horiz-adv-x="498" 
d="M389 693h-280v78h280v-78z" />
    <glyph glyph-name="breve" unicode="&#x2d8;" horiz-adv-x="300" 
d="M96 774h81c6 -44 28 -58 65 -58s60 14 66 58h83c-14 -91 -65 -125 -148 -125c-84 0 -134 34 -147 125z" />
    <glyph glyph-name="dotaccent" unicode="&#x2d9;" horiz-adv-x="311" 
d="M212 664h-130v102h130v-102z" />
    <glyph glyph-name="dieresis" unicode="&#xa8;" horiz-adv-x="915" 
d="M423 640h-116v109h116v-109zM607 640h-115v109h115v-109z" />
    <glyph glyph-name="ring" unicode="&#x2da;" horiz-adv-x="458" 
d="M119 796c0 64 43 105 109 105s109 -41 109 -105s-43 -105 -109 -105s-109 41 -109 105zM181 796c0 -31 18 -50 47 -50c30 0 48 19 48 50s-18 50 -48 50c-29 0 -47 -19 -47 -50z" />
    <glyph glyph-name="cedilla" unicode="&#xb8;" horiz-adv-x="395" 
d="M102 -214l14 54s2 0 3 -1c3 0 7 -1 13 -2c1 0 2 -1 3 -1l15 -3c3 0 7 -1 11 -1c3 -1 6 -1 9 -1c4 -1 8 -1 12 -1h11c3 0 6 1 9 1c1 0 2 1 3 1c2 0 5 1 7 2l5 3l1 1c1 1 2 2 2 3c2 3 3 6 3 11v3c0 1 -1 2 -1 3s-1 3 -1 4l-2 3s-1 1 -1 2c-2 2 -4 4 -6 5c0 1 -1 1 -2 2
l-10 6c-13 7 -30 13 -42 24c-1 0 -2 1 -3 2l-6 8l-3 6c-1 4 -3 9 -3 14v4c0 9 3 20 9 32l3 7l13 17c1 1 1 2 2 2l3 3h68c-8 -7 -14 -13 -18 -20c-2 -2 -3 -4 -4 -6c-1 -1 -1 -2 -1 -3c-1 -2 -3 -5 -3 -7l-1 -1c-1 -4 -1 -8 -1 -11s1 -7 2 -9c3 -6 9 -10 16 -14l18 -9
c1 0 2 -1 3 -1c10 -6 21 -12 30 -22c6 -6 10 -14 13 -25c1 -1 1 -3 1 -4l2 -10v-6c0 -9 -1 -18 -3 -26l-2 -6l-3 -6c-4 -9 -10 -16 -18 -22l-6 -4l-13 -6c-6 -2 -13 -4 -20 -5l-18 -3h-5c-4 0 -8 -1 -11 -1h-11h-9c-2 0 -4 1 -6 1c-10 1 -20 2 -30 4c-7 1 -14 2 -20 4l-18 4
c-2 1 -3 1 -3 1z" />
    <glyph glyph-name="hungarumlaut" unicode="&#x2dd;" horiz-adv-x="300" 
d="M249 759l-126 -124h-68l92 124h102zM395 759l-126 -124h-69l92 124h103z" />
    <glyph glyph-name="ogonek" unicode="&#x2db;" horiz-adv-x="309" 
d="M252 -209h-3c-99 0 -162 26 -162 97c0 40 24 86 100 126l32 -4l-3 -5l21 -18c-49 -33 -63 -60 -63 -80c0 -23 12 -40 76 -40h2v-76z" />
    <glyph glyph-name="caron" unicode="&#x2c7;" horiz-adv-x="300" 
d="M316 764l-113 -124h-100l-112 124h113l53 -63l51 63h108z" />
    <glyph glyph-name="emdash" unicode="&#x2014;" horiz-adv-x="1007" 
d="M37 234v105h933v-105h-933z" />
    <glyph glyph-name="AE" unicode="&#xc6;" horiz-adv-x="749" 
d="M15 0l140 563c28 115 84 134 163 134h393v-110h-264l28 -172h186v-106h-169l32 -199h192v-110h-309l-25 157h-199l-39 -157h-129zM207 256h162l-52 335c-20 0 -30 -8 -37 -36z" />
    <glyph glyph-name="ordfeminine" unicode="&#xaa;" horiz-adv-x="325" 
d="M290 466v-179c-37 -16 -89 -28 -138 -28c-89 0 -127 28 -127 99c0 54 19 88 90 98c40 6 64 7 78 8v5c0 32 -8 37 -36 37c-25 0 -67 -7 -104 -19l-18 70c21 8 84 26 136 26c72 0 119 -23 119 -117zM193 337v64s-27 -1 -45 -5c-22 -3 -28 -17 -28 -32c0 -17 6 -32 36 -32
c14 0 26 2 37 5z" />
    <glyph glyph-name="Lslash" unicode="&#x141;" horiz-adv-x="442" 
d="M21 232v94l54 22v349h133v-293l129 55v-94l-129 -55v-200h215v-110h-348v254z" />
    <glyph glyph-name="Oslash" unicode="&#xd8;" horiz-adv-x="570" 
d="M42 347c0 252 57 362 246 362c59 0 105 -11 139 -33l37 64l53 -29l-44 -80c41 -58 55 -152 55 -284c0 -252 -56 -359 -246 -359c-64 0 -112 12 -148 38l-37 -68l-53 29l48 84c-37 58 -50 149 -50 276zM285 95c89 0 112 68 112 252c0 63 -3 113 -11 152
c-23 -51 -51 -110 -79 -166l-100 -202c17 -25 42 -36 78 -36zM181 205c23 49 51 107 80 164l99 199c-17 23 -41 34 -75 34c-88 0 -112 -71 -112 -255c0 -59 2 -106 8 -142z" />
    <glyph glyph-name="OE" unicode="&#x152;" horiz-adv-x="779" 
d="M42 347c0 252 61 361 231 361c31 0 60 -5 85 -14v3h383v-110h-250v-172h200v-106h-200v-199h255v-110h-388v3c-27 -9 -58 -14 -93 -14c-165 0 -223 106 -223 358zM297 98c24 0 45 6 61 15v467c-19 12 -44 19 -69 19c-93 0 -114 -68 -114 -252s21 -249 122 -249z" />
    <glyph glyph-name="ordmasculine" unicode="&#xba;" horiz-adv-x="326" 
d="M163 258c-115 0 -138 56 -138 159s23 168 138 168c114 0 138 -65 138 -168s-24 -159 -138 -159zM163 337c28 0 37 19 37 82c0 57 -9 86 -37 86c-29 0 -38 -29 -38 -86c0 -63 9 -82 38 -82z" />
    <glyph glyph-name="ae" unicode="&#xe6;" horiz-adv-x="760" 
d="M257 511c67 1 109 -12 135 -55c31 37 78 57 149 57c154 0 182 -101 182 -162c0 -103 -27 -135 -142 -135c-40 0 -99 6 -135 16v-7c1 -99 24 -132 97 -132c51 0 95 10 147 26l21 -93c-25 -12 -96 -35 -188 -35c-75 0 -124 17 -156 51c-45 -34 -98 -51 -162 -51
c-127 0 -164 73 -164 155c0 95 42 144 144 161c42 6 82 11 133 12v11c0 55 -13 76 -68 76c-45 0 -113 -14 -168 -32l-24 95c34 15 121 41 199 42zM315 231c-51 -2 -74 -5 -93 -10c-43 -10 -54 -33 -54 -68c0 -41 18 -62 67 -62c29 0 63 11 91 35c-7 30 -10 65 -11 105z
M449 319c23 -8 65 -15 96 -15c41 0 50 16 50 50c0 40 -21 65 -66 65c-46 0 -76 -23 -80 -100z" />
    <glyph glyph-name="dotlessi" unicode="&#x131;" horiz-adv-x="263" 
d="M65 0v503h132v-503h-132z" />
    <glyph glyph-name="lslash" unicode="&#x142;" horiz-adv-x="298" 
d="M17 253v94l51 22v328h132v-272l76 33v-93l-76 -33v-189c0 -38 12 -44 32 -44c15 0 28 2 35 4l13 -100c-19 -6 -56 -12 -96 -12c-75 0 -116 26 -116 146v138z" />
    <glyph glyph-name="oslash" unicode="&#xf8;" horiz-adv-x="503" 
d="M247 -12c-52 0 -91 8 -121 23l-35 -53l-50 34l39 58c-32 43 -41 107 -41 194c0 170 44 271 215 271c51 0 91 -9 121 -27l37 56l51 -33l-43 -64c34 -46 44 -116 44 -203c0 -170 -45 -256 -217 -256zM173 164c7 14 25 46 73 121l62 97c-13 18 -32 27 -57 27
c-62 0 -83 -53 -83 -163c0 -34 1 -61 5 -82zM251 94c62 0 84 36 84 152c0 36 -2 67 -8 91c-3 -10 -19 -42 -79 -137l-54 -85c13 -15 31 -21 57 -21z" />
    <glyph glyph-name="oe" unicode="&#x153;" horiz-adv-x="777" 
d="M244 -12c-162 0 -205 104 -205 256c0 170 51 271 206 271c78 0 125 -27 153 -67c29 41 77 67 158 67c158 0 184 -103 184 -164c0 -103 -23 -135 -142 -135c-40 0 -98 6 -134 16v-7c0 -99 24 -132 97 -132c50 0 94 10 147 26l20 -93c-24 -12 -96 -35 -187 -35
c-73 0 -118 23 -147 62c-30 -39 -77 -65 -150 -65zM252 96c61 0 80 41 80 150c0 110 -17 161 -80 161s-81 -51 -81 -161c0 -109 19 -150 81 -150zM466 319c24 -8 65 -15 96 -15c45 0 50 19 50 50c0 40 -21 65 -66 65c-46 0 -76 -23 -80 -100z" />
    <glyph glyph-name="germandbls" unicode="&#xdf;" horiz-adv-x="558" 
d="M63 0v480c0 111 46 194 204 194c123 0 191 -58 191 -143c0 -74 -51 -99 -51 -157c0 -69 121 -75 121 -229c0 -91 -43 -151 -164 -151c-39 0 -91 8 -116 17l22 101c20 -4 44 -10 70 -10c40 0 56 23 56 55c0 83 -118 81 -118 198c0 69 51 106 51 160c0 29 -19 51 -64 51
c-51 0 -70 -32 -70 -80v-486h-132z" />
    <glyph glyph-name="onesuperior" unicode="&#xb9;" horiz-adv-x="233" 
d="M76 380v351h-58v81h160v-432h-102z" />
    <glyph glyph-name="logicalnot" unicode="&#xac;" horiz-adv-x="515" 
d="M59 260v105h397v-235h-103v130h-294z" />
    <glyph glyph-name="mu" unicode="&#xb5;" horiz-adv-x="523" 
d="M60 503h131v-341c0 -46 16 -63 48 -63c35 0 66 20 89 41v363h132v-503h-116l-8 43h-2c-30 -29 -59 -48 -102 -48c-14 0 -29 2 -44 8c2 -32 3 -62 3 -84v-116h-131v700z" />
    <glyph glyph-name="trademark" unicode="&#x2122;" horiz-adv-x="636" 
d="M79 348v285h-71v64h220v-64h-71v-285h-78zM616 348h-78l-4 121c-2 59 -2 129 -2 129h-2l-25 -82c-13 -48 -34 -65 -70 -65c-35 0 -56 16 -70 64l-25 83h-2s-1 -64 -2 -125l-4 -125h-76l20 349h97l51 -166c4 -11 6 -14 12 -14s9 4 13 15l50 165h96z" />
    <glyph glyph-name="Eth" unicode="&#xd0;" horiz-adv-x="566" 
d="M14 320v78h55v299h150c248 0 305 -68 305 -347c0 -284 -51 -350 -304 -350h-151v320h-55zM202 110h27c136 0 163 22 163 241c0 220 -34 236 -162 236h-28v-189h93v-78h-93v-210z" />
    <glyph glyph-name="onehalf" unicode="&#xbd;" horiz-adv-x="757" 
d="M76 265v351h-58v81h160v-432h-102zM474 0v103c0 91 30 115 96 142l24 10c28 12 39 26 39 61c0 30 -13 41 -41 41c-34 0 -64 -7 -95 -12l-14 75c27 7 64 18 123 18c83 0 125 -37 125 -121c0 -80 -37 -113 -91 -136l-29 -13c-29 -13 -35 -33 -35 -73v-14h155v-81h-257z
M123 -22l344 740h93l-344 -740h-93z" />
    <glyph glyph-name="plusminus" unicode="&#xb1;" horiz-adv-x="515" 
d="M205 188v155h-147v102h147v158h104v-158h148v-102h-148v-155h-104zM58 0v101h399v-101h-399z" />
    <glyph glyph-name="Thorn" unicode="&#xde;" horiz-adv-x="533" 
d="M69 0v697h133v-102h68c164 0 227 -57 227 -218c0 -146 -74 -227 -228 -227h-67v-150h-133zM202 260h61c76 0 104 31 104 118c0 83 -22 106 -104 106h-61v-224z" />
    <glyph glyph-name="onequarter" unicode="&#xbc;" horiz-adv-x="725" 
d="M76 265v351h-58v81h160v-432h-102zM424 106l-10 73l115 259l91 -32l-43 -94c-20 -42 -61 -125 -61 -125h80l14 79h84v-266h-102v106h-168zM123 -22l344 740h93l-344 -740h-93z" />
    <glyph glyph-name="divide" unicode="&#xf7;" horiz-adv-x="515" 
d="M191 437v111h133v-111h-133zM191 78v111h133v-111h-133zM48 263v101h419v-101h-419z" />
    <glyph glyph-name="brokenbar" unicode="&#xa6;" horiz-adv-x="265" 
d="M83 444v448h99v-448h-99zM83 -196v448h99v-448h-99z" />
    <glyph glyph-name="degree" unicode="&#xb0;" horiz-adv-x="327" 
d="M48 590c0 86 47 117 115 117s116 -31 116 -117s-48 -121 -116 -121s-115 35 -115 121zM163 523c37 0 54 20 54 67s-17 65 -54 65s-54 -18 -54 -65s17 -67 54 -67z" />
    <glyph glyph-name="thorn" unicode="&#xfe;" horiz-adv-x="514" 
d="M63 697h132v-122c0 -44 -2 -81 -2 -81h2c24 8 64 18 105 18c101 0 175 -44 175 -244c0 -211 -75 -277 -203 -277c-27 0 -54 2 -80 6c1 -13 3 -44 3 -84v-109h-132v893zM259 99c54 0 84 21 84 166c0 123 -35 139 -74 139c-25 0 -50 -6 -74 -16v-277c16 -7 40 -12 64 -12z
" />
    <glyph glyph-name="threequarters" unicode="&#xbe;" horiz-adv-x="790" 
d="M13 282l18 73c29 -8 59 -15 91 -15c43 0 54 20 54 50c2 41 -10 59 -69 60l-40 1v75l44 2c52 1 58 18 58 53c0 28 -12 41 -42 41c-35 0 -66 -8 -94 -16l-15 71c18 8 73 26 125 26c88 0 128 -34 128 -120c0 -42 -19 -79 -44 -91c32 -17 51 -45 51 -101
c0 -91 -43 -132 -145 -132c-42 0 -89 9 -120 23zM489 106l-10 73l115 259l91 -32l-42 -94c-20 -42 -61 -125 -61 -125h79l14 79h85v-266h-102v106h-169zM188 -22l344 740h93l-344 -740h-93z" />
    <glyph glyph-name="twosuperior" unicode="&#xb2;" horiz-adv-x="312" 
d="M29 380v103c0 91 30 115 96 142l24 10c28 12 39 26 39 61c0 30 -12 41 -41 41c-34 0 -64 -7 -95 -12l-14 75c27 7 64 18 123 18c83 0 125 -37 125 -121c0 -80 -37 -113 -91 -136l-29 -13c-29 -13 -35 -33 -35 -73v-14h155v-81h-257z" />
    <glyph glyph-name="registered" unicode="&#xae;" horiz-adv-x="506" 
d="M54 501c0 137 80 207 199 207c118 0 199 -70 199 -207s-81 -208 -199 -208c-119 0 -199 71 -199 208zM102 501c0 -114 55 -164 151 -164c95 0 151 50 151 164s-56 163 -151 163c-96 0 -151 -49 -151 -163zM181 388l1 230h73c53 0 75 -20 75 -74c0 -24 -8 -46 -29 -57
c9 -8 19 -21 26 -42l19 -57h-60l-13 44c-9 26 -13 31 -28 31h-6v-75h-58zM239 510h11c19 0 25 8 25 32c0 21 -4 30 -24 30h-12v-62z" />
    <glyph glyph-name="minus" unicode="&#x2212;" horiz-adv-x="515" 
d="M48 263v101h419v-101h-419z" />
    <glyph glyph-name="eth" unicode="&#xf0;" horiz-adv-x="502" 
d="M393 627l-47 -23c101 -93 116 -224 116 -368c-1 -140 -42 -248 -215 -248c-168 0 -208 104 -208 249c0 156 57 246 186 246c33 0 60 -6 83 -15c-12 34 -34 63 -64 87l-111 -54l-26 51l79 39c-24 11 -49 21 -77 29l34 87c61 -17 110 -38 150 -63l74 36zM330 236
c0 44 0 98 -11 130c-15 8 -37 13 -69 13c-58 0 -79 -53 -79 -142c0 -95 19 -141 78 -141c61 0 81 46 81 140z" />
    <glyph glyph-name="multiply" unicode="&#xd7;" horiz-adv-x="515" 
d="M109 91l-73 75l148 148l-149 150l73 74l151 -150l147 149l73 -74l-148 -149l147 -147l-71 -75l-148 149z" />
    <glyph glyph-name="threesuperior" unicode="&#xb3;" horiz-adv-x="308" 
d="M13 397l18 73c29 -8 59 -15 91 -15c43 0 54 20 54 50c2 41 -10 59 -69 60l-40 1v75l44 2c52 1 58 18 58 53c0 28 -12 41 -42 41c-35 0 -66 -8 -94 -16l-15 71c18 8 73 26 125 26c88 0 128 -34 128 -120c0 -42 -19 -79 -44 -91c32 -17 51 -45 51 -101
c0 -91 -43 -132 -145 -132c-42 0 -89 9 -120 23z" />
    <glyph glyph-name="copyright" unicode="&#xa9;" horiz-adv-x="838" 
d="M509 221l13 -64c-26 -8 -69 -15 -100 -15c-117 0 -141 59 -141 210s24 208 141 208c31 0 74 -5 99 -13l-12 -64c-28 3 -53 6 -69 6c-55 0 -70 -14 -70 -137c0 -122 15 -139 71 -139c16 0 40 3 68 8zM78 350c0 226 126 361 341 361s341 -135 341 -361s-126 -362 -341 -362
s-341 136 -341 362zM160 350c0 -183 89 -287 259 -287c169 0 259 104 259 287c0 182 -90 287 -259 287c-170 0 -259 -105 -259 -287z" />
    <glyph glyph-name="Aacute" unicode="&#xc1;" horiz-adv-x="556" 
d="M403 0l-29 157h-195l-28 -157h-136l111 584c19 104 89 125 153 125c63 0 133 -20 152 -124l110 -585h-138zM251 573l-58 -319h166l-58 319c-3 23 -11 29 -24 29s-22 -6 -26 -29zM439 872l-133 -124h-95l92 124h136z" />
    <glyph glyph-name="Acircumflex" unicode="&#xc2;" horiz-adv-x="556" 
d="M403 0l-29 157h-195l-28 -157h-136l111 584c19 104 89 125 153 125c63 0 133 -20 152 -124l110 -585h-138zM251 573l-58 -319h166l-58 319c-3 23 -11 29 -24 29s-22 -6 -26 -29zM115 748l113 124h100l112 -124h-112l-53 63l-52 -63h-108z" />
    <glyph glyph-name="Adieresis" unicode="&#xc4;" horiz-adv-x="556" 
d="M403 0l-29 157h-195l-28 -157h-136l111 584c19 104 89 125 153 125c63 0 133 -20 152 -124l110 -585h-138zM251 573l-58 -319h166l-58 319c-3 23 -11 29 -24 29s-22 -6 -26 -29zM243 748h-116v109h116v-109zM427 748h-115v109h115v-109z" />
    <glyph glyph-name="Agrave" unicode="&#xc0;" horiz-adv-x="556" 
d="M403 0l-29 157h-195l-28 -157h-136l111 584c19 104 89 125 153 125c63 0 133 -20 152 -124l110 -585h-138zM251 573l-58 -319h166l-58 319c-3 23 -11 29 -24 29s-22 -6 -26 -29zM250 748l-134 124h134l93 -124h-93z" />
    <glyph glyph-name="Aring" unicode="&#xc5;" horiz-adv-x="556" 
d="M403 0l-29 157h-195l-28 -157h-136l111 584c19 104 89 125 153 125c63 0 133 -20 152 -124l110 -585h-138zM168 846c0 64 43 105 109 105s109 -41 109 -105s-43 -105 -109 -105s-109 41 -109 105zM251 573l-58 -319h166l-58 319c-3 23 -11 29 -24 29s-22 -6 -26 -29z
M230 846c0 -31 18 -50 47 -50c30 0 48 19 48 50s-18 50 -48 50c-29 0 -47 -19 -47 -50z" />
    <glyph glyph-name="Atilde" unicode="&#xc3;" horiz-adv-x="556" 
d="M403 0l-29 157h-195l-28 -157h-136l111 584c19 104 89 125 153 125c63 0 133 -20 152 -124l110 -585h-138zM251 573l-58 -319h166l-58 319c-3 23 -11 29 -24 29s-22 -6 -26 -29zM204 748h-69c0 11 -1 103 85 103c53 0 77 -37 109 -37c25 0 29 32 29 35h68
c0 -9 2 -104 -83 -104c-54 0 -79 37 -109 37c-27 0 -30 -32 -30 -34z" />
    <glyph glyph-name="Ccedilla" unicode="&#xc7;" horiz-adv-x="477" 
d="M174 -202l14 54h1s1 -1 2 -1h2c1 0 2 -1 3 -1s3 0 4 -1l13 -2l9 -2c2 0 4 0 6 -1h5c1 0 3 -1 4 -1h5c2 0 4 -1 6 -1h17c3 0 6 1 9 1l10 3c3 1 5 3 6 4l3 4c1 3 2 6 2 10v3c0 1 -1 2 -1 3s-1 3 -1 4l-3 5c-6 7 -15 12 -26 17c-9 4 -19 8 -27 14l-7 6c-1 0 -2 1 -3 2
c-7 7 -11 16 -12 28v4c0 10 3 23 11 37l3 5c1 1 2 2 2 3c-132 17 -189 105 -189 351c0 250 56 360 248 360c57 0 123 -10 157 -22l-18 -101c-46 8 -81 13 -120 13c-97 0 -134 -31 -134 -250c0 -213 33 -245 135 -245c38 0 81 9 122 17l19 -102c-33 -11 -99 -24 -156 -25
c-1 0 -1 -1 -1 -1l-2 -3c0 -1 -1 -1 -1 -2l-3 -6c0 -1 -1 -3 -1 -4c-1 -1 -1 -2 -1 -3c-1 -2 -1 -4 -1 -5v-4c0 -7 3 -12 8 -16c1 -1 2 -2 3 -2c0 -1 1 -1 2 -2l5 -3l11 -6c9 -4 19 -9 28 -16c2 -1 4 -3 6 -5c12 -11 21 -26 22 -50c0 -7 -1 -13 -2 -19c-1 -7 -3 -13 -6 -19
c-8 -18 -24 -29 -48 -35c-3 -1 -6 -2 -9 -2c-7 -2 -15 -3 -23 -3c-4 0 -8 -1 -11 -1h-20c-4 0 -8 1 -12 1c-33 4 -65 13 -65 13z" />
    <glyph glyph-name="Eacute" unicode="&#xc9;" horiz-adv-x="494" 
d="M69 0v697h385v-110h-252v-172h202v-106h-202v-199h258v-110h-391zM424 872l-133 -124h-95l92 124h136z" />
    <glyph glyph-name="Ecircumflex" unicode="&#xca;" horiz-adv-x="494" 
d="M69 0v697h385v-110h-252v-172h202v-106h-202v-199h258v-110h-391zM101 748l113 124h100l112 -124h-112l-53 63l-52 -63h-108z" />
    <glyph glyph-name="Edieresis" unicode="&#xcb;" horiz-adv-x="494" 
d="M69 0v697h385v-110h-252v-172h202v-106h-202v-199h258v-110h-391zM229 748h-116v109h116v-109zM413 748h-115v109h115v-109z" />
    <glyph glyph-name="Egrave" unicode="&#xc8;" horiz-adv-x="494" 
d="M69 0v697h385v-110h-252v-172h202v-106h-202v-199h258v-110h-391zM235 748l-134 124h134l93 -124h-93z" />
    <glyph glyph-name="Iacute" unicode="&#xcd;" horiz-adv-x="270" 
d="M69 0v697h133v-697h-133zM296 872l-133 -124h-95l92 124h136z" />
    <glyph glyph-name="Icircumflex" unicode="&#xce;" horiz-adv-x="270" 
d="M69 0v697h133v-697h-133zM-28 748l113 124h100l112 -124h-112l-53 63l-52 -63h-108z" />
    <glyph glyph-name="Idieresis" unicode="&#xcf;" horiz-adv-x="270" 
d="M69 0v697h133v-697h-133zM100 748h-116v109h116v-109zM284 748h-115v109h115v-109z" />
    <glyph glyph-name="Igrave" unicode="&#xcc;" horiz-adv-x="270" 
d="M69 0v697h133v-697h-133zM107 748l-134 124h134l93 -124h-93z" />
    <glyph glyph-name="Ntilde" unicode="&#xd1;" horiz-adv-x="618" 
d="M69 0v697h168c176 -456 194 -539 194 -539h3s-8 139 -8 264v275h123v-697h-168c-175 460 -193 539 -193 539h-4s7 -149 8 -276l1 -263h-124zM240 748h-69c0 11 -1 103 85 103c53 0 77 -37 109 -37c25 0 29 32 29 35h68c0 -9 2 -104 -83 -104c-54 0 -79 37 -109 37
c-27 0 -30 -32 -30 -34z" />
    <glyph glyph-name="Oacute" unicode="&#xd3;" horiz-adv-x="570" 
d="M42 348c0 252 56 361 246 361s240 -109 240 -362c0 -252 -56 -359 -246 -359c-189 0 -240 108 -240 360zM285 98c89 0 110 68 110 250s-21 251 -110 251c-88 0 -110 -69 -110 -251s22 -250 110 -250zM448 872l-133 -124h-95l92 124h136z" />
    <glyph glyph-name="Ocircumflex" unicode="&#xd4;" horiz-adv-x="570" 
d="M42 348c0 252 56 361 246 361s240 -109 240 -362c0 -252 -56 -359 -246 -359c-189 0 -240 108 -240 360zM285 98c89 0 110 68 110 250s-21 251 -110 251c-88 0 -110 -69 -110 -251s22 -250 110 -250zM124 748l113 124h100l112 -124h-112l-53 63l-52 -63h-108z" />
    <glyph glyph-name="Odieresis" unicode="&#xd6;" horiz-adv-x="570" 
d="M42 348c0 252 56 361 246 361s240 -109 240 -362c0 -252 -56 -359 -246 -359c-189 0 -240 108 -240 360zM285 98c89 0 110 68 110 250s-21 251 -110 251c-88 0 -110 -69 -110 -251s22 -250 110 -250zM252 748h-116v109h116v-109zM436 748h-115v109h115v-109z" />
    <glyph glyph-name="Ograve" unicode="&#xd2;" horiz-adv-x="570" 
d="M42 348c0 252 56 361 246 361s240 -109 240 -362c0 -252 -56 -359 -246 -359c-189 0 -240 108 -240 360zM285 98c89 0 110 68 110 250s-21 251 -110 251c-88 0 -110 -69 -110 -251s22 -250 110 -250zM259 748l-134 124h134l93 -124h-93z" />
    <glyph glyph-name="Otilde" unicode="&#xd5;" horiz-adv-x="570" 
d="M42 348c0 252 56 361 246 361s240 -109 240 -362c0 -252 -56 -359 -246 -359c-189 0 -240 108 -240 360zM285 98c89 0 110 68 110 250s-21 251 -110 251c-88 0 -110 -69 -110 -251s22 -250 110 -250zM214 748h-69c0 11 -1 103 85 103c53 0 77 -37 109 -37
c25 0 29 32 29 35h68c0 -9 2 -104 -83 -104c-54 0 -79 37 -109 37c-27 0 -30 -32 -30 -34z" />
    <glyph glyph-name="Scaron" unicode="&#x160;" horiz-adv-x="488" 
d="M33 21l19 106c43 -9 107 -26 168 -26c77 0 101 26 101 89c0 48 -14 80 -82 109l-41 18c-101 43 -156 90 -156 205c0 133 85 184 205 184c71 0 139 -13 178 -25l-22 -103c-47 10 -103 18 -142 18c-58 0 -89 -20 -89 -74c0 -53 29 -73 81 -96l34 -16
c106 -48 164 -88 164 -219c0 -145 -61 -200 -211 -200c-83 0 -168 18 -207 30zM405 872l-113 -124h-100l-112 124h113l53 -63l51 63h108z" />
    <glyph glyph-name="Uacute" unicode="&#xda;" horiz-adv-x="580" 
d="M63 187v510h133v-512c0 -53 26 -87 93 -87c69 0 94 34 94 87v512h133v-510c0 -138 -81 -199 -227 -199c-145 0 -226 61 -226 199zM454 872l-133 -124h-95l92 124h136z" />
    <glyph glyph-name="Ucircumflex" unicode="&#xdb;" horiz-adv-x="580" 
d="M63 187v510h133v-512c0 -53 26 -87 93 -87c69 0 94 34 94 87v512h133v-510c0 -138 -81 -199 -227 -199c-145 0 -226 61 -226 199zM130 748l113 124h100l112 -124h-112l-53 63l-52 -63h-108z" />
    <glyph glyph-name="Udieresis" unicode="&#xdc;" horiz-adv-x="580" 
d="M63 187v510h133v-512c0 -53 26 -87 93 -87c69 0 94 34 94 87v512h133v-510c0 -138 -81 -199 -227 -199c-145 0 -226 61 -226 199zM258 748h-116v109h116v-109zM442 748h-115v109h115v-109z" />
    <glyph glyph-name="Ugrave" unicode="&#xd9;" horiz-adv-x="580" 
d="M63 187v510h133v-512c0 -53 26 -87 93 -87c69 0 94 34 94 87v512h133v-510c0 -138 -81 -199 -227 -199c-145 0 -226 61 -226 199zM265 748l-134 124h134l93 -124h-93z" />
    <glyph glyph-name="Yacute" unicode="&#xdd;" horiz-adv-x="506" 
d="M185 0v307l-191 390h144l80 -172c16 -38 27 -63 34 -83h3c8 21 21 52 34 81l83 174h141l-195 -391v-306h-133zM415 872l-133 -124h-95l92 124h136z" />
    <glyph glyph-name="Ydieresis" unicode="&#x178;" horiz-adv-x="506" 
d="M185 0v307l-191 390h144l80 -172c16 -38 27 -63 34 -83h3c8 21 21 52 34 81l83 174h141l-195 -391v-306h-133zM219 748h-116v109h116v-109zM403 748h-115v109h115v-109z" />
    <glyph glyph-name="Zcaron" unicode="&#x17d;" horiz-adv-x="493" 
d="M28 0v61l258 526h-235v110h398v-57l-257 -530h267v-110h-431zM412 872l-113 -124h-100l-112 124h113l53 -63l51 63h108z" />
    <glyph glyph-name="aacute" unicode="&#xe1;" horiz-adv-x="506" 
d="M444 326v-293c-58 -25 -142 -42 -209 -42c-148 0 -194 60 -194 157c0 87 35 142 146 160c49 7 104 11 130 12v10c0 64 -14 76 -68 76c-44 0 -112 -14 -167 -32l-23 95c34 15 127 43 207 43c108 0 178 -34 178 -186zM317 102v129c-24 -1 -70 -4 -95 -10
c-43 -9 -54 -33 -54 -67c0 -36 14 -63 72 -63c31 0 58 5 77 11zM419 701l-133 -124h-95l92 124h136z" />
    <glyph glyph-name="acircumflex" unicode="&#xe2;" horiz-adv-x="506" 
d="M444 326v-293c-58 -25 -142 -42 -209 -42c-148 0 -194 60 -194 157c0 87 35 142 146 160c49 7 104 11 130 12v10c0 64 -14 76 -68 76c-44 0 -112 -14 -167 -32l-23 95c34 15 127 43 207 43c108 0 178 -34 178 -186zM317 102v129c-24 -1 -70 -4 -95 -10
c-43 -9 -54 -33 -54 -67c0 -36 14 -63 72 -63c31 0 58 5 77 11zM95 577l113 124h100l112 -124h-112l-53 63l-52 -63h-108z" />
    <glyph glyph-name="adieresis" unicode="&#xe4;" horiz-adv-x="506" 
d="M444 326v-293c-58 -25 -142 -42 -209 -42c-148 0 -194 60 -194 157c0 87 35 142 146 160c49 7 104 11 130 12v10c0 64 -14 76 -68 76c-44 0 -112 -14 -167 -32l-23 95c34 15 127 43 207 43c108 0 178 -34 178 -186zM317 102v129c-24 -1 -70 -4 -95 -10
c-43 -9 -54 -33 -54 -67c0 -36 14 -63 72 -63c31 0 58 5 77 11zM223 577h-116v109h116v-109zM407 577h-115v109h115v-109z" />
    <glyph glyph-name="agrave" unicode="&#xe0;" horiz-adv-x="506" 
d="M444 326v-293c-58 -25 -142 -42 -209 -42c-148 0 -194 60 -194 157c0 87 35 142 146 160c49 7 104 11 130 12v10c0 64 -14 76 -68 76c-44 0 -112 -14 -167 -32l-23 95c34 15 127 43 207 43c108 0 178 -34 178 -186zM317 102v129c-24 -1 -70 -4 -95 -10
c-43 -9 -54 -33 -54 -67c0 -36 14 -63 72 -63c31 0 58 5 77 11zM230 577l-134 124h134l93 -124h-93z" />
    <glyph glyph-name="aring" unicode="&#xe5;" horiz-adv-x="506" 
d="M444 326v-293c-58 -25 -142 -42 -209 -42c-148 0 -194 60 -194 157c0 87 35 142 146 160c49 7 104 11 130 12v10c0 64 -14 76 -68 76c-44 0 -112 -14 -167 -32l-23 95c34 15 127 43 207 43c108 0 178 -34 178 -186zM317 102v129c-24 -1 -70 -4 -95 -10
c-43 -9 -54 -33 -54 -67c0 -36 14 -63 72 -63c31 0 58 5 77 11zM148 675c0 64 43 105 109 105s109 -41 109 -105s-43 -105 -109 -105s-109 41 -109 105zM210 675c0 -31 18 -50 47 -50c30 0 48 19 48 50s-18 50 -48 50c-29 0 -47 -19 -47 -50z" />
    <glyph glyph-name="atilde" unicode="&#xe3;" horiz-adv-x="506" 
d="M444 326v-293c-58 -25 -142 -42 -209 -42c-148 0 -194 60 -194 157c0 87 35 142 146 160c49 7 104 11 130 12v10c0 64 -14 76 -68 76c-44 0 -112 -14 -167 -32l-23 95c34 15 127 43 207 43c108 0 178 -34 178 -186zM317 102v129c-24 -1 -70 -4 -95 -10
c-43 -9 -54 -33 -54 -67c0 -36 14 -63 72 -63c31 0 58 5 77 11zM184 577h-69c0 11 -1 103 85 103c53 0 77 -37 109 -37c25 0 29 32 29 35h68c0 -9 2 -104 -83 -104c-54 0 -79 37 -109 37c-27 0 -30 -32 -30 -34z" />
    <glyph glyph-name="ccedilla" unicode="&#xe7;" horiz-adv-x="421" 
d="M139 -202l14 54s3 -1 8 -2c1 0 3 0 4 -1l37 -6h5c4 -1 8 -1 12 -1c6 0 11 0 16 1h4l7 2c7 2 12 6 13 13c1 1 1 2 1 4v2c0 4 -1 7 -2 10l-3 5c-5 6 -14 11 -23 16c-8 3 -17 7 -24 11c-5 3 -9 6 -13 10c-7 6 -13 15 -15 26v16c1 2 1 6 2 9c1 4 3 7 5 12l2 3c2 4 4 8 7 12
c-124 17 -157 106 -157 256c0 159 44 262 211 262c41 0 100 -8 138 -21l-19 -100c-25 6 -56 13 -96 13c-77 0 -102 -47 -102 -154c0 -117 25 -151 100 -151c35 0 66 7 99 15l23 -99c-39 -15 -87 -22 -133 -24c-2 -3 -4 -6 -5 -9l-4 -8c0 -2 0 -3 -1 -4v-12l3 -6
c2 -3 5 -5 8 -7c0 -1 1 -1 2 -2l5 -3l11 -6l16 -8c7 -3 13 -8 18 -13c2 -1 4 -3 6 -5l7 -9l3 -8c2 -4 3 -8 4 -12l2 -10v-6c0 -7 -1 -13 -2 -19c0 -2 -1 -5 -1 -7l-2 -6l-3 -6c-1 -3 -3 -6 -5 -8c-2 -3 -3 -6 -6 -8c-4 -3 -8 -7 -13 -10l-6 -3l-7 -3l-8 -2
c-1 -1 -2 -1 -3 -1c-3 -1 -6 -2 -9 -2l-18 -3h-5c-7 -1 -15 -1 -22 -1h-9l-21 2c-30 4 -56 12 -56 12z" />
    <glyph glyph-name="eacute" unicode="&#xe9;" horiz-adv-x="484" 
d="M39 251c0 162 40 264 217 264c165 0 191 -103 191 -164c0 -103 -22 -135 -144 -135c-34 0 -97 6 -133 16v-7c1 -99 25 -132 97 -132c51 0 95 10 147 26l21 -93c-24 -12 -96 -35 -188 -35c-165 0 -208 83 -208 260zM417 701l-133 -124h-95l92 124h136zM173 319
c24 -8 65 -15 96 -15c45 0 50 19 50 50c0 40 -21 65 -66 65c-46 0 -76 -23 -80 -100z" />
    <glyph glyph-name="ecircumflex" unicode="&#xea;" horiz-adv-x="484" 
d="M39 251c0 162 40 264 217 264c165 0 191 -103 191 -164c0 -103 -22 -135 -144 -135c-34 0 -97 6 -133 16v-7c1 -99 25 -132 97 -132c51 0 95 10 147 26l21 -93c-24 -12 -96 -35 -188 -35c-165 0 -208 83 -208 260zM93 577l113 124h100l112 -124h-112l-53 63l-52 -63h-108
zM173 319c24 -8 65 -15 96 -15c45 0 50 19 50 50c0 40 -21 65 -66 65c-46 0 -76 -23 -80 -100z" />
    <glyph glyph-name="edieresis" unicode="&#xeb;" horiz-adv-x="484" 
d="M39 251c0 162 40 264 217 264c165 0 191 -103 191 -164c0 -103 -22 -135 -144 -135c-34 0 -97 6 -133 16v-7c1 -99 25 -132 97 -132c51 0 95 10 147 26l21 -93c-24 -12 -96 -35 -188 -35c-165 0 -208 83 -208 260zM173 319c24 -8 65 -15 96 -15c45 0 50 19 50 50
c0 40 -21 65 -66 65c-46 0 -76 -23 -80 -100zM221 577h-116v109h116v-109zM405 577h-115v109h115v-109z" />
    <glyph glyph-name="egrave" unicode="&#xe8;" horiz-adv-x="484" 
d="M39 251c0 162 40 264 217 264c165 0 191 -103 191 -164c0 -103 -22 -135 -144 -135c-34 0 -97 6 -133 16v-7c1 -99 25 -132 97 -132c51 0 95 10 147 26l21 -93c-24 -12 -96 -35 -188 -35c-165 0 -208 83 -208 260zM228 577l-134 124h134l93 -124h-93zM173 319
c24 -8 65 -15 96 -15c45 0 50 19 50 50c0 40 -21 65 -66 65c-46 0 -76 -23 -80 -100z" />
    <glyph glyph-name="iacute" unicode="&#xed;" horiz-adv-x="263" 
d="M65 0v503h132v-503h-132zM294 701l-133 -124h-95l92 124h136z" />
    <glyph glyph-name="icircumflex" unicode="&#xee;" horiz-adv-x="263" 
d="M65 0v503h132v-503h-132zM-29 577l113 124h100l112 -124h-112l-53 63l-52 -63h-108z" />
    <glyph glyph-name="idieresis" unicode="&#xef;" horiz-adv-x="263" 
d="M65 0v503h132v-503h-132zM98 577h-116v109h116v-109zM282 577h-115v109h115v-109z" />
    <glyph glyph-name="igrave" unicode="&#xec;" horiz-adv-x="263" 
d="M65 0v503h132v-503h-132zM105 577l-134 124h134l93 -124h-93z" />
    <glyph glyph-name="ntilde" unicode="&#xf1;" horiz-adv-x="533" 
d="M63 0v471c62 24 144 41 208 41c128 0 199 -40 199 -186v-326h-131v323c0 57 -20 81 -70 81c-35 0 -64 -9 -74 -12v-392h-132zM194 577h-69c0 11 -1 103 85 103c53 0 77 -37 109 -37c25 0 29 32 29 35h68c0 -9 2 -104 -83 -104c-54 0 -79 37 -109 37
c-27 0 -30 -32 -30 -34z" />
    <glyph glyph-name="oacute" unicode="&#xf3;" horiz-adv-x="503" 
d="M248 -12c-171 0 -209 102 -209 264c0 161 44 263 215 263c172 0 210 -102 210 -263c0 -162 -44 -264 -216 -264zM251 96c63 0 81 46 81 156c0 104 -18 155 -81 155c-62 0 -80 -51 -80 -155c0 -110 18 -156 80 -156zM413 701l-133 -124h-95l92 124h136z" />
    <glyph glyph-name="ocircumflex" unicode="&#xf4;" horiz-adv-x="503" 
d="M248 -12c-171 0 -209 102 -209 264c0 161 44 263 215 263c172 0 210 -102 210 -263c0 -162 -44 -264 -216 -264zM251 96c63 0 81 46 81 156c0 104 -18 155 -81 155c-62 0 -80 -51 -80 -155c0 -110 18 -156 80 -156zM90 577l113 124h100l112 -124h-112l-53 63l-52 -63
h-108z" />
    <glyph glyph-name="odieresis" unicode="&#xf6;" horiz-adv-x="503" 
d="M248 -12c-171 0 -209 102 -209 264c0 161 44 263 215 263c172 0 210 -102 210 -263c0 -162 -44 -264 -216 -264zM251 96c63 0 81 46 81 156c0 104 -18 155 -81 155c-62 0 -80 -51 -80 -155c0 -110 18 -156 80 -156zM217 577h-116v109h116v-109zM401 577h-115v109h115
v-109z" />
    <glyph glyph-name="ograve" unicode="&#xf2;" horiz-adv-x="503" 
d="M248 -12c-171 0 -209 102 -209 264c0 161 44 263 215 263c172 0 210 -102 210 -263c0 -162 -44 -264 -216 -264zM251 96c63 0 81 46 81 156c0 104 -18 155 -81 155c-62 0 -80 -51 -80 -155c0 -110 18 -156 80 -156zM224 577l-134 124h134l93 -124h-93z" />
    <glyph glyph-name="otilde" unicode="&#xf5;" horiz-adv-x="503" 
d="M248 -12c-171 0 -209 102 -209 264c0 161 44 263 215 263c172 0 210 -102 210 -263c0 -162 -44 -264 -216 -264zM251 96c63 0 81 46 81 156c0 104 -18 155 -81 155c-62 0 -80 -51 -80 -155c0 -110 18 -156 80 -156zM179 577h-69c0 11 -1 103 85 103c53 0 77 -37 109 -37
c25 0 29 32 29 35h68c0 -9 2 -104 -83 -104c-54 0 -79 37 -109 37c-27 0 -30 -32 -30 -34z" />
    <glyph glyph-name="scaron" unicode="&#x161;" horiz-adv-x="451" 
d="M29 23l19 101c45 -12 104 -29 171 -29c49 0 66 12 66 48c0 30 -10 44 -60 59l-24 7c-113 33 -161 66 -161 160c0 113 70 143 169 143c71 0 151 -16 186 -28l-19 -96c-41 9 -102 21 -150 21c-43 0 -58 -14 -58 -40c0 -23 8 -38 61 -54l24 -7c121 -36 161 -73 161 -167
c0 -115 -74 -150 -180 -150c-94 0 -170 22 -205 32zM386 701l-113 -124h-100l-112 124h113l53 -63l51 63h108z" />
    <glyph glyph-name="uacute" unicode="&#xfa;" 
d="M467 503v-467c-57 -25 -139 -45 -207 -45c-120 0 -198 39 -198 189v323h132v-316c0 -62 20 -88 69 -88c33 0 55 7 72 14v390h132zM427 701l-133 -124h-95l92 124h136z" />
    <glyph glyph-name="ucircumflex" unicode="&#xfb;" 
d="M467 503v-467c-57 -25 -139 -45 -207 -45c-120 0 -198 39 -198 189v323h132v-316c0 -62 20 -88 69 -88c33 0 55 7 72 14v390h132zM103 577l113 124h100l112 -124h-112l-53 63l-52 -63h-108z" />
    <glyph glyph-name="udieresis" unicode="&#xfc;" 
d="M467 503v-467c-57 -25 -139 -45 -207 -45c-120 0 -198 39 -198 189v323h132v-316c0 -62 20 -88 69 -88c33 0 55 7 72 14v390h132zM231 577h-116v109h116v-109zM415 577h-115v109h115v-109z" />
    <glyph glyph-name="ugrave" unicode="&#xf9;" 
d="M467 503v-467c-57 -25 -139 -45 -207 -45c-120 0 -198 39 -198 189v323h132v-316c0 -62 20 -88 69 -88c33 0 55 7 72 14v390h132zM238 577l-134 124h134l93 -124h-93z" />
    <glyph glyph-name="yacute" unicode="&#xfd;" 
d="M229 19c-87 0 -167 39 -167 188v296h132v-289c0 -64 19 -87 68 -87c28 0 54 8 73 19v357h132v-489c0 -134 -68 -178 -154 -198c-36 -8 -97 -17 -142 -22l-18 99c52 9 81 13 122 26c43 13 65 34 65 96v29h-2c-25 -13 -64 -25 -109 -25zM426 701l-133 -124h-95l92 124h136z
" />
    <glyph glyph-name="ydieresis" unicode="&#xff;" 
d="M229 19c-87 0 -167 39 -167 188v296h132v-289c0 -64 19 -87 68 -87c28 0 54 8 73 19v357h132v-489c0 -134 -68 -178 -154 -198c-36 -8 -97 -17 -142 -22l-18 99c52 9 81 13 122 26c43 13 65 34 65 96v29h-2c-25 -13 -64 -25 -109 -25zM230 577h-116v109h116v-109z
M414 577h-115v109h115v-109z" />
    <glyph glyph-name="zcaron" unicode="&#x17e;" horiz-adv-x="445" 
d="M38 0v59l194 336h-176v108h347v-56l-196 -339h210v-108h-379zM391 701l-113 -124h-100l-112 124h113l53 -63l51 63h108z" />
    <glyph glyph-name=".null" horiz-adv-x="500" 
 />
    <glyph glyph-name=".null" horiz-adv-x="500" 
 />
    <glyph glyph-name="uniF8FF" unicode="&#xf8ff;" horiz-adv-x="1215" 
d="M216 726l45 44c7 8 15 10 21 10c13 0 23 -10 23 -10l288 -288c22 -22 0 -45 0 -45l-44 -43c-22 -23 -45 0 -45 0l-288 287c-22 23 0 45 0 45zM348 95l155 155c8 8 15 10 22 10c13 0 23 -10 23 -10l44 -44c23 -22 0 -45 0 -45l-155 -154c-22 -23 -45 0 -45 0l-44 43
c-22 23 0 45 0 45zM733 481l109 109c7 7 15 9 21 9c14 0 24 -9 24 -9l45 -45c22 -23 0 -46 0 -46l-110 -108c-22 -22 -45 0 -45 0l-44 44c-22 23 0 46 0 46zM734 208l44 44c8 8 16 10 22 10c13 0 23 -10 23 -10l42 -41c22 -23 0 -45 0 -45l-44 -44c-23 -23 -46 0 -46 0
l-41 41c-22 23 0 45 0 45zM218 -261v-2c0 -22 -14 -29 -39 -29h-72c-2 0 -2 1 -2 3v99c0 2 0 3 2 3h67c27 0 40 -7 40 -26v-3c0 -11 -6 -18 -16 -21c12 -2 20 -9 20 -24zM974 -217v-6c0 -23 -15 -29 -39 -29h-55v-37c0 -2 -1 -3 -3 -3h-9c-2 0 -2 1 -2 3v99c0 2 0 3 2 3h67
c25 0 39 -7 39 -30zM1116 -292h-99c-1 0 -2 1 -2 3v99c0 2 0 3 2 3h96c2 0 3 -1 3 -3l1 -6c0 -2 0 -2 -2 -2h-86v-34h72c2 0 2 0 2 -2v-7c0 -2 0 -3 -2 -3h-72v-36h89c2 0 2 0 2 -2l-1 -7c-1 -2 -1 -3 -3 -3zM524 -292h-10c-1 0 -1 1 -1 3v64c0 24 -13 28 -41 28
c-29 0 -44 -4 -44 -28v-64c0 -2 -1 -3 -3 -3h-9c-2 0 -3 1 -3 3v63c0 34 21 41 57 41h2c36 0 55 -7 55 -41v-63c0 -2 -1 -3 -3 -3zM358 -253v63c0 2 0 3 2 3h10c1 0 2 -1 2 -3v-63c0 -33 -21 -40 -56 -40h-3c-36 0 -54 7 -54 40v63c0 2 1 3 2 3h10c2 0 2 -1 2 -3v-63
c0 -24 13 -28 42 -28c28 0 43 4 43 28zM960 -224v6c0 16 -10 20 -25 20h-55v-42h55c14 0 25 3 25 16zM204 -263v3c0 14 -8 16 -26 16h-59v-36h59c19 0 26 4 26 17zM770 -292h-10c-1 0 -1 1 -1 3v43l-60 56c-1 1 -1 3 2 3h12c2 0 3 -1 5 -2l34 -32l13 -14c4 3 7 6 14 13
l35 32c2 2 3 3 6 3h10c3 0 3 -2 2 -3l-60 -56v-43c0 -2 0 -3 -2 -3zM200 -217v4c0 11 -5 15 -26 15h-55v-34h55c20 0 26 4 26 15zM622 -292h-10c-2 0 -2 1 -2 3v91h-49c-2 0 -3 0 -3 1l1 7c0 2 1 3 2 3h111c2 0 3 -1 3 -3l1 -7c0 -1 0 -1 -2 -1h-50v-91c0 -2 -1 -3 -2 -3z
" />
    <glyph glyph-name="uni00A0" unicode="&#xa0;" horiz-adv-x="224" 
 />
    <glyph glyph-name="uni00AD" unicode="&#xad;" horiz-adv-x="367" 
d="M37 234v104h293v-104h-293z" />
    <glyph glyph-name="hyphen.cap" horiz-adv-x="367" 
d="M37 290v105h293v-105h-293z" />
    <glyph glyph-name="endash.cap" horiz-adv-x="507" 
d="M37 291v104h433v-104h-433z" />
    <glyph glyph-name="emdash.cap" horiz-adv-x="1007" 
d="M37 291v104h933v-104h-933z" />
    <glyph glyph-name="CR" unicode="&#xd;" horiz-adv-x="0" 
 />
    <glyph glyph-name="E.001" horiz-adv-x="479" 
d="M56 200v297c0 168 55 207 213 207c101 0 179 -16 179 -16l-10 -105c-28 2 -85 11 -159 11c-69 0 -90 -19 -90 -93v-86h200v-106h-200v-113c0 -74 21 -93 90 -93c74 0 131 9 159 11l10 -105s-78 -16 -179 -16c-158 0 -213 39 -213 207z" />
    <glyph glyph-name="F.001" horiz-adv-x="471" 
d="M196 501v-105h189v-109h-189v-287h-133v497c0 168 55 207 213 207c101 0 175 -16 175 -16l-10 -105c-27 2 -81 11 -155 11c-69 0 -90 -19 -90 -93z" />
    <glyph glyph-name="L.001" horiz-adv-x="458" 
d="M421 111l12 -107s-68 -11 -153 -11c-158 0 -217 54 -217 214v490h133v-490c0 -81 24 -104 93 -104c67 0 132 8 132 8z" />
    <glyph glyph-name="uni0394" unicode="&#x394;" horiz-adv-x="497" 
d="M15 0l181 697h106l180 -697h-467zM138 98h219l-109 441z" />
    <glyph glyph-name="Delta" unicode="&#x2206;" horiz-adv-x="497" 
d="M15 0l181 697h106l180 -697h-467zM138 98h219l-109 441z" />
    <glyph glyph-name="uni03A9" unicode="&#x3a9;" horiz-adv-x="634" 
d="M24 0v104h112c-34 45 -60 116 -61 272c0 276 99 333 244 333s240 -58 240 -332c0 -158 -26 -228 -61 -273h112v-104h-245v104c42 41 61 105 61 273c0 190 -40 224 -108 224c-69 0 -110 -33 -110 -224c0 -166 20 -231 61 -273v-104h-245z" />
    <glyph glyph-name="Omega" unicode="&#x2126;" horiz-adv-x="634" 
d="M24 0v104h112c-34 45 -60 116 -61 272c0 276 99 333 244 333s240 -58 240 -332c0 -158 -26 -228 -61 -273h112v-104h-245v104c42 41 61 105 61 273c0 190 -40 224 -108 224c-69 0 -110 -33 -110 -224c0 -166 20 -231 61 -273v-104h-245z" />
    <glyph glyph-name="Amacron" unicode="&#x100;" horiz-adv-x="556" 
d="M403 0l-29 157h-195l-28 -157h-136l111 584c19 104 89 125 153 125c63 0 133 -20 152 -124l110 -585h-138zM251 573l-58 -319h166l-58 319c-3 23 -11 29 -24 29s-22 -6 -26 -29zM417 748h-280v78h280v-78z" />
    <glyph glyph-name="Abreve" unicode="&#x102;" horiz-adv-x="556" 
d="M403 0l-29 157h-195l-28 -157h-136l111 584c19 104 89 125 153 125c63 0 133 -20 152 -124l110 -585h-138zM251 573l-58 -319h166l-58 319c-3 23 -11 29 -24 29s-22 -6 -26 -29zM131 868h81c6 -44 28 -58 65 -58s60 14 66 58h83c-14 -91 -65 -125 -148 -125
c-84 0 -134 34 -147 125z" />
    <glyph glyph-name="Aogonek" unicode="&#x104;" horiz-adv-x="556" 
d="M505 -196h-3c-99 0 -162 26 -162 97c0 33 16 69 62 103l-28 153h-195l-28 -157h-136l111 584c19 104 89 125 153 125c63 0 133 -20 152 -124l110 -585h-51c-49 -33 -63 -60 -63 -80c0 -23 12 -40 76 -40h2v-76zM251 573l-58 -319h166l-58 319c-3 23 -11 29 -24 29
s-22 -6 -26 -29z" />
    <glyph glyph-name="Acaron" unicode="&#x1cd;" horiz-adv-x="556" 
d="M403 0l-29 157h-195l-28 -157h-136l111 584c19 104 89 125 153 125c63 0 133 -20 152 -124l110 -585h-138zM251 573l-58 -319h166l-58 319c-3 23 -11 29 -24 29s-22 -6 -26 -29zM439 872l-113 -124h-100l-112 124h113l53 -63l51 63h108z" />
    <glyph glyph-name="Adotaccent" unicode="&#x226;" horiz-adv-x="556" 
d="M403 0l-29 157h-195l-28 -157h-136l111 584c19 104 89 125 153 125c63 0 133 -20 152 -124l110 -585h-138zM251 573l-58 -319h166l-58 319c-3 23 -11 29 -24 29s-22 -6 -26 -29zM341 748h-130v102h130v-102z" />
    <glyph glyph-name="AEacute" unicode="&#x1fc;" horiz-adv-x="749" 
d="M407 0l-25 157h-199l-39 -157h-129l140 563c28 115 84 134 163 134h393v-110h-264l28 -172h186v-106h-169l32 -199h192v-110h-309zM207 256h162l-52 335c-20 0 -30 -8 -37 -36zM620 872l-133 -124h-95l92 124h136z" />
    <glyph glyph-name="AE.001" horiz-adv-x="749" 
d="M387 132l-5 25h-199l-39 -157h-129l140 563c28 115 84 134 163 134h393v-110h-264l29 -172h185v-106h-168l22 -129c9 -55 22 -77 88 -77c59 0 95 5 105 6l10 -107s-51 -9 -122 -9c-116 0 -187 17 -209 139zM207 256h162l-52 335c-20 0 -30 -8 -37 -36z" />
    <glyph glyph-name="AEacute.001" horiz-adv-x="749" 
d="M387 132l-5 25h-199l-39 -157h-129l140 563c28 115 84 134 163 134h393v-110h-264l29 -172h185v-106h-168l22 -129c9 -55 22 -77 88 -77c59 0 95 5 105 6l10 -107s-51 -9 -122 -9c-116 0 -187 17 -209 139zM207 256h162l-52 335c-20 0 -30 -8 -37 -36zM620 872l-133 -124
h-95l92 124h136z" />
    <glyph glyph-name="uni1EAC.001" horiz-adv-x="592" 
d="M69 0v697h133v-281h188v281h133v-697h-133v306h-188v-306h-133z" />
    <glyph glyph-name="Cacute" unicode="&#x106;" horiz-adv-x="477" 
d="M432 118l19 -102c-34 -11 -104 -25 -163 -25c-172 0 -246 77 -246 355c0 250 56 360 248 360c57 0 123 -10 157 -22l-18 -101c-46 8 -81 13 -120 13c-97 0 -134 -31 -134 -250c0 -213 33 -245 135 -245c38 0 81 9 122 17zM444 872l-133 -124h-95l92 124h136z" />
    <glyph glyph-name="Ccircumflex" unicode="&#x108;" horiz-adv-x="477" 
d="M432 118l19 -102c-34 -11 -104 -25 -163 -25c-172 0 -246 77 -246 355c0 250 56 360 248 360c57 0 123 -10 157 -22l-18 -101c-46 8 -81 13 -120 13c-97 0 -134 -31 -134 -250c0 -213 33 -245 135 -245c38 0 81 9 122 17zM120 748l113 124h100l112 -124h-112l-53 63
l-52 -63h-108z" />
    <glyph glyph-name="Ccaron" unicode="&#x10c;" horiz-adv-x="477" 
d="M432 118l19 -102c-34 -11 -104 -25 -163 -25c-172 0 -246 77 -246 355c0 250 56 360 248 360c57 0 123 -10 157 -22l-18 -101c-46 8 -81 13 -120 13c-97 0 -134 -31 -134 -250c0 -213 33 -245 135 -245c38 0 81 9 122 17zM444 872l-113 -124h-100l-112 124h113l53 -63
l51 63h108z" />
    <glyph glyph-name="Cdotaccent" unicode="&#x10a;" horiz-adv-x="477" 
d="M432 118l19 -102c-34 -11 -104 -25 -163 -25c-172 0 -246 77 -246 355c0 250 56 360 248 360c57 0 123 -10 157 -22l-18 -101c-46 8 -81 13 -120 13c-97 0 -134 -31 -134 -250c0 -213 33 -245 135 -245c38 0 81 9 122 17zM346 748h-130v102h130v-102z" />
    <glyph glyph-name="Dcaron" unicode="&#x10e;" horiz-adv-x="566" 
d="M220 0h-151v697h150c248 0 305 -68 305 -347c0 -284 -51 -350 -304 -350zM202 110h27c136 0 163 22 163 241c0 220 -34 236 -162 236h-28v-477zM430 872l-113 -124h-100l-112 124h113l53 -63l51 63h108z" />
    <glyph glyph-name="Dcroat" unicode="&#x110;" horiz-adv-x="566" 
d="M14 320v78h55v299h150c248 0 305 -68 305 -347c0 -284 -51 -350 -304 -350h-151v320h-55zM202 110h27c136 0 163 22 163 241c0 220 -34 236 -162 236h-28v-189h93v-78h-93v-210z" />
    <glyph glyph-name="Ecaron" unicode="&#x11a;" horiz-adv-x="494" 
d="M69 0v697h385v-110h-252v-172h202v-106h-202v-199h258v-110h-391zM424 872l-113 -124h-100l-112 124h113l53 -63l51 63h108z" />
    <glyph glyph-name="Emacron" unicode="&#x112;" horiz-adv-x="494" 
d="M69 0v697h385v-110h-252v-172h202v-106h-202v-199h258v-110h-391zM403 748h-280v78h280v-78z" />
    <glyph glyph-name="Ebreve" unicode="&#x114;" horiz-adv-x="494" 
d="M69 0v697h385v-110h-252v-172h202v-106h-202v-199h258v-110h-391zM117 868h81c6 -44 28 -58 65 -58s60 14 66 58h83c-14 -91 -65 -125 -148 -125c-84 0 -134 34 -147 125z" />
    <glyph glyph-name="Edotaccent" unicode="&#x116;" horiz-adv-x="494" 
d="M69 0v697h385v-110h-252v-172h202v-106h-202v-199h258v-110h-391zM327 748h-130v102h130v-102z" />
    <glyph glyph-name="Eogonek" unicode="&#x118;" horiz-adv-x="494" 
d="M69 0v697h385v-110h-252v-172h202v-106h-202v-199h258v-110h-67c-49 -33 -63 -60 -63 -80c0 -23 12 -40 76 -40h2v-76h-3c-99 0 -162 26 -162 97c0 31 15 66 57 99h-231z" />
    <glyph glyph-name="uni1EB8" unicode="&#x1eb8;" horiz-adv-x="494" 
d="M69 0v697h385v-110h-252v-172h202v-106h-202v-199h258v-110h-391zM319 -178h-122v108h122v-108z" />
    <glyph glyph-name="Egrave.001" horiz-adv-x="479" 
d="M56 200v297c0 168 55 207 213 207c101 0 179 -16 179 -16l-10 -105c-28 2 -85 11 -159 11c-69 0 -90 -19 -90 -93v-86h200v-106h-200v-113c0 -74 21 -93 90 -93c74 0 131 9 159 11l10 -105s-78 -16 -179 -16c-158 0 -213 39 -213 207zM240 748l-134 124h134l93 -124h-93z
" />
    <glyph glyph-name="Eacute.001" horiz-adv-x="479" 
d="M56 200v297c0 168 55 207 213 207c101 0 179 -16 179 -16l-10 -105c-28 2 -85 11 -159 11c-69 0 -90 -19 -90 -93v-86h200v-106h-200v-113c0 -74 21 -93 90 -93c74 0 131 9 159 11l10 -105s-78 -16 -179 -16c-158 0 -213 39 -213 207zM429 872l-133 -124h-95l92 124h136z
" />
    <glyph glyph-name="Ecircumflex.001" horiz-adv-x="479" 
d="M56 200v297c0 168 55 207 213 207c101 0 179 -16 179 -16l-10 -105c-28 2 -85 11 -159 11c-69 0 -90 -19 -90 -93v-86h200v-106h-200v-113c0 -74 21 -93 90 -93c74 0 131 9 159 11l10 -105s-78 -16 -179 -16c-158 0 -213 39 -213 207zM106 748l113 124h100l112 -124h-112
l-53 63l-52 -63h-108z" />
    <glyph glyph-name="Ecaron.001" horiz-adv-x="479" 
d="M56 200v297c0 168 55 207 213 207c101 0 179 -16 179 -16l-10 -105c-28 2 -85 11 -159 11c-69 0 -90 -19 -90 -93v-86h200v-106h-200v-113c0 -74 21 -93 90 -93c74 0 131 9 159 11l10 -105s-78 -16 -179 -16c-158 0 -213 39 -213 207zM429 872l-113 -124h-100l-112 124
h113l53 -63l51 63h108z" />
    <glyph glyph-name="Edieresis.001" horiz-adv-x="479" 
d="M56 200v297c0 168 55 207 213 207c101 0 179 -16 179 -16l-10 -105c-28 2 -85 11 -159 11c-69 0 -90 -19 -90 -93v-86h200v-106h-200v-113c0 -74 21 -93 90 -93c74 0 131 9 159 11l10 -105s-78 -16 -179 -16c-158 0 -213 39 -213 207zM233 748h-116v109h116v-109z
M417 748h-115v109h115v-109z" />
    <glyph glyph-name="Emacron.001" horiz-adv-x="479" 
d="M56 200v297c0 168 55 207 213 207c101 0 179 -16 179 -16l-10 -105c-28 2 -85 11 -159 11c-69 0 -90 -19 -90 -93v-86h200v-106h-200v-113c0 -74 21 -93 90 -93c74 0 131 9 159 11l10 -105s-78 -16 -179 -16c-158 0 -213 39 -213 207zM408 748h-280v78h280v-78z" />
    <glyph glyph-name="Ebreve.001" horiz-adv-x="479" 
d="M56 200v297c0 168 55 207 213 207c101 0 179 -16 179 -16l-10 -105c-28 2 -85 11 -159 11c-69 0 -90 -19 -90 -93v-86h200v-106h-200v-113c0 -74 21 -93 90 -93c74 0 131 9 159 11l10 -105s-78 -16 -179 -16c-158 0 -213 39 -213 207zM122 868h81c6 -44 28 -58 65 -58
s60 14 66 58h83c-14 -91 -65 -125 -148 -125c-84 0 -134 34 -147 125z" />
    <glyph glyph-name="Edotaccent.001" horiz-adv-x="479" 
d="M56 200v297c0 168 55 207 213 207c101 0 179 -16 179 -16l-10 -105c-28 2 -85 11 -159 11c-69 0 -90 -19 -90 -93v-86h200v-106h-200v-113c0 -74 21 -93 90 -93c74 0 131 9 159 11l10 -105s-78 -16 -179 -16c-158 0 -213 39 -213 207zM332 748h-130v102h130v-102z" />
    <glyph glyph-name="Eogonek.001" horiz-adv-x="479" 
d="M409 -194h-3c-99 0 -162 26 -162 97c0 29 12 60 46 90h-21c-158 0 -213 39 -213 207v297c0 168 55 207 213 207c101 0 179 -16 179 -16l-10 -105c-28 2 -85 11 -159 11c-69 0 -90 -19 -90 -93v-86h200v-106h-200v-113c0 -74 21 -93 90 -93c74 0 131 9 159 11l10 -105
s-24 -5 -57 -9c-47 -31 -60 -58 -60 -78c0 -23 12 -40 76 -40h2v-76z" />
    <glyph glyph-name="uni1EB8.001" horiz-adv-x="479" 
d="M56 200v297c0 168 55 207 213 207c101 0 179 -16 179 -16l-10 -105c-28 2 -85 11 -159 11c-69 0 -90 -19 -90 -93v-86h200v-106h-200v-113c0 -74 21 -93 90 -93c74 0 131 9 159 11l10 -105s-78 -16 -179 -16c-158 0 -213 39 -213 207zM321 -178h-122v108h122v-108z" />
    <glyph glyph-name="uni018F" unicode="&#x18f;" horiz-adv-x="543" 
d="M501 347c0 -243 -52 -359 -241 -359c-187 0 -218 115 -218 223c0 137 31 169 164 169c58 0 118 -10 165 -27v16c0 178 -35 229 -124 229c-63 0 -123 -22 -177 -40l-22 99c23 10 112 49 218 49c187 0 235 -115 235 -359zM367 255c-36 15 -84 26 -126 26
c-61 0 -71 -15 -71 -81c0 -63 21 -108 89 -108c76 0 103 58 108 163z" />
    <glyph glyph-name="Gcircumflex" unicode="&#x11c;" horiz-adv-x="536" 
d="M42 351c0 245 56 355 250 355c59 0 143 -14 178 -25l-17 -102c-47 7 -109 17 -147 17c-93 0 -131 -31 -131 -245c0 -219 36 -250 130 -250c25 0 43 3 55 6v266h128v-349c-52 -21 -132 -33 -197 -33c-174 0 -249 77 -249 360zM124 748l113 124h100l112 -124h-112l-53 63
l-52 -63h-108z" />
    <glyph glyph-name="Gbreve" unicode="&#x11e;" horiz-adv-x="536" 
d="M42 351c0 245 56 355 250 355c59 0 143 -14 178 -25l-17 -102c-47 7 -109 17 -147 17c-93 0 -131 -31 -131 -245c0 -219 36 -250 130 -250c25 0 43 3 55 6v266h128v-349c-52 -21 -132 -33 -197 -33c-174 0 -249 77 -249 360zM140 868h81c6 -44 28 -58 65 -58s60 14 66 58
h83c-14 -91 -65 -125 -148 -125c-84 0 -134 34 -147 125z" />
    <glyph glyph-name="Gdotaccent" unicode="&#x120;" horiz-adv-x="536" 
d="M42 351c0 245 56 355 250 355c59 0 143 -14 178 -25l-17 -102c-47 7 -109 17 -147 17c-93 0 -131 -31 -131 -245c0 -219 36 -250 130 -250c25 0 43 3 55 6v266h128v-349c-52 -21 -132 -33 -197 -33c-174 0 -249 77 -249 360zM350 748h-130v102h130v-102z" />
    <glyph glyph-name="uni0122" unicode="&#x122;" horiz-adv-x="536" 
d="M42 351c0 245 56 355 250 355c59 0 143 -14 178 -25l-17 -102c-47 7 -109 17 -147 17c-93 0 -131 -31 -131 -245c0 -219 36 -250 130 -250c25 0 43 3 55 6v266h128v-349c-52 -21 -132 -33 -197 -33c-174 0 -249 77 -249 360zM304 -222h-95c15 43 22 84 24 153h97
c0 -70 -12 -122 -26 -153z" />
    <glyph glyph-name="Hcircumflex" unicode="&#x124;" horiz-adv-x="592" 
d="M69 0v697h133v-281h188v281h133v-697h-133v306h-188v-306h-133zM136 748l113 124h100l112 -124h-112l-53 63l-52 -63h-108z" />
    <glyph glyph-name="Hbar" unicode="&#x126;" horiz-adv-x="600" 
d="M25 516v78h48v103h133v-103h188v103h133v-103h49v-78h-49v-516h-133v306h-188v-306h-133v516h-48zM206 416h188v100h-188v-100z" />
    <glyph glyph-name="Itilde" unicode="&#x128;" horiz-adv-x="270" 
d="M69 0v697h133v-697h-133zM62 748h-69c0 11 -1 103 85 103c53 0 77 -37 109 -37c25 0 29 32 29 35h68c0 -9 2 -104 -83 -104c-54 0 -79 37 -109 37c-27 0 -30 -32 -30 -34z" />
    <glyph glyph-name="Imacron" unicode="&#x12a;" horiz-adv-x="270" 
d="M69 0v697h133v-697h-133zM275 748h-280v78h280v-78z" />
    <glyph glyph-name="Ibreve" unicode="&#x12c;" horiz-adv-x="270" 
d="M69 0v697h133v-697h-133zM-12 868h81c6 -44 28 -58 65 -58s60 14 66 58h83c-14 -91 -65 -125 -148 -125c-84 0 -134 34 -147 125z" />
    <glyph glyph-name="Idotaccent" unicode="&#x130;" horiz-adv-x="270" 
d="M69 0v697h133v-697h-133zM199 748h-130v102h130v-102z" />
    <glyph glyph-name="Iogonek" unicode="&#x12e;" horiz-adv-x="270" 
d="M69 0v697h133v-697h-25l6 -5c-49 -33 -63 -60 -63 -80c0 -23 12 -40 76 -40h2v-76h-3c-99 0 -162 26 -162 97c0 33 16 70 64 104h-28z" />
    <glyph glyph-name="uni01CF" unicode="&#x1cf;" horiz-adv-x="270" 
d="M69 0v697h133v-697h-133zM296 872l-113 -124h-100l-112 124h113l53 -63l51 63h108z" />
    <glyph glyph-name="IJ" unicode="&#x132;" horiz-adv-x="676" 
d="M69 0v697h133v-697h-133zM282 10l17 101c24 -4 60 -10 105 -10c55 0 76 25 76 82v514h133v-516c0 -139 -74 -190 -191 -190c-57 0 -110 10 -140 19z" />
    <glyph glyph-name="Jcircumflex" unicode="&#x134;" horiz-adv-x="406" 
d="M12 10l17 101c24 -4 60 -10 105 -10c55 0 76 25 76 82v514h133v-516c0 -139 -74 -190 -191 -190c-57 0 -110 10 -140 19zM114 748l113 124h100l112 -124h-112l-53 63l-52 -63h-108z" />
    <glyph glyph-name="uni0136" unicode="&#x136;" horiz-adv-x="560" 
d="M202 697v-276c24 -4 46 -9 66 -14l126 290h138l-155 -338c96 -64 137 -177 179 -359h-139c-43 206 -95 292 -215 310v-310h-133v697h133zM326 -222h-95c15 43 22 84 24 153h97c0 -70 -12 -122 -26 -153z" />
    <glyph glyph-name="Lacute" unicode="&#x139;" horiz-adv-x="436" 
d="M69 0v697h133v-587h215v-110h-348zM296 874l-133 -124h-95l92 124h136z" />
    <glyph glyph-name="Lcaron" unicode="&#x13d;" horiz-adv-x="436" 
d="M352 528l-72 31c26 45 34 79 22 138h97c17 -74 -14 -134 -47 -169zM69 0v697h133v-587h215v-110h-348z" />
    <glyph glyph-name="uni013B" unicode="&#x13b;" horiz-adv-x="436" 
d="M69 0v697h133v-587h215v-110h-348zM269 -222h-95c15 43 22 84 24 153h97c0 -70 -12 -122 -26 -153z" />
    <glyph glyph-name="Ldot" unicode="&#x13f;" horiz-adv-x="436" 
d="M69 0v697h133v-587h215v-110h-348zM394 313h-107v106h107v-106z" />
    <glyph glyph-name="Lacute.001" horiz-adv-x="443" 
d="M421 111l12 -107s-68 -11 -153 -11c-158 0 -217 54 -217 214v490h133v-490c0 -81 24 -104 93 -104c67 0 132 8 132 8zM293 872l-133 -124h-95l92 124h136z" />
    <glyph glyph-name="Lcaron.001" horiz-adv-x="443" 
d="M353 528l-72 31c25 45 34 79 22 138h97c16 -74 -15 -134 -47 -169zM421 111l12 -107s-68 -11 -153 -11c-158 0 -217 54 -217 214v490h133v-490c0 -81 24 -104 93 -104c67 0 132 8 132 8z" />
    <glyph glyph-name="uni013B.001" horiz-adv-x="443" 
d="M421 111l12 -107s-68 -11 -153 -11c-158 0 -217 54 -217 214v490h133v-490c0 -81 24 -104 93 -104c67 0 132 8 132 8zM255 -222h-95c15 43 22 84 24 153h97c0 -70 -12 -122 -26 -153z" />
    <glyph glyph-name="Lslash.001" horiz-adv-x="446" 
d="M12 232v94l54 22v349h133v-293l129 55v-94l-129 -55v-103c0 -81 24 -104 93 -104c67 0 132 8 132 8l12 -107s-68 -11 -153 -11c-158 0 -217 54 -217 214v47z" />
    <glyph glyph-name="Ldot.001" horiz-adv-x="443" 
d="M421 111l12 -107s-68 -11 -153 -11c-158 0 -217 54 -217 214v490h133v-490c0 -81 24 -104 93 -104c67 0 132 8 132 8zM388 314h-107v106h107v-106z" />
    <glyph glyph-name="Nacute" unicode="&#x143;" horiz-adv-x="618" 
d="M69 0v697h168c176 -456 194 -539 194 -539h3s-8 139 -8 264v275h123v-697h-168c-175 460 -193 539 -193 539h-4s7 -149 8 -276l1 -263h-124zM474 872l-133 -124h-95l92 124h136z" />
    <glyph glyph-name="Ncaron" unicode="&#x147;" horiz-adv-x="618" 
d="M69 0v697h168c176 -456 194 -539 194 -539h3s-8 139 -8 264v275h123v-697h-168c-175 460 -193 539 -193 539h-4s7 -149 8 -276l1 -263h-124zM474 872l-113 -124h-100l-112 124h113l53 -63l51 63h108z" />
    <glyph glyph-name="uni0145" unicode="&#x145;" horiz-adv-x="618" 
d="M69 0v697h168c176 -456 194 -539 194 -539h3s-8 139 -8 264v275h123v-697h-168c-175 460 -193 539 -193 539h-4s7 -149 8 -276l1 -263h-124zM332 -222h-95c15 43 22 84 24 153h97c0 -70 -12 -122 -26 -153z" />
    <glyph glyph-name="Omacron" unicode="&#x14c;" horiz-adv-x="570" 
d="M42 348c0 252 56 361 246 361s240 -109 240 -362c0 -252 -56 -359 -246 -359c-189 0 -240 108 -240 360zM285 98c89 0 110 68 110 250s-21 251 -110 251c-88 0 -110 -69 -110 -251s22 -250 110 -250zM427 748h-280v78h280v-78z" />
    <glyph glyph-name="Obreve" unicode="&#x14e;" horiz-adv-x="570" 
d="M42 348c0 252 56 361 246 361s240 -109 240 -362c0 -252 -56 -359 -246 -359c-189 0 -240 108 -240 360zM285 98c89 0 110 68 110 250s-21 251 -110 251c-88 0 -110 -69 -110 -251s22 -250 110 -250zM140 868h81c6 -44 28 -58 65 -58s60 14 66 58h83
c-14 -91 -65 -125 -148 -125c-84 0 -134 34 -147 125z" />
    <glyph glyph-name="Ohungarumlaut" unicode="&#x150;" horiz-adv-x="570" 
d="M42 348c0 252 56 361 246 361s240 -109 240 -362c0 -252 -56 -359 -246 -359c-189 0 -240 108 -240 360zM285 98c89 0 110 68 110 250s-21 251 -110 251c-88 0 -110 -69 -110 -251s22 -250 110 -250zM363 872l-126 -124h-68l92 124h102zM509 872l-126 -124h-69l92 124
h103z" />
    <glyph glyph-name="Oslashacute" unicode="&#x1fe;" horiz-adv-x="570" 
d="M42 347c0 252 57 362 246 362c59 0 105 -11 139 -33l37 64l53 -29l-44 -80c41 -58 55 -152 55 -284c0 -252 -56 -359 -246 -359c-64 0 -112 12 -148 38l-37 -68l-53 29l48 84c-37 58 -50 149 -50 276zM285 95c89 0 112 68 112 252c0 63 -3 113 -11 152
c-23 -51 -51 -110 -79 -166l-100 -202c17 -25 42 -36 78 -36zM181 205c23 49 51 107 80 164l99 199c-17 23 -41 34 -75 34c-88 0 -112 -71 -112 -255c0 -59 2 -106 8 -142zM448 872l-133 -124h-95l92 124h136z" />
    <glyph glyph-name="uni1ECC" unicode="&#x1ecc;" horiz-adv-x="570" 
d="M42 348c0 252 56 361 246 361s240 -109 240 -362c0 -252 -56 -359 -246 -359c-189 0 -240 108 -240 360zM285 98c89 0 110 68 110 250s-21 251 -110 251c-88 0 -110 -69 -110 -251s22 -250 110 -250zM345 -176h-122v108h122v-108z" />
    <glyph glyph-name="uni01D1" unicode="&#x1d1;" horiz-adv-x="570" 
d="M42 348c0 252 56 361 246 361s240 -109 240 -362c0 -252 -56 -359 -246 -359c-189 0 -240 108 -240 360zM285 98c89 0 110 68 110 250s-21 251 -110 251c-88 0 -110 -69 -110 -251s22 -250 110 -250zM448 872l-113 -124h-100l-112 124h113l53 -63l51 63h108z" />
    <glyph glyph-name="OE.001" horiz-adv-x="786" 
d="M45 347c0 252 56 362 245 362c59 0 107 -15 141 -42c35 27 85 39 154 39c79 0 168 -13 168 -13l-13 -108c-30 3 -107 11 -152 11c-78 0 -89 -31 -89 -112v-69h199v-106h-199v-98c0 -80 17 -108 89 -108c75 0 125 9 152 11l13 -107s-73 -14 -174 -14
c-64 0 -113 11 -148 38c-35 -27 -86 -43 -147 -43c-189 0 -239 107 -239 359zM366 212v271c0 33 3 61 8 86c-20 20 -51 30 -82 30c-93 0 -114 -68 -114 -252s21 -249 122 -249c34 0 59 11 75 26c-6 25 -9 54 -9 88z" />
    <glyph glyph-name="Racute" unicode="&#x154;" horiz-adv-x="556" 
d="M69 0v697h201c161 0 231 -64 231 -219c0 -91 -42 -148 -105 -177c43 -27 82 -52 145 -301h-139c-56 204 -77 252 -167 252h-33v-252h-133zM202 362h55c81 0 112 32 112 114s-31 111 -108 111h-59v-225zM426 872l-133 -124h-95l92 124h136z" />
    <glyph glyph-name="Rcaron" unicode="&#x158;" horiz-adv-x="556" 
d="M69 0v697h201c161 0 231 -64 231 -219c0 -91 -42 -148 -105 -177c43 -27 82 -52 145 -301h-139c-56 204 -77 252 -167 252h-33v-252h-133zM202 362h55c81 0 112 32 112 114s-31 111 -108 111h-59v-225zM426 872l-113 -124h-100l-112 124h113l53 -63l51 63h108z" />
    <glyph glyph-name="uni0156" unicode="&#x156;" horiz-adv-x="556" 
d="M69 0v697h201c161 0 231 -64 231 -219c0 -91 -42 -148 -105 -177c43 -27 82 -52 145 -301h-139c-56 204 -77 252 -167 252h-33v-252h-133zM202 362h55c81 0 112 32 112 114s-31 111 -108 111h-59v-225zM314 -222h-95c15 43 22 84 24 153h97c0 -70 -12 -122 -26 -153z" />
    <glyph glyph-name="Sacute" unicode="&#x15a;" horiz-adv-x="488" 
d="M33 21l19 106c43 -9 107 -26 168 -26c77 0 101 26 101 89c0 48 -14 80 -82 109l-41 18c-101 43 -156 90 -156 205c0 133 85 184 205 184c71 0 139 -13 178 -25l-22 -103c-47 10 -103 18 -142 18c-58 0 -89 -20 -89 -74c0 -53 29 -73 81 -96l34 -16
c106 -48 164 -88 164 -219c0 -145 -61 -200 -211 -200c-83 0 -168 18 -207 30zM405 872l-133 -124h-95l92 124h136z" />
    <glyph glyph-name="Scircumflex" unicode="&#x15c;" horiz-adv-x="488" 
d="M33 21l19 106c43 -9 107 -26 168 -26c77 0 101 26 101 89c0 48 -14 80 -82 109l-41 18c-101 43 -156 90 -156 205c0 133 85 184 205 184c71 0 139 -13 178 -25l-22 -103c-47 10 -103 18 -142 18c-58 0 -89 -20 -89 -74c0 -53 29 -73 81 -96l34 -16
c106 -48 164 -88 164 -219c0 -145 -61 -200 -211 -200c-83 0 -168 18 -207 30zM82 748l113 124h100l112 -124h-112l-53 63l-52 -63h-108z" />
    <glyph glyph-name="Scedilla" unicode="&#x15e;" horiz-adv-x="488" 
d="M148 -202l14 54s3 -1 8 -2c1 0 3 0 4 -1h4c1 0 2 -1 3 -1l15 -3c2 0 4 0 6 -1l20 -2h6c8 0 15 0 20 1c1 0 2 1 3 1s3 0 4 1c1 0 2 1 3 1c1 1 2 1 2 1c3 2 5 4 7 7c1 3 2 6 2 10c0 2 0 4 -1 6c0 1 -1 3 -1 4c-2 4 -5 7 -9 10c0 1 -1 1 -2 2c-4 3 -9 6 -15 9
c-8 3 -17 7 -24 11l-16 12c-4 5 -8 11 -10 17l-2 7v12c0 6 2 14 6 22l8 16c-71 4 -137 18 -170 29l19 106c43 -9 107 -26 168 -26c77 0 101 26 101 89c0 48 -14 80 -82 109l-41 18c-101 43 -156 90 -156 205c0 133 85 184 205 184c71 0 139 -13 178 -25l-22 -103
c-47 10 -103 18 -142 18c-58 0 -89 -20 -89 -74c0 -53 29 -73 81 -96l34 -16c106 -48 164 -88 164 -219c0 -135 -53 -192 -182 -199v-1c-1 0 -1 -1 -1 -1l-3 -5l-4 -10l-1 -1c0 -2 0 -3 -1 -4v-12l3 -6c4 -6 12 -10 20 -15c5 -2 10 -5 16 -7c8 -5 17 -10 24 -17
c2 -1 4 -3 6 -5c4 -4 7 -10 10 -17l3 -8c1 -1 1 -3 1 -4l2 -10v-6c0 -9 -1 -18 -3 -26c-5 -16 -14 -29 -29 -38l-13 -6l-11 -3c-8 -2 -17 -4 -27 -5c-5 0 -11 -1 -16 -1h-11c-5 0 -10 0 -15 1h-6c-8 1 -16 2 -24 4c-2 0 -3 0 -5 1c-13 2 -23 5 -30 6c-1 1 -2 1 -3 1
c-2 1 -3 1 -3 1z" />
    <glyph glyph-name="uni0218" unicode="&#x218;" horiz-adv-x="488" 
d="M33 21l19 106c43 -9 107 -26 168 -26c77 0 101 26 101 89c0 48 -14 80 -82 109l-41 18c-101 43 -156 90 -156 205c0 133 85 184 205 184c71 0 139 -13 178 -25l-22 -103c-47 10 -103 18 -142 18c-58 0 -89 -20 -89 -74c0 -53 29 -73 81 -96l34 -16
c106 -48 164 -88 164 -219c0 -145 -61 -200 -211 -200c-83 0 -168 18 -207 30zM270 -222h-95c15 43 22 84 24 153h97c0 -70 -12 -122 -26 -153z" />
    <glyph glyph-name="uni1E62" unicode="&#x1e62;" horiz-adv-x="488" 
d="M33 21l19 106c43 -9 107 -26 168 -26c77 0 101 26 101 89c0 48 -14 80 -82 109l-41 18c-101 43 -156 90 -156 205c0 133 85 184 205 184c71 0 139 -13 178 -25l-22 -103c-47 10 -103 18 -142 18c-58 0 -89 -20 -89 -74c0 -53 29 -73 81 -96l34 -16
c106 -48 164 -88 164 -219c0 -145 -61 -200 -211 -200c-83 0 -168 18 -207 30zM309 -177h-122v108h122v-108z" />
    <glyph glyph-name="germandbls.versal" horiz-adv-x="974" 
d="M38 21l19 106c43 -9 107 -26 168 -26c77 0 101 26 101 89c0 48 -14 80 -82 109l-41 18c-101 43 -156 90 -156 205c0 133 85 184 205 184c71 0 139 -13 178 -25l-22 -103c-47 10 -103 18 -142 18c-58 0 -89 -20 -89 -74c0 -53 29 -73 81 -96l34 -16
c106 -48 164 -88 164 -219c0 -145 -61 -200 -211 -200c-83 0 -168 18 -207 30zM519 21l19 106c43 -9 107 -26 168 -26c77 0 101 26 101 89c0 48 -14 80 -82 109l-41 18c-101 43 -156 90 -156 205c0 133 85 184 205 184c71 0 139 -13 178 -25l-22 -103
c-47 10 -103 18 -142 18c-58 0 -89 -20 -89 -74c0 -53 29 -73 81 -96l34 -16c106 -48 164 -88 164 -219c0 -145 -61 -200 -211 -200c-83 0 -168 18 -207 30z" />
    <glyph glyph-name="uni1E9E" unicode="&#x1e9e;" horiz-adv-x="597" 
d="M62 0v437c0 189 48 269 231 269c68 0 137 -10 208 -31v-112c-51 -44 -70 -74 -70 -118c0 -96 131 -83 131 -272c0 -109 -51 -179 -180 -179c-52 0 -103 10 -131 20l24 102c22 -4 54 -13 85 -13c58 0 70 37 70 78c0 123 -129 97 -129 254c0 46 18 97 73 153
c-23 7 -56 10 -79 10c-84 0 -101 -33 -101 -161v-437h-132z" />
    <glyph glyph-name="Tcaron" unicode="&#x164;" horiz-adv-x="464" 
d="M166 0v587h-149v110h430v-110h-148v-587h-133zM396 872l-113 -124h-100l-112 124h113l53 -63l51 63h108z" />
    <glyph glyph-name="uni0162" unicode="&#x162;" horiz-adv-x="464" 
d="M166 0v587h-149v110h430v-110h-148v-587h-31c-1 0 -1 0 -1 -1c-1 -1 -3 -2 -4 -4l-2 -4c-2 -2 -3 -4 -4 -6c-4 -7 -6 -13 -6 -18v-9l2 -4l6 -7c3 -2 6 -5 10 -7l5 -3l13 -6c7 -3 14 -8 21 -13c5 -3 10 -8 14 -13c5 -6 9 -13 11 -22c1 -1 1 -3 1 -4c1 -5 2 -10 2 -16v-8
c0 -1 -1 -2 -1 -4s0 -4 -1 -7c0 -2 -1 -5 -1 -7c-1 -1 -1 -2 -1 -3c-5 -15 -14 -27 -28 -35l-13 -6l-8 -2c-1 -1 -2 -1 -3 -1c-10 -3 -20 -4 -32 -5c-7 -1 -15 -1 -22 -1h-9c-2 0 -4 1 -6 1c-5 0 -10 1 -15 1c-24 3 -46 9 -53 11c-2 1 -3 1 -3 1l14 54s2 -1 5 -1l11 -2
c3 -1 6 -2 9 -2l15 -3c5 0 9 -1 14 -1c2 0 4 -1 6 -1h6c6 0 11 0 16 1c2 0 5 0 7 1c2 0 5 1 7 2l5 3l1 1c1 1 2 2 2 3c0 0 1 0 1 1c1 3 2 6 2 10c0 2 0 4 -1 6c0 2 -1 5 -3 7c-2 3 -5 6 -9 9l-10 6c-9 4 -20 9 -29 14c-15 9 -27 20 -28 40v4c0 7 2 16 6 26c0 1 1 2 1 3l2 3
l2 5c2 4 5 7 8 11c0 1 1 2 1 2h-35z" />
    <glyph glyph-name="Tbar" unicode="&#x166;" horiz-adv-x="464" 
d="M92 352v78h74v157h-149v110h430v-110h-148v-157h74v-78h-74v-352h-133v352h-74z" />
    <glyph glyph-name="uni021A" unicode="&#x21a;" horiz-adv-x="464" 
d="M166 0v587h-149v110h430v-110h-148v-587h-133zM255 -222h-95c15 43 22 84 24 153h97c0 -70 -12 -122 -26 -153z" />
    <glyph glyph-name="Utilde" unicode="&#x168;" horiz-adv-x="580" 
d="M63 187v510h133v-512c0 -53 26 -87 93 -87c69 0 94 34 94 87v512h133v-510c0 -138 -81 -199 -227 -199c-145 0 -226 61 -226 199zM220 748h-69c0 11 -1 103 85 103c53 0 77 -37 109 -37c25 0 29 32 29 35h68c0 -9 2 -104 -83 -104c-54 0 -79 37 -109 37
c-27 0 -30 -32 -30 -34z" />
    <glyph glyph-name="Umacron" unicode="&#x16a;" horiz-adv-x="580" 
d="M63 187v510h133v-512c0 -53 26 -87 93 -87c69 0 94 34 94 87v512h133v-510c0 -138 -81 -199 -227 -199c-145 0 -226 61 -226 199zM433 748h-280v78h280v-78z" />
    <glyph glyph-name="Ubreve" unicode="&#x16c;" horiz-adv-x="580" 
d="M63 187v510h133v-512c0 -53 26 -87 93 -87c69 0 94 34 94 87v512h133v-510c0 -138 -81 -199 -227 -199c-145 0 -226 61 -226 199zM146 868h81c6 -44 28 -58 65 -58s60 14 66 58h83c-14 -91 -65 -125 -148 -125c-84 0 -134 34 -147 125z" />
    <glyph glyph-name="Uring" unicode="&#x16e;" horiz-adv-x="580" 
d="M63 187v510h133v-512c0 -53 26 -87 93 -87c69 0 94 34 94 87v512h133v-510c0 -138 -81 -199 -227 -199c-145 0 -226 61 -226 199zM183 846c0 64 43 105 109 105s109 -41 109 -105s-43 -105 -109 -105s-109 41 -109 105zM245 846c0 -31 18 -50 47 -50c30 0 48 19 48 50
s-18 50 -48 50c-29 0 -47 -19 -47 -50z" />
    <glyph glyph-name="Uhungarumlaut" unicode="&#x170;" horiz-adv-x="580" 
d="M63 187v510h133v-512c0 -53 26 -87 93 -87c69 0 94 34 94 87v512h133v-510c0 -138 -81 -199 -227 -199c-145 0 -226 61 -226 199zM369 872l-126 -124h-68l92 124h102zM515 872l-126 -124h-69l92 124h103z" />
    <glyph glyph-name="Uogonek" unicode="&#x172;" horiz-adv-x="580" 
d="M362 -196h-3c-99 0 -162 26 -162 97c0 28 12 60 45 90c-115 12 -179 73 -179 196v510h133v-512c0 -53 26 -87 93 -87c69 0 94 34 94 87v512h133v-510c0 -124 -65 -186 -183 -197c-38 -28 -49 -52 -49 -70c0 -23 12 -40 76 -40h2v-76z" />
    <glyph glyph-name="uni01D5" unicode="&#x1d5;" horiz-adv-x="580" 
d="M63 187v510h133v-512c0 -53 26 -87 93 -87c69 0 94 34 94 87v512h133v-510c0 -138 -81 -199 -227 -199c-145 0 -226 61 -226 199zM258 749h-106v99h106v-99zM432 749h-105v99h105v-99zM441 883h-296v74h296v-74z" />
    <glyph glyph-name="uni01D7" unicode="&#x1d7;" horiz-adv-x="580" 
d="M63 187v510h133v-512c0 -53 26 -87 93 -87c69 0 94 34 94 87v512h133v-510c0 -138 -81 -199 -227 -199c-145 0 -226 61 -226 199zM258 749h-106v99h106v-99zM432 749h-105v99h105v-99zM466 1007l-134 -124h-95l92 124h137z" />
    <glyph glyph-name="uni01D9" unicode="&#x1d9;" horiz-adv-x="580" 
d="M63 187v510h133v-512c0 -53 26 -87 93 -87c69 0 94 34 94 87v512h133v-510c0 -138 -81 -199 -227 -199c-145 0 -226 61 -226 199zM258 749h-106v99h106v-99zM432 749h-105v99h105v-99zM455 1007l-112 -124h-100l-113 124h113l53 -63l51 63h108z" />
    <glyph glyph-name="uni01DB" unicode="&#x1db;" horiz-adv-x="580" 
d="M63 187v510h133v-512c0 -53 26 -87 93 -87c69 0 94 34 94 87v512h133v-510c0 -138 -81 -199 -227 -199c-145 0 -226 61 -226 199zM258 749h-106v99h106v-99zM432 749h-105v99h105v-99zM254 883l-134 124h135l93 -124h-94z" />
    <glyph glyph-name="uni01D3" unicode="&#x1d3;" horiz-adv-x="580" 
d="M63 187v510h133v-512c0 -53 26 -87 93 -87c69 0 94 34 94 87v512h133v-510c0 -138 -81 -199 -227 -199c-145 0 -226 61 -226 199zM454 872l-113 -124h-100l-112 124h113l53 -63l51 63h108z" />
    <glyph glyph-name="Wgrave" unicode="&#x1e80;" horiz-adv-x="792" 
d="M398 252h-5s-11 -42 -20 -81l-12 -54c-23 -105 -68 -129 -135 -129c-60 0 -120 22 -132 127l-73 582h135l35 -326c17 -149 26 -247 26 -247c2 -21 9 -27 19 -27c11 0 16 6 22 27l77 281l3 287h119l3 -286l78 -282c6 -21 11 -27 22 -27c10 0 17 6 18 27c0 0 10 92 27 243
l36 330h130l-72 -582c-12 -105 -72 -127 -131 -127c-69 0 -113 22 -137 130l-12 52c-10 41 -21 82 -21 82zM372 748l-134 124h134l93 -124h-93z" />
    <glyph glyph-name="Wacute" unicode="&#x1e82;" horiz-adv-x="792" 
d="M398 252h-5s-11 -42 -20 -81l-12 -54c-23 -105 -68 -129 -135 -129c-60 0 -120 22 -132 127l-73 582h135l35 -326c17 -149 26 -247 26 -247c2 -21 9 -27 19 -27c11 0 16 6 22 27l77 281l3 287h119l3 -286l78 -282c6 -21 11 -27 22 -27c10 0 17 6 18 27c0 0 10 92 27 243
l36 330h130l-72 -582c-12 -105 -72 -127 -131 -127c-69 0 -113 22 -137 130l-12 52c-10 41 -21 82 -21 82zM561 872l-133 -124h-95l92 124h136z" />
    <glyph glyph-name="Wdieresis" unicode="&#x1e84;" horiz-adv-x="792" 
d="M398 252h-5s-11 -42 -20 -81l-12 -54c-23 -105 -68 -129 -135 -129c-60 0 -120 22 -132 127l-73 582h135l35 -326c17 -149 26 -247 26 -247c2 -21 9 -27 19 -27c11 0 16 6 22 27l77 281l3 287h119l3 -286l78 -282c6 -21 11 -27 22 -27c10 0 17 6 18 27c0 0 10 92 27 243
l36 330h130l-72 -582c-12 -105 -72 -127 -131 -127c-69 0 -113 22 -137 130l-12 52c-10 41 -21 82 -21 82zM365 748h-116v109h116v-109zM549 748h-115v109h115v-109z" />
    <glyph glyph-name="Wcircumflex" unicode="&#x174;" horiz-adv-x="792" 
d="M398 252h-5s-11 -42 -20 -81l-12 -54c-23 -105 -68 -129 -135 -129c-60 0 -120 22 -132 127l-73 582h135l35 -326c17 -149 26 -247 26 -247c2 -21 9 -27 19 -27c11 0 16 6 22 27l77 281l3 287h119l3 -286l78 -282c6 -21 11 -27 22 -27c10 0 17 6 18 27c0 0 10 92 27 243
l36 330h130l-72 -582c-12 -105 -72 -127 -131 -127c-69 0 -113 22 -137 130l-12 52c-10 41 -21 82 -21 82zM237 748l113 124h100l112 -124h-112l-53 63l-52 -63h-108z" />
    <glyph glyph-name="Ycircumflex" unicode="&#x176;" horiz-adv-x="506" 
d="M185 0v307l-191 390h144l80 -172c16 -38 27 -63 34 -83h3c8 21 21 52 34 81l83 174h141l-195 -391v-306h-133zM92 748l113 124h100l112 -124h-112l-53 63l-52 -63h-108z" />
    <glyph glyph-name="Zacute" unicode="&#x179;" horiz-adv-x="493" 
d="M28 0v61l258 526h-235v110h398v-57l-257 -530h267v-110h-431zM412 872l-133 -124h-95l92 124h136z" />
    <glyph glyph-name="Zdotaccent" unicode="&#x17b;" horiz-adv-x="493" 
d="M28 0v61l258 526h-235v110h398v-57l-257 -530h267v-110h-431zM315 748h-130v102h130v-102z" />
    <glyph glyph-name="Scedilla.alt" horiz-adv-x="488" 
d="M33 21l19 106c43 -9 107 -26 168 -26c77 0 101 26 101 89c0 48 -14 80 -82 109l-41 18c-101 43 -156 90 -156 205c0 133 85 184 205 184c71 0 139 -13 178 -25l-22 -103c-47 10 -103 18 -142 18c-58 0 -89 -20 -89 -74c0 -53 29 -73 81 -96l34 -16
c106 -48 164 -88 164 -219c0 -145 -61 -200 -211 -200c-83 0 -168 18 -207 30zM249 -213h-86s63 68 37 154h101c31 -94 -52 -154 -52 -154z" />
    <glyph glyph-name="Ccedilla.alt" horiz-adv-x="477" 
d="M432 118l19 -102c-34 -11 -104 -25 -163 -25c-172 0 -246 77 -246 355c0 250 56 360 248 360c57 0 123 -10 157 -22l-18 -101c-46 8 -81 13 -120 13c-97 0 -134 -31 -134 -250c0 -213 33 -245 135 -245c38 0 81 9 122 17zM269 -213h-86s63 68 37 154h101
c31 -94 -52 -154 -52 -154z" />
    <glyph glyph-name="Eng" unicode="&#x14a;" horiz-adv-x="616" 
d="M321 -203l-19 100c20 5 42 9 64 15c42 12 62 30 62 88h-48c-175 460 -193 539 -193 539h-4s7 -149 8 -276l1 -263h-124v697h168c176 -456 194 -539 194 -539h3s-8 139 -8 264v275h123v-629h1v-67c0 -130 -48 -169 -141 -189c-35 -7 -54 -10 -87 -15z" />
    <glyph glyph-name="Cacute.loclPLK" horiz-adv-x="477" 
d="M432 118l19 -102c-34 -11 -104 -25 -163 -25c-172 0 -246 77 -246 355c0 250 56 360 248 360c57 0 123 -10 157 -22l-18 -101c-46 8 -81 13 -120 13c-97 0 -134 -31 -134 -250c0 -213 33 -245 135 -245c38 0 81 9 122 17zM393 902l-70 -154h-80l41 154h109z" />
    <glyph glyph-name="Nacute.loclPLK" horiz-adv-x="618" 
d="M69 0v697h168c176 -456 194 -539 194 -539h3s-8 139 -8 264v275h123v-697h-168c-175 460 -193 539 -193 539h-4s7 -149 8 -276l1 -263h-124zM424 902l-70 -154h-80l41 154h109z" />
    <glyph glyph-name="Oacute.loclPLK" horiz-adv-x="570" 
d="M42 348c0 252 56 361 246 361s240 -109 240 -362c0 -252 -56 -359 -246 -359c-189 0 -240 108 -240 360zM285 98c89 0 110 68 110 250s-21 251 -110 251c-88 0 -110 -69 -110 -251s22 -250 110 -250zM397 902l-70 -154h-80l41 154h109z" />
    <glyph glyph-name="Sacute.loclPLK" horiz-adv-x="488" 
d="M33 21l19 106c43 -9 107 -26 168 -26c77 0 101 26 101 89c0 48 -14 80 -82 109l-41 18c-101 43 -156 90 -156 205c0 133 85 184 205 184c71 0 139 -13 178 -25l-22 -103c-47 10 -103 18 -142 18c-58 0 -89 -20 -89 -74c0 -53 29 -73 81 -96l34 -16
c106 -48 164 -88 164 -219c0 -145 -61 -200 -211 -200c-83 0 -168 18 -207 30zM355 902l-70 -154h-80l41 154h109z" />
    <glyph glyph-name="Zacute.loclPLK" horiz-adv-x="493" 
d="M28 0v61l258 526h-235v110h398v-57l-257 -530h267v-110h-431zM362 902l-70 -154h-80l41 154h109z" />
    <glyph glyph-name="a.1" horiz-adv-x="529" 
d="M39 235c0 170 47 277 209 277c66 0 143 -18 203 -41v-319c0 -54 11 -61 58 -52l16 -91c-20 -8 -61 -14 -88 -14c-38 0 -73 12 -92 43h-3c-31 -23 -70 -47 -144 -47c-89 0 -159 49 -159 244zM255 404c-54 0 -84 -23 -84 -167c0 -116 33 -138 69 -138c34 0 67 16 79 26v267
c-15 7 -42 12 -64 12z" />
    <glyph glyph-name="e.1" horiz-adv-x="488" 
d="M39 248c0 165 39 267 216 267c136 0 193 -59 194 -184c0 -31 -3 -67 -9 -107l-270 -1c1 -98 26 -130 100 -130c52 0 92 11 144 26l21 -93c-24 -12 -93 -35 -185 -35c-168 0 -211 83 -211 257zM172 315h144c3 19 4 29 3 41c-2 47 -28 63 -64 63c-52 0 -78 -27 -83 -104z
" />
    <glyph glyph-name="f.001" horiz-adv-x="361" 
d="M91 409h-68v94h68v48c0 134 65 154 152 154c44 0 109 -7 141 -14l-17 -96c-31 4 -63 7 -84 7c-42 0 -61 -6 -61 -61v-38h140l-15 -94h-125v-409h-131v409z" />
    <glyph glyph-name="f.ni" horiz-adv-x="334" 
d="M-32 -206l-19 98c19 4 43 7 64 15c47 14 50 48 50 111v533c0 134 65 154 152 154c44 0 110 -7 141 -14l-17 -96c-31 4 -62 7 -83 7c-43 0 -61 -6 -61 -61v-38h140l-16 -94h-124v-393c0 -146 -48 -187 -141 -207c-34 -7 -54 -10 -86 -15z" />
    <glyph glyph-name="f.001ni" horiz-adv-x="361" 
d="M-5 -206l-19 98c20 4 43 7 65 15c47 14 50 48 50 111v391h-68v94h68v48c0 134 65 154 152 154c44 0 109 -7 141 -14l-17 -96c-31 4 -63 7 -84 7c-42 0 -61 -6 -61 -61v-38h140l-15 -94h-125v-393c0 -146 -47 -187 -141 -207c-34 -7 -53 -10 -86 -15z" />
    <glyph glyph-name="g.1" horiz-adv-x="499" 
d="M248 126h51c111 0 202 -25 202 -130c0 -125 -133 -202 -273 -202c-136 0 -210 54 -210 156c0 66 33 109 79 135c-20 16 -28 37 -28 61c0 35 21 59 61 75c-52 22 -79 70 -79 132c0 122 93 162 204 162c110 0 196 -40 196 -162c0 -98 -84 -148 -203 -163
c-51 -6 -62 -19 -62 -36c0 -20 23 -28 62 -28zM328 353c0 48 -30 70 -76 70s-79 -22 -79 -70c0 -47 32 -70 76 -70c43 0 79 23 79 70zM282 34h-93c-23 -12 -44 -40 -44 -72c0 -40 27 -67 91 -67c77 0 138 38 138 92c0 33 -28 47 -92 47z" />
    <glyph glyph-name="hh" horiz-adv-x="526" 
d="M63 0v503h132v-177h136v177h132v-503h-132v218h-136v-218h-132z" />
    <glyph glyph-name="l.1" horiz-adv-x="258" 
d="M63 0v697h132v-697h-132z" />
    <glyph glyph-name="nn" horiz-adv-x="531" 
d="M63 0v503h404v-503h-131v393h-141v-393h-132z" />
    <glyph glyph-name="r.001" horiz-adv-x="376" 
d="M63 0v471c62 23 132 41 214 41c39 0 72 -5 89 -9l-19 -108c-5 0 -33 4 -60 4c-39 0 -70 -6 -92 -13v-386h-132z" />
    <glyph glyph-name="t.s" horiz-adv-x="366" 
d="M84 140v269h-69v94h70l10 130l121 12v-142h126l-15 -94h-111v-268c0 -37 13 -41 41 -41c20 0 57 8 69 10l17 -99c-18 -7 -69 -18 -119 -18c-97 0 -140 25 -140 147z" />
    <glyph glyph-name="y.1" horiz-adv-x="472" 
d="M229 -25c2 12 5 25 9 38c-8 -3 -17 -4 -29 -4c-70 0 -107 47 -123 128l-70 366h136l57 -356c3 -20 12 -32 28 -32s25 11 29 32l60 356h130l-71 -365l-1 -1l-33 -172c-19 -99 -72 -139 -184 -160l-60 -11l-19 101l47 10c64 13 85 29 94 70z" />
    <glyph glyph-name="uni03BC" unicode="&#x3bc;" horiz-adv-x="506" 
d="M60 503h131v-341c0 -46 16 -63 48 -63c35 0 66 20 89 41v363h132v-503h-116l-8 43h-2c-30 -29 -59 -48 -102 -48c-14 0 -29 2 -44 8c2 -32 3 -62 3 -84v-116h-131v700z" />
    <glyph glyph-name="pi" unicode="&#x3c0;" horiz-adv-x="531" 
d="M63 503h404v-503h-131v400h-141v-400h-132v503z" />
    <glyph glyph-name="amacron" unicode="&#x101;" horiz-adv-x="506" 
d="M444 326v-293c-58 -25 -142 -42 -209 -42c-148 0 -194 60 -194 157c0 87 35 142 146 160c49 7 104 11 130 12v10c0 64 -14 76 -68 76c-44 0 -112 -14 -167 -32l-23 95c34 15 127 43 207 43c108 0 178 -34 178 -186zM317 102v129c-24 -1 -70 -4 -95 -10
c-43 -9 -54 -33 -54 -67c0 -36 14 -63 72 -63c31 0 58 5 77 11zM398 577h-280v78h280v-78z" />
    <glyph glyph-name="abreve" unicode="&#x103;" horiz-adv-x="506" 
d="M444 326v-293c-58 -25 -142 -42 -209 -42c-148 0 -194 60 -194 157c0 87 35 142 146 160c49 7 104 11 130 12v10c0 64 -14 76 -68 76c-44 0 -112 -14 -167 -32l-23 95c34 15 127 43 207 43c108 0 178 -34 178 -186zM317 102v129c-24 -1 -70 -4 -95 -10
c-43 -9 -54 -33 -54 -67c0 -36 14 -63 72 -63c31 0 58 5 77 11zM111 697h81c6 -44 28 -58 65 -58s60 14 66 58h83c-14 -91 -65 -125 -148 -125c-84 0 -134 34 -147 125z" />
    <glyph glyph-name="aogonek" unicode="&#x105;" horiz-adv-x="506" 
d="M444 326v-293c-77 -35 -102 -79 -102 -110c0 -22 7 -42 69 -42h15v-76h-14c-100 0 -158 28 -158 101c0 33 15 62 44 89c-22 -3 -43 -4 -63 -4c-148 0 -194 60 -194 157c0 87 35 142 146 160c49 7 104 11 130 12v10c0 64 -14 76 -68 76c-44 0 -112 -14 -167 -32l-23 95
c34 15 127 43 207 43c108 0 178 -34 178 -186zM317 102v129c-24 -1 -70 -4 -95 -10c-43 -9 -54 -33 -54 -67c0 -36 14 -63 72 -63c31 0 58 5 77 11z" />
    <glyph glyph-name="acaron" unicode="&#x1ce;" horiz-adv-x="506" 
d="M444 326v-293c-58 -25 -142 -42 -209 -42c-148 0 -194 60 -194 157c0 87 35 142 146 160c49 7 104 11 130 12v10c0 64 -14 76 -68 76c-44 0 -112 -14 -167 -32l-23 95c34 15 127 43 207 43c108 0 178 -34 178 -186zM317 102v129c-24 -1 -70 -4 -95 -10
c-43 -9 -54 -33 -54 -67c0 -36 14 -63 72 -63c31 0 58 5 77 11zM419 701l-113 -124h-100l-112 124h113l53 -63l51 63h108z" />
    <glyph glyph-name="adotaccent" unicode="&#x227;" horiz-adv-x="506" 
d="M444 326v-293c-58 -25 -142 -42 -209 -42c-148 0 -194 60 -194 157c0 87 35 142 146 160c49 7 104 11 130 12v10c0 64 -14 76 -68 76c-44 0 -112 -14 -167 -32l-23 95c34 15 127 43 207 43c108 0 178 -34 178 -186zM317 102v129c-24 -1 -70 -4 -95 -10
c-43 -9 -54 -33 -54 -67c0 -36 14 -63 72 -63c31 0 58 5 77 11zM321 577h-130v102h130v-102z" />
    <glyph glyph-name="aeacute" unicode="&#x1fd;" horiz-adv-x="760" 
d="M257 511c67 1 109 -12 135 -55c31 37 78 57 149 57c154 0 182 -101 182 -162c0 -103 -27 -135 -142 -135c-40 0 -99 6 -135 16v-7c1 -99 24 -132 97 -132c51 0 95 10 147 26l21 -93c-25 -12 -96 -35 -188 -35c-75 0 -124 17 -156 51c-45 -34 -98 -51 -162 -51
c-127 0 -164 73 -164 155c0 95 42 144 144 161c42 6 82 11 133 12v11c0 55 -13 76 -68 76c-45 0 -113 -14 -168 -32l-24 95c34 15 121 41 199 42zM315 231c-51 -2 -74 -5 -93 -10c-43 -10 -54 -33 -54 -68c0 -41 18 -62 67 -62c29 0 63 11 91 35c-7 30 -10 65 -11 105z
M542 701l-133 -124h-95l92 124h136zM449 319c23 -8 65 -15 96 -15c41 0 50 16 50 50c0 40 -21 65 -66 65c-46 0 -76 -23 -80 -100z" />
    <glyph glyph-name="agrave.1" horiz-adv-x="529" 
d="M39 235c0 170 47 277 209 277c66 0 143 -18 203 -41v-319c0 -54 11 -61 58 -52l16 -91c-20 -8 -61 -14 -88 -14c-38 0 -73 12 -92 43h-3c-31 -23 -70 -47 -144 -47c-89 0 -159 49 -159 244zM255 404c-54 0 -84 -23 -84 -167c0 -116 33 -138 69 -138c34 0 67 16 79 26v267
c-15 7 -42 12 -64 12zM238 577l-134 124h134l93 -124h-93z" />
    <glyph glyph-name="aacute.1" horiz-adv-x="529" 
d="M39 235c0 170 47 277 209 277c66 0 143 -18 203 -41v-319c0 -54 11 -61 58 -52l16 -91c-20 -8 -61 -14 -88 -14c-38 0 -73 12 -92 43h-3c-31 -23 -70 -47 -144 -47c-89 0 -159 49 -159 244zM255 404c-54 0 -84 -23 -84 -167c0 -116 33 -138 69 -138c34 0 67 16 79 26v267
c-15 7 -42 12 -64 12zM427 701l-133 -124h-95l92 124h136z" />
    <glyph glyph-name="acircumflex.1" horiz-adv-x="529" 
d="M39 235c0 170 47 277 209 277c66 0 143 -18 203 -41v-319c0 -54 11 -61 58 -52l16 -91c-20 -8 -61 -14 -88 -14c-38 0 -73 12 -92 43h-3c-31 -23 -70 -47 -144 -47c-89 0 -159 49 -159 244zM255 404c-54 0 -84 -23 -84 -167c0 -116 33 -138 69 -138c34 0 67 16 79 26v267
c-15 7 -42 12 -64 12zM103 577l113 124h100l112 -124h-112l-53 63l-52 -63h-108z" />
    <glyph glyph-name="atilde.1" horiz-adv-x="529" 
d="M39 235c0 170 47 277 209 277c66 0 143 -18 203 -41v-319c0 -54 11 -61 58 -52l16 -91c-20 -8 -61 -14 -88 -14c-38 0 -73 12 -92 43h-3c-31 -23 -70 -47 -144 -47c-89 0 -159 49 -159 244zM255 404c-54 0 -84 -23 -84 -167c0 -116 33 -138 69 -138c34 0 67 16 79 26v267
c-15 7 -42 12 -64 12zM192 577h-69c0 11 -1 103 85 103c53 0 77 -37 109 -37c25 0 29 32 29 35h68c0 -9 2 -104 -83 -104c-54 0 -79 37 -109 37c-27 0 -30 -32 -30 -34z" />
    <glyph glyph-name="adieresis.1" horiz-adv-x="529" 
d="M39 235c0 170 47 277 209 277c66 0 143 -18 203 -41v-319c0 -54 11 -61 58 -52l16 -91c-20 -8 -61 -14 -88 -14c-38 0 -73 12 -92 43h-3c-31 -23 -70 -47 -144 -47c-89 0 -159 49 -159 244zM255 404c-54 0 -84 -23 -84 -167c0 -116 33 -138 69 -138c34 0 67 16 79 26v267
c-15 7 -42 12 -64 12zM231 577h-116v109h116v-109zM415 577h-115v109h115v-109z" />
    <glyph glyph-name="amacron.1" horiz-adv-x="529" 
d="M39 235c0 170 47 277 209 277c66 0 143 -18 203 -41v-319c0 -54 11 -61 58 -52l16 -91c-20 -8 -61 -14 -88 -14c-38 0 -73 12 -92 43h-3c-31 -23 -70 -47 -144 -47c-89 0 -159 49 -159 244zM255 404c-54 0 -84 -23 -84 -167c0 -116 33 -138 69 -138c34 0 67 16 79 26v267
c-15 7 -42 12 -64 12zM406 577h-280v78h280v-78z" />
    <glyph glyph-name="abreve.1" horiz-adv-x="529" 
d="M39 235c0 170 47 277 209 277c66 0 143 -18 203 -41v-319c0 -54 11 -61 58 -52l16 -91c-20 -8 -61 -14 -88 -14c-38 0 -73 12 -92 43h-3c-31 -23 -70 -47 -144 -47c-89 0 -159 49 -159 244zM255 404c-54 0 -84 -23 -84 -167c0 -116 33 -138 69 -138c34 0 67 16 79 26v267
c-15 7 -42 12 -64 12zM119 697h81c6 -44 28 -58 65 -58s60 14 66 58h83c-14 -91 -65 -125 -148 -125c-84 0 -134 34 -147 125z" />
    <glyph glyph-name="aring.1" horiz-adv-x="529" 
d="M39 235c0 170 47 277 209 277c66 0 143 -18 203 -41v-319c0 -54 11 -61 58 -52l16 -91c-20 -8 -61 -14 -88 -14c-38 0 -73 12 -92 43h-3c-31 -23 -70 -47 -144 -47c-89 0 -159 49 -159 244zM255 404c-54 0 -84 -23 -84 -167c0 -116 33 -138 69 -138c34 0 67 16 79 26v267
c-15 7 -42 12 -64 12zM156 675c0 64 43 105 109 105s109 -41 109 -105s-43 -105 -109 -105s-109 41 -109 105zM218 675c0 -31 18 -50 47 -50c30 0 48 19 48 50s-18 50 -48 50c-29 0 -47 -19 -47 -50z" />
    <glyph glyph-name="aogonek.1" horiz-adv-x="529" 
d="M472 -196h-3c-99 0 -162 26 -162 97c0 34 17 72 69 107c-13 7 -23 17 -31 30h-3c-31 -23 -70 -47 -144 -47c-89 0 -159 49 -159 244c0 170 47 277 209 277c66 0 143 -18 203 -41v-319c0 -54 11 -61 58 -52l16 -91c-17 -7 -49 -12 -75 -13c-43 -31 -56 -57 -56 -76
c0 -23 12 -40 76 -40h2v-76zM255 404c-54 0 -84 -23 -84 -167c0 -116 33 -138 69 -138c34 0 67 16 79 26v267c-15 7 -42 12 -64 12z" />
    <glyph glyph-name="acaron.1" horiz-adv-x="529" 
d="M39 235c0 170 47 277 209 277c66 0 143 -18 203 -41v-319c0 -54 11 -61 58 -52l16 -91c-20 -8 -61 -14 -88 -14c-38 0 -73 12 -92 43h-3c-31 -23 -70 -47 -144 -47c-89 0 -159 49 -159 244zM255 404c-54 0 -84 -23 -84 -167c0 -116 33 -138 69 -138c34 0 67 16 79 26v267
c-15 7 -42 12 -64 12zM427 701l-113 -124h-100l-112 124h113l53 -63l51 63h108z" />
    <glyph glyph-name="adotaccent.1" horiz-adv-x="529" 
d="M39 235c0 170 47 277 209 277c66 0 143 -18 203 -41v-319c0 -54 11 -61 58 -52l16 -91c-20 -8 -61 -14 -88 -14c-38 0 -73 12 -92 43h-3c-31 -23 -70 -47 -144 -47c-89 0 -159 49 -159 244zM255 404c-54 0 -84 -23 -84 -167c0 -116 33 -138 69 -138c34 0 67 16 79 26v267
c-15 7 -42 12 -64 12zM329 577h-130v102h130v-102z" />
    <glyph glyph-name="ae.1" horiz-adv-x="762" 
d="M525 -9c-76 0 -126 16 -159 51c-45 -34 -98 -51 -162 -51c-126 0 -164 73 -164 155c0 95 42 144 144 161c42 6 83 11 133 12v11c0 63 -13 76 -68 76c-44 0 -113 -14 -168 -32l-23 95c34 15 128 43 208 43c56 0 94 -13 120 -45c28 30 71 45 143 45c137 0 194 -56 195 -181
c0 -31 -3 -67 -9 -107l-270 -1c1 -98 26 -130 100 -130c52 0 92 11 144 26l21 -93c-25 -12 -93 -35 -185 -35zM325 126c-7 30 -11 65 -11 105c-50 -2 -73 -5 -93 -10c-42 -10 -54 -33 -54 -68c0 -41 19 -62 67 -62c29 0 64 11 91 35zM447 315h144c3 19 4 29 3 41
c-2 47 -29 60 -65 60c-52 0 -77 -24 -82 -101z" />
    <glyph glyph-name="aeacute.1" horiz-adv-x="762" 
d="M525 -9c-76 0 -126 16 -159 51c-45 -34 -98 -51 -162 -51c-126 0 -164 73 -164 155c0 95 42 144 144 161c42 6 83 11 133 12v11c0 63 -13 76 -68 76c-44 0 -113 -14 -168 -32l-23 95c34 15 128 43 208 43c56 0 94 -13 120 -45c28 30 71 45 143 45c137 0 194 -56 195 -181
c0 -31 -3 -67 -9 -107l-270 -1c1 -98 26 -130 100 -130c52 0 92 11 144 26l21 -93c-25 -12 -93 -35 -185 -35zM325 126c-7 30 -11 65 -11 105c-50 -2 -73 -5 -93 -10c-42 -10 -54 -33 -54 -68c0 -41 19 -62 67 -62c29 0 64 11 91 35zM570 700l-133 -124h-95l92 124h136z
M447 315h144c3 19 4 29 3 41c-2 47 -29 60 -65 60c-52 0 -77 -24 -82 -101z" />
    <glyph glyph-name="cacute" unicode="&#x107;" horiz-adv-x="421" 
d="M39 250c0 159 44 262 211 262c41 0 100 -8 138 -21l-19 -100c-25 6 -56 13 -96 13c-77 0 -102 -47 -102 -154c0 -117 25 -151 100 -151c35 0 66 7 99 15l23 -99c-43 -16 -98 -24 -149 -24c-163 0 -205 92 -205 259zM406 701l-133 -124h-95l92 124h136z" />
    <glyph glyph-name="ccircumflex" unicode="&#x109;" horiz-adv-x="421" 
d="M39 250c0 159 44 262 211 262c41 0 100 -8 138 -21l-19 -100c-25 6 -56 13 -96 13c-77 0 -102 -47 -102 -154c0 -117 25 -151 100 -151c35 0 66 7 99 15l23 -99c-43 -16 -98 -24 -149 -24c-163 0 -205 92 -205 259zM82 577l113 124h100l112 -124h-112l-53 63l-52 -63
h-108z" />
    <glyph glyph-name="ccaron" unicode="&#x10d;" horiz-adv-x="421" 
d="M39 250c0 159 44 262 211 262c41 0 100 -8 138 -21l-19 -100c-25 6 -56 13 -96 13c-77 0 -102 -47 -102 -154c0 -117 25 -151 100 -151c35 0 66 7 99 15l23 -99c-43 -16 -98 -24 -149 -24c-163 0 -205 92 -205 259zM406 701l-113 -124h-100l-112 124h113l53 -63l51 63
h108z" />
    <glyph glyph-name="cdotaccent" unicode="&#x10b;" horiz-adv-x="421" 
d="M39 250c0 159 44 262 211 262c41 0 100 -8 138 -21l-19 -100c-25 6 -56 13 -96 13c-77 0 -102 -47 -102 -154c0 -117 25 -151 100 -151c35 0 66 7 99 15l23 -99c-43 -16 -98 -24 -149 -24c-163 0 -205 92 -205 259zM309 577h-130v102h130v-102z" />
    <glyph glyph-name="dcaron" unicode="&#x10f;" horiz-adv-x="597" 
d="M567 528l-71 31c25 45 34 79 21 138h98c16 -74 -15 -134 -48 -169zM39 250c0 157 53 262 194 262c39 0 71 -7 86 -11h3s-3 36 -3 107v89h132v-664c-60 -25 -128 -42 -193 -42c-154 0 -219 64 -219 259zM319 110v283c-17 6 -44 11 -64 11c-55 0 -84 -29 -84 -155
c0 -111 24 -150 88 -150c23 0 44 4 60 11z" />
    <glyph glyph-name="dcroat" unicode="&#x111;" horiz-adv-x="514" 
d="M210 559v69h109v69h132v-69h41v-69h-41v-526c-60 -25 -128 -42 -193 -42c-154 0 -219 64 -219 259c0 157 53 262 194 262c39 0 71 -7 86 -11h3s-2 20 -3 58h-109zM319 110v283c-17 6 -44 11 -64 11c-55 0 -84 -29 -84 -155c0 -111 24 -150 88 -150c23 0 44 4 60 11z" />
    <glyph glyph-name="ecaron" unicode="&#x11b;" horiz-adv-x="484" 
d="M39 251c0 162 40 264 217 264c165 0 191 -103 191 -164c0 -103 -22 -135 -144 -135c-34 0 -97 6 -133 16v-7c1 -99 25 -132 97 -132c51 0 95 10 147 26l21 -93c-24 -12 -96 -35 -188 -35c-165 0 -208 83 -208 260zM417 701l-113 -124h-100l-112 124h113l53 -63l51 63h108
zM173 319c24 -8 65 -15 96 -15c45 0 50 19 50 50c0 40 -21 65 -66 65c-46 0 -76 -23 -80 -100z" />
    <glyph glyph-name="emacron" unicode="&#x113;" horiz-adv-x="484" 
d="M39 251c0 162 40 264 217 264c165 0 191 -103 191 -164c0 -103 -22 -135 -144 -135c-34 0 -97 6 -133 16v-7c1 -99 25 -132 97 -132c51 0 95 10 147 26l21 -93c-24 -12 -96 -35 -188 -35c-165 0 -208 83 -208 260zM396 577h-280v78h280v-78zM173 319c24 -8 65 -15 96 -15
c45 0 50 19 50 50c0 40 -21 65 -66 65c-46 0 -76 -23 -80 -100z" />
    <glyph glyph-name="ebreve" unicode="&#x115;" horiz-adv-x="484" 
d="M39 251c0 162 40 264 217 264c165 0 191 -103 191 -164c0 -103 -22 -135 -144 -135c-34 0 -97 6 -133 16v-7c1 -99 25 -132 97 -132c51 0 95 10 147 26l21 -93c-24 -12 -96 -35 -188 -35c-165 0 -208 83 -208 260zM109 697h81c6 -44 28 -58 65 -58s60 14 66 58h83
c-14 -91 -65 -125 -148 -125c-84 0 -134 34 -147 125zM173 319c24 -8 65 -15 96 -15c45 0 50 19 50 50c0 40 -21 65 -66 65c-46 0 -76 -23 -80 -100z" />
    <glyph glyph-name="edotaccent" unicode="&#x117;" horiz-adv-x="484" 
d="M39 251c0 162 40 264 217 264c165 0 191 -103 191 -164c0 -103 -22 -135 -144 -135c-34 0 -97 6 -133 16v-7c1 -99 25 -132 97 -132c51 0 95 10 147 26l21 -93c-24 -12 -96 -35 -188 -35c-165 0 -208 83 -208 260zM173 319c24 -8 65 -15 96 -15c45 0 50 19 50 50
c0 40 -21 65 -66 65c-46 0 -76 -23 -80 -100zM319 577h-130v102h130v-102z" />
    <glyph glyph-name="eogonek" unicode="&#x119;" horiz-adv-x="484" 
d="M39 251c0 162 40 264 217 264c165 0 191 -103 191 -164c0 -103 -22 -135 -144 -135c-34 0 -97 6 -133 16v-7c1 -99 25 -132 97 -132c51 0 95 10 147 26l21 -93c-68 -34 -90 -72 -90 -103c0 -22 7 -42 69 -42h16v-76h-14c-100 0 -158 28 -158 101c0 32 14 61 42 88
c-17 -2 -35 -3 -53 -3c-165 0 -208 83 -208 260zM173 319c24 -8 65 -15 96 -15c45 0 50 19 50 50c0 40 -21 65 -66 65c-46 0 -76 -23 -80 -100z" />
    <glyph glyph-name="uni1EB9" unicode="&#x1eb9;" horiz-adv-x="484" 
d="M39 251c0 162 40 264 217 264c165 0 191 -103 191 -164c0 -103 -22 -135 -144 -135c-34 0 -97 6 -133 16v-7c1 -99 25 -132 97 -132c51 0 95 10 147 26l21 -93c-24 -12 -96 -35 -188 -35c-165 0 -208 83 -208 260zM173 319c24 -8 65 -15 96 -15c45 0 50 19 50 50
c0 40 -21 65 -66 65c-46 0 -76 -23 -80 -100zM308 -178h-122v108h122v-108z" />
    <glyph glyph-name="egrave.1" horiz-adv-x="488" 
d="M39 248c0 165 39 267 216 267c136 0 193 -59 194 -184c0 -31 -3 -67 -9 -107l-270 -1c1 -98 26 -130 100 -130c52 0 92 11 144 26l21 -93c-24 -12 -93 -35 -185 -35c-168 0 -211 83 -211 257zM172 315h144c3 19 4 29 3 41c-2 47 -28 63 -64 63c-52 0 -78 -27 -83 -104z
M227 577l-134 124h134l93 -124h-93z" />
    <glyph glyph-name="eacute.1" horiz-adv-x="488" 
d="M39 248c0 165 39 267 216 267c136 0 193 -59 194 -184c0 -31 -3 -67 -9 -107l-270 -1c1 -98 26 -130 100 -130c52 0 92 11 144 26l21 -93c-24 -12 -93 -35 -185 -35c-168 0 -211 83 -211 257zM172 315h144c3 19 4 29 3 41c-2 47 -28 63 -64 63c-52 0 -78 -27 -83 -104z
M416 701l-133 -124h-95l92 124h136z" />
    <glyph glyph-name="ecircumflex.1" horiz-adv-x="488" 
d="M39 248c0 165 39 267 216 267c136 0 193 -59 194 -184c0 -31 -3 -67 -9 -107l-270 -1c1 -98 26 -130 100 -130c52 0 92 11 144 26l21 -93c-24 -12 -93 -35 -185 -35c-168 0 -211 83 -211 257zM172 315h144c3 19 4 29 3 41c-2 47 -28 63 -64 63c-52 0 -78 -27 -83 -104z
M92 577l113 124h100l112 -124h-112l-53 63l-52 -63h-108z" />
    <glyph glyph-name="ecaron.1" horiz-adv-x="488" 
d="M39 248c0 165 39 267 216 267c136 0 193 -59 194 -184c0 -31 -3 -67 -9 -107l-270 -1c1 -98 26 -130 100 -130c52 0 92 11 144 26l21 -93c-24 -12 -93 -35 -185 -35c-168 0 -211 83 -211 257zM172 315h144c3 19 4 29 3 41c-2 47 -28 63 -64 63c-52 0 -78 -27 -83 -104z
M416 701l-113 -124h-100l-112 124h113l53 -63l51 63h108z" />
    <glyph glyph-name="edieresis.1" horiz-adv-x="488" 
d="M39 248c0 165 39 267 216 267c136 0 193 -59 194 -184c0 -31 -3 -67 -9 -107l-270 -1c1 -98 26 -130 100 -130c52 0 92 11 144 26l21 -93c-24 -12 -93 -35 -185 -35c-168 0 -211 83 -211 257zM172 315h144c3 19 4 29 3 41c-2 47 -28 63 -64 63c-52 0 -78 -27 -83 -104z
M220 577h-116v109h116v-109zM404 577h-115v109h115v-109z" />
    <glyph glyph-name="emacron.1" horiz-adv-x="488" 
d="M39 248c0 165 39 267 216 267c136 0 193 -59 194 -184c0 -31 -3 -67 -9 -107l-270 -1c1 -98 26 -130 100 -130c52 0 92 11 144 26l21 -93c-24 -12 -93 -35 -185 -35c-168 0 -211 83 -211 257zM172 315h144c3 19 4 29 3 41c-2 47 -28 63 -64 63c-52 0 -78 -27 -83 -104z
M395 577h-280v78h280v-78z" />
    <glyph glyph-name="ebreve.1" horiz-adv-x="488" 
d="M39 248c0 165 39 267 216 267c136 0 193 -59 194 -184c0 -31 -3 -67 -9 -107l-270 -1c1 -98 26 -130 100 -130c52 0 92 11 144 26l21 -93c-24 -12 -93 -35 -185 -35c-168 0 -211 83 -211 257zM172 315h144c3 19 4 29 3 41c-2 47 -28 63 -64 63c-52 0 -78 -27 -83 -104z
M108 697h81c6 -44 28 -58 65 -58s60 14 66 58h83c-14 -91 -65 -125 -148 -125c-84 0 -134 34 -147 125z" />
    <glyph glyph-name="edotaccent.1" horiz-adv-x="488" 
d="M39 248c0 165 39 267 216 267c136 0 193 -59 194 -184c0 -31 -3 -67 -9 -107l-270 -1c1 -98 26 -130 100 -130c52 0 92 11 144 26l21 -93c-24 -12 -93 -35 -185 -35c-168 0 -211 83 -211 257zM172 315h144c3 19 4 29 3 41c-2 47 -28 63 -64 63c-52 0 -78 -27 -83 -104z
M319 577h-130v102h130v-102z" />
    <glyph glyph-name="eogonek.1" horiz-adv-x="488" 
d="M39 248c0 165 39 267 216 267c136 0 193 -59 194 -184c0 -31 -3 -67 -9 -107l-270 -1c1 -98 26 -130 100 -130c52 0 92 11 144 26l21 -93c-68 -34 -90 -72 -90 -103c0 -22 7 -42 69 -42h16v-76h-14c-100 0 -158 28 -158 101c0 32 14 61 42 88c-16 -2 -33 -3 -50 -3
c-168 0 -211 83 -211 257zM172 315h144c3 19 4 29 3 41c-2 47 -28 63 -64 63c-52 0 -78 -27 -83 -104z" />
    <glyph glyph-name="uni1EB9.1" horiz-adv-x="488" 
d="M39 248c0 165 39 267 216 267c136 0 193 -59 194 -184c0 -31 -3 -67 -9 -107l-270 -1c1 -98 26 -130 100 -130c52 0 92 11 144 26l21 -93c-24 -12 -93 -35 -185 -35c-168 0 -211 83 -211 257zM172 315h144c3 19 4 29 3 41c-2 47 -28 63 -64 63c-52 0 -78 -27 -83 -104z
M310 -178h-122v108h122v-108z" />
    <glyph glyph-name="uni0259" unicode="&#x259;" horiz-adv-x="484" 
d="M445 251c0 -162 -41 -263 -217 -263c-165 0 -191 94 -191 167c0 109 23 132 142 132c40 0 98 -7 135 -17v8c-1 99 -25 132 -98 132c-50 0 -94 -10 -147 -26l-20 93c24 12 96 35 187 35c166 0 209 -84 209 -261zM311 184c-24 7 -66 15 -97 15c-43 0 -49 -16 -49 -50
c0 -40 21 -65 66 -65c46 0 76 23 80 100z" />
    <glyph glyph-name="gcircumflex" unicode="&#x11d;" horiz-adv-x="514" 
d="M156 -206l-19 98c50 8 83 15 122 27c43 12 65 32 65 93v32h-2c-25 -13 -60 -25 -112 -25c-92 0 -171 52 -171 226c0 160 49 267 208 267c67 0 144 -18 204 -41v-462c0 -128 -67 -173 -154 -193c-36 -7 -96 -17 -141 -22zM171 252c0 -95 31 -125 75 -125c29 0 53 7 73 18
v248c-15 6 -40 11 -64 11c-53 0 -84 -27 -84 -152zM99 577l113 124h100l112 -124h-112l-53 63l-52 -63h-108z" />
    <glyph glyph-name="gbreve" unicode="&#x11f;" horiz-adv-x="514" 
d="M156 -206l-19 98c50 8 83 15 122 27c43 12 65 32 65 93v32h-2c-25 -13 -60 -25 -112 -25c-92 0 -171 52 -171 226c0 160 49 267 208 267c67 0 144 -18 204 -41v-462c0 -128 -67 -173 -154 -193c-36 -7 -96 -17 -141 -22zM171 252c0 -95 31 -125 75 -125c29 0 53 7 73 18
v248c-15 6 -40 11 -64 11c-53 0 -84 -27 -84 -152zM115 697h81c6 -44 28 -58 65 -58s60 14 66 58h83c-14 -91 -65 -125 -148 -125c-84 0 -134 34 -147 125z" />
    <glyph glyph-name="gdotaccent" unicode="&#x121;" horiz-adv-x="514" 
d="M156 -206l-19 98c50 8 83 15 122 27c43 12 65 32 65 93v32h-2c-25 -13 -60 -25 -112 -25c-92 0 -171 52 -171 226c0 160 49 267 208 267c67 0 144 -18 204 -41v-462c0 -128 -67 -173 -154 -193c-36 -7 -96 -17 -141 -22zM171 252c0 -95 31 -125 75 -125c29 0 53 7 73 18
v248c-15 6 -40 11 -64 11c-53 0 -84 -27 -84 -152zM325 577h-130v102h130v-102z" />
    <glyph glyph-name="uni0123" unicode="&#x123;" horiz-adv-x="514" 
d="M156 -206l-19 98c50 8 83 15 122 27c43 12 65 32 65 93v32h-2c-25 -13 -60 -25 -112 -25c-92 0 -171 52 -171 226c0 160 49 267 208 267c67 0 144 -18 204 -41v-462c0 -128 -67 -173 -154 -193c-36 -7 -96 -17 -141 -22zM171 252c0 -95 31 -125 75 -125c29 0 53 7 73 18
v248c-15 6 -40 11 -64 11c-53 0 -84 -27 -84 -152zM247 752h95c-19 -43 -31 -99 -32 -175h-97c0 81 18 144 34 175z" />
    <glyph glyph-name="gcircumflex.001" horiz-adv-x="514" 
d="M170 95l-1 2c-58 10 -130 53 -130 185c0 153 77 230 210 230c66 0 141 -15 202 -39v-453c0 -121 -59 -226 -215 -226c-111 0 -174 57 -174 146c0 71 49 122 108 155zM319 186v209c-19 5 -36 9 -61 9c-47 0 -86 -19 -87 -130c-1 -85 34 -121 99 -106c28 0 49 18 49 18z
M324 16v72c-9 -4 -38 -18 -70 -38c-42 -27 -70 -59 -70 -97s25 -56 58 -56c53 0 82 38 82 119zM95 577l113 124h100l112 -124h-112l-53 63l-52 -63h-108z" />
    <glyph glyph-name="gbreve.001" horiz-adv-x="514" 
d="M170 95l-1 2c-58 10 -130 53 -130 185c0 153 77 230 210 230c66 0 141 -15 202 -39v-453c0 -121 -59 -226 -215 -226c-111 0 -174 57 -174 146c0 71 49 122 108 155zM319 186v209c-19 5 -36 9 -61 9c-47 0 -86 -19 -87 -130c-1 -85 34 -121 99 -106c28 0 49 18 49 18z
M324 16v72c-9 -4 -38 -18 -70 -38c-42 -27 -70 -59 -70 -97s25 -56 58 -56c53 0 82 38 82 119zM111 697h81c6 -44 28 -58 65 -58s60 14 66 58h83c-14 -91 -65 -125 -148 -125c-84 0 -134 34 -147 125z" />
    <glyph glyph-name="gdotaccent.001" horiz-adv-x="514" 
d="M170 95l-1 2c-58 10 -130 53 -130 185c0 153 77 230 210 230c66 0 141 -15 202 -39v-453c0 -121 -59 -226 -215 -226c-111 0 -174 57 -174 146c0 71 49 122 108 155zM319 186v209c-19 5 -36 9 -61 9c-47 0 -86 -19 -87 -130c-1 -85 34 -121 99 -106c28 0 49 18 49 18z
M324 16v72c-9 -4 -38 -18 -70 -38c-42 -27 -70 -59 -70 -97s25 -56 58 -56c53 0 82 38 82 119zM321 577h-130v102h130v-102z" />
    <glyph glyph-name="uni0123.001" horiz-adv-x="514" 
d="M170 95l-1 2c-58 10 -130 53 -130 185c0 153 77 230 210 230c66 0 141 -15 202 -39v-453c0 -121 -59 -226 -215 -226c-111 0 -174 57 -174 146c0 71 49 122 108 155zM319 186v209c-19 5 -36 9 -61 9c-47 0 -86 -19 -87 -130c-1 -85 34 -121 99 -106c28 0 49 18 49 18z
M324 16v72c-9 -4 -38 -18 -70 -38c-42 -27 -70 -59 -70 -97s25 -56 58 -56c53 0 82 38 82 119zM242 752h95c-19 -43 -31 -99 -32 -175h-97c0 81 18 144 34 175z" />
    <glyph glyph-name="gcircumflex.1" horiz-adv-x="499" 
d="M248 126h51c111 0 202 -25 202 -130c0 -125 -133 -202 -273 -202c-136 0 -210 54 -210 156c0 66 33 109 79 135c-20 16 -28 37 -28 61c0 35 21 59 61 75c-52 22 -79 70 -79 132c0 122 93 162 204 162c110 0 196 -40 196 -162c0 -98 -84 -148 -203 -163
c-51 -6 -62 -19 -62 -36c0 -20 23 -28 62 -28zM328 353c0 48 -30 70 -76 70s-79 -22 -79 -70c0 -47 32 -70 76 -70c43 0 79 23 79 70zM282 34h-93c-23 -12 -44 -40 -44 -72c0 -40 27 -67 91 -67c77 0 138 38 138 92c0 33 -28 47 -92 47zM89 577l113 124h100l112 -124h-112
l-53 63l-52 -63h-108z" />
    <glyph glyph-name="gbreve.1" horiz-adv-x="499" 
d="M248 126h51c111 0 202 -25 202 -130c0 -125 -133 -202 -273 -202c-136 0 -210 54 -210 156c0 66 33 109 79 135c-20 16 -28 37 -28 61c0 35 21 59 61 75c-52 22 -79 70 -79 132c0 122 93 162 204 162c110 0 196 -40 196 -162c0 -98 -84 -148 -203 -163
c-51 -6 -62 -19 -62 -36c0 -20 23 -28 62 -28zM328 353c0 48 -30 70 -76 70s-79 -22 -79 -70c0 -47 32 -70 76 -70c43 0 79 23 79 70zM282 34h-93c-23 -12 -44 -40 -44 -72c0 -40 27 -67 91 -67c77 0 138 38 138 92c0 33 -28 47 -92 47zM105 697h81c6 -44 28 -58 65 -58
s60 14 66 58h83c-14 -91 -65 -125 -148 -125c-84 0 -134 34 -147 125z" />
    <glyph glyph-name="gdotaccent.1" horiz-adv-x="499" 
d="M248 126h51c111 0 202 -25 202 -130c0 -125 -133 -202 -273 -202c-136 0 -210 54 -210 156c0 66 33 109 79 135c-20 16 -28 37 -28 61c0 35 21 59 61 75c-52 22 -79 70 -79 132c0 122 93 162 204 162c110 0 196 -40 196 -162c0 -98 -84 -148 -203 -163
c-51 -6 -62 -19 -62 -36c0 -20 23 -28 62 -28zM328 353c0 48 -30 70 -76 70s-79 -22 -79 -70c0 -47 32 -70 76 -70c43 0 79 23 79 70zM282 34h-93c-23 -12 -44 -40 -44 -72c0 -40 27 -67 91 -67c77 0 138 38 138 92c0 33 -28 47 -92 47zM315 577h-130v102h130v-102z" />
    <glyph glyph-name="uni0123.1" horiz-adv-x="499" 
d="M248 126h51c111 0 202 -25 202 -130c0 -125 -133 -202 -273 -202c-136 0 -210 54 -210 156c0 66 33 109 79 135c-20 16 -28 37 -28 61c0 35 21 59 61 75c-52 22 -79 70 -79 132c0 122 93 162 204 162c110 0 196 -40 196 -162c0 -98 -84 -148 -203 -163
c-51 -6 -62 -19 -62 -36c0 -20 23 -28 62 -28zM328 353c0 48 -30 70 -76 70s-79 -22 -79 -70c0 -47 32 -70 76 -70c43 0 79 23 79 70zM282 34h-93c-23 -12 -44 -40 -44 -72c0 -40 27 -67 91 -67c77 0 138 38 138 92c0 33 -28 47 -92 47zM237 752h95
c-19 -43 -31 -99 -32 -175h-97c0 81 18 144 34 175z" />
    <glyph glyph-name="hcircumflex" unicode="&#x125;" horiz-adv-x="533" 
d="M63 0v697h132v-122c0 -44 -2 -80 -2 -80h2c21 7 54 17 96 17c99 0 179 -40 179 -186v-326h-131v323c0 57 -20 81 -70 81c-35 0 -64 -12 -74 -15v-389h-132zM100 748l113 124h100l112 -124h-112l-53 63l-52 -63h-108z" />
    <glyph glyph-name="hbar" unicode="&#x127;" horiz-adv-x="533" 
d="M7 568v78h56v51h132v-51h93v-78h-93c0 -41 -2 -73 -2 -73h2c21 7 54 17 96 17c99 0 179 -40 179 -186v-326h-131v323c0 57 -20 81 -70 81c-35 0 -64 -12 -74 -15v-389h-132v568h-56z" />
    <glyph glyph-name="itilde" unicode="&#x129;" horiz-adv-x="263" 
d="M65 0v503h132v-503h-132zM60 577h-69c0 11 -1 103 85 103c53 0 77 -37 109 -37c25 0 29 32 29 35h68c0 -9 2 -104 -83 -104c-54 0 -79 37 -109 37c-27 0 -30 -32 -30 -34z" />
    <glyph glyph-name="imacron" unicode="&#x12b;" horiz-adv-x="263" 
d="M65 0v503h132v-503h-132zM273 577h-280v78h280v-78z" />
    <glyph glyph-name="ibreve" unicode="&#x12d;" horiz-adv-x="263" 
d="M65 0v503h132v-503h-132zM-13 697h81c6 -44 28 -58 65 -58s60 14 66 58h83c-14 -91 -65 -125 -148 -125c-84 0 -134 34 -147 125z" />
    <glyph glyph-name="iogonek" unicode="&#x12f;" horiz-adv-x="263" 
d="M65 0v503h132v-503c-49 -33 -63 -60 -63 -80c0 -23 12 -40 76 -40h2v-76h-3c-99 0 -162 26 -162 97c0 31 15 66 57 99h-39zM63 589v108h137v-108h-137z" />
    <glyph glyph-name="i.TRK" horiz-adv-x="263" 
d="M65 0v503h132v-503h-132zM63 589v108h137v-108h-137z" />
    <glyph glyph-name="uni01D0" unicode="&#x1d0;" horiz-adv-x="263" 
d="M65 0v503h132v-503h-132zM294 701l-113 -124h-100l-112 124h113l53 -63l51 63h108z" />
    <glyph glyph-name="ij" unicode="&#x133;" horiz-adv-x="532" 
d="M239 -206l-20 98c20 4 43 7 65 15c47 14 50 48 50 111v485h132v-487c0 -146 -48 -187 -141 -207c-34 -7 -54 -10 -86 -15zM66 0v503h132v-503h-132zM332 589v108h137v-108h-137zM64 589v108h137v-108h-137z" />
    <glyph glyph-name="dotlessj" unicode="&#x237;" horiz-adv-x="267" 
d="M-26 -206l-20 98c20 4 43 7 65 15c47 14 50 48 50 111v485h132v-487c0 -146 -48 -187 -141 -207c-34 -7 -54 -10 -86 -15z" />
    <glyph glyph-name="jcircumflex" unicode="&#x135;" horiz-adv-x="267" 
d="M-26 -206l-20 98c20 4 43 7 65 15c47 14 50 48 50 111v485h132v-487c0 -146 -48 -187 -141 -207c-34 -7 -54 -10 -86 -15zM-26 577l113 124h100l112 -124h-112l-53 63l-52 -63h-108z" />
    <glyph glyph-name="uni0137" unicode="&#x137;" horiz-adv-x="519" 
d="M195 697v-379c106 9 136 59 156 185h132c-17 -114 -44 -188 -104 -233l148 -270h-144l-116 222c-22 -4 -46 -8 -72 -10v-212h-132v697h132zM294 -222h-95c15 43 22 84 24 153h97c0 -70 -12 -122 -26 -153z" />
    <glyph glyph-name="uni0137.002" horiz-adv-x="560" 
d="M195 0h-132v697h132v-227s70 42 164 42c106 0 144 -55 145 -123c1 -59 -22 -122 -115 -177l25 -43c25 -46 43 -69 81 -69c15 0 27 3 38 8l30 -88c-22 -13 -55 -25 -98 -25c-63 0 -105 24 -158 123l-68 125c109 46 139 86 139 125c0 26 -19 38 -49 38
c-69 0 -134 -38 -134 -38v-368zM306 -222h-95c15 43 22 84 24 153h97c0 -70 -12 -122 -26 -153z" />
    <glyph glyph-name="lacute" unicode="&#x13a;" horiz-adv-x="293" 
d="M262 103l13 -100c-19 -6 -56 -12 -96 -12c-75 0 -116 26 -116 146v560h132v-554c0 -38 12 -44 32 -44c15 0 28 2 35 4zM291 872l-133 -124h-95l92 124h136z" />
    <glyph glyph-name="lcaron" unicode="&#x13e;" horiz-adv-x="355" 
d="M309 528l-72 31c25 45 34 79 22 138h97c16 -74 -15 -134 -47 -169zM262 103l13 -100c-19 -6 -56 -12 -96 -12c-75 0 -116 26 -116 146v560h132v-554c0 -38 12 -44 32 -44c15 0 28 2 35 4z" />
    <glyph glyph-name="uni013C" unicode="&#x13c;" horiz-adv-x="293" 
d="M262 103l13 -100c-19 -6 -56 -12 -96 -12c-75 0 -116 26 -116 146v560h132v-554c0 -38 12 -44 32 -44c15 0 28 2 35 4zM184 -222h-95c15 43 22 84 24 153h97c0 -70 -12 -122 -26 -153z" />
    <glyph glyph-name="ldot" unicode="&#x140;" horiz-adv-x="316" 
d="M338 319h-99v98h99v-98zM262 103l13 -100c-19 -6 -56 -12 -96 -12c-75 0 -116 26 -116 146v560h132v-554c0 -38 12 -44 32 -44c15 0 28 2 35 4z" />
    <glyph glyph-name="lacute.1" horiz-adv-x="258" 
d="M63 0v697h132v-697h-132zM290 872l-133 -124h-95l92 124h136z" />
    <glyph glyph-name="lcaron.1" horiz-adv-x="337" 
d="M63 0v697h132v-697h-132zM307 528l-72 31c26 45 34 79 22 138h97c17 -74 -14 -134 -47 -169z" />
    <glyph glyph-name="uni013C.1" horiz-adv-x="258" 
d="M63 0v697h132v-697h-132zM152 -222h-95c15 43 22 84 24 153h97c0 -70 -12 -122 -26 -153z" />
    <glyph glyph-name="lslash.1" horiz-adv-x="268" 
d="M15 261v94l53 23v319h132v-262l57 25v-94l-57 -25v-341h-132v284z" />
    <glyph glyph-name="ldot.1" horiz-adv-x="317" 
d="M339 317h-100v99h100v-99zM63 0v697h132v-697h-132z" />
    <glyph glyph-name="nacute" unicode="&#x144;" horiz-adv-x="533" 
d="M63 0v471c62 24 144 41 208 41c128 0 199 -40 199 -186v-326h-131v323c0 57 -20 81 -70 81c-35 0 -64 -9 -74 -12v-392h-132zM428 701l-133 -124h-95l92 124h136z" />
    <glyph glyph-name="ncaron" unicode="&#x148;" horiz-adv-x="533" 
d="M63 0v471c62 24 144 41 208 41c128 0 199 -40 199 -186v-326h-131v323c0 57 -20 81 -70 81c-35 0 -64 -9 -74 -12v-392h-132zM428 701l-113 -124h-100l-112 124h113l53 -63l51 63h108z" />
    <glyph glyph-name="uni0146" unicode="&#x146;" horiz-adv-x="533" 
d="M63 0v471c62 24 144 41 208 41c128 0 199 -40 199 -186v-326h-131v323c0 57 -20 81 -70 81c-35 0 -64 -9 -74 -12v-392h-132zM289 -222h-95c15 43 22 84 24 153h97c0 -70 -12 -122 -26 -153z" />
    <glyph glyph-name="napostrophe" unicode="&#x149;" horiz-adv-x="533" 
d="M63 0v471c62 24 144 41 208 41c128 0 199 -40 199 -186v-326h-131v323c0 57 -20 81 -70 81c-35 0 -64 -9 -74 -12v-392h-132zM143 577h-95c19 44 31 99 32 175h97c0 -80 -19 -143 -34 -175z" />
    <glyph glyph-name="omacron" unicode="&#x14d;" horiz-adv-x="503" 
d="M248 -12c-171 0 -209 102 -209 264c0 161 44 263 215 263c172 0 210 -102 210 -263c0 -162 -44 -264 -216 -264zM251 96c63 0 81 46 81 156c0 104 -18 155 -81 155c-62 0 -80 -51 -80 -155c0 -110 18 -156 80 -156zM392 577h-280v78h280v-78z" />
    <glyph glyph-name="obreve" unicode="&#x14f;" horiz-adv-x="503" 
d="M248 -12c-171 0 -209 102 -209 264c0 161 44 263 215 263c172 0 210 -102 210 -263c0 -162 -44 -264 -216 -264zM251 96c63 0 81 46 81 156c0 104 -18 155 -81 155c-62 0 -80 -51 -80 -155c0 -110 18 -156 80 -156zM106 697h81c6 -44 28 -58 65 -58s60 14 66 58h83
c-14 -91 -65 -125 -148 -125c-84 0 -134 34 -147 125z" />
    <glyph glyph-name="ohungarumlaut" unicode="&#x151;" horiz-adv-x="503" 
d="M248 -12c-171 0 -209 102 -209 264c0 161 44 263 215 263c172 0 210 -102 210 -263c0 -162 -44 -264 -216 -264zM251 96c63 0 81 46 81 156c0 104 -18 155 -81 155c-62 0 -80 -51 -80 -155c0 -110 18 -156 80 -156zM329 701l-126 -124h-68l92 124h102zM475 701l-126 -124
h-69l92 124h103z" />
    <glyph glyph-name="oslashacute" unicode="&#x1ff;" horiz-adv-x="503" 
d="M247 -12c-52 0 -91 8 -121 23l-35 -53l-50 34l39 58c-32 43 -41 107 -41 194c0 170 44 271 215 271c51 0 91 -9 121 -27l37 56l51 -33l-43 -64c34 -46 44 -116 44 -203c0 -170 -45 -256 -217 -256zM173 164c7 14 25 46 73 121l62 97c-13 18 -32 27 -57 27
c-62 0 -83 -53 -83 -163c0 -34 1 -61 5 -82zM251 94c62 0 84 36 84 152c0 36 -2 67 -8 91c-3 -10 -19 -42 -79 -137l-54 -85c13 -15 31 -21 57 -21zM421 701l-133 -124h-95l92 124h136z" />
    <glyph glyph-name="uni1ECD" unicode="&#x1ecd;" horiz-adv-x="503" 
d="M248 -12c-171 0 -209 102 -209 264c0 161 44 263 215 263c172 0 210 -102 210 -263c0 -162 -44 -264 -216 -264zM251 96c63 0 81 46 81 156c0 104 -18 155 -81 155c-62 0 -80 -51 -80 -155c0 -110 18 -156 80 -156zM311 -178h-122v108h122v-108z" />
    <glyph glyph-name="uni01D2" unicode="&#x1d2;" horiz-adv-x="503" 
d="M248 -12c-171 0 -209 102 -209 264c0 161 44 263 215 263c172 0 210 -102 210 -263c0 -162 -44 -264 -216 -264zM251 96c63 0 81 46 81 156c0 104 -18 155 -81 155c-62 0 -80 -51 -80 -155c0 -110 18 -156 80 -156zM413 701l-113 -124h-100l-112 124h113l53 -63l51 63
h108z" />
    <glyph glyph-name="oe.1" horiz-adv-x="778" 
d="M244 -12c-162 0 -205 104 -205 256c0 170 51 271 206 271c77 0 123 -26 151 -65c30 41 79 65 158 65c124 0 184 -59 185 -185c1 -31 -2 -67 -8 -106l-270 -1c0 -98 26 -130 99 -130c52 0 97 12 149 28l21 -93c-25 -12 -97 -37 -189 -37c-75 0 -121 21 -149 59
c-30 -38 -77 -62 -148 -62zM252 96c61 0 80 41 80 150c0 110 -17 161 -80 161s-81 -51 -81 -161c0 -109 19 -150 81 -150zM463 315h144c3 19 3 29 3 41c-2 47 -29 63 -65 63c-52 0 -77 -27 -82 -104z" />
    <glyph glyph-name="racute" unicode="&#x155;" horiz-adv-x="376" 
d="M365 500l-19 -109s-42 8 -83 8c-52 0 -69 -24 -69 -80v-319h-132v326c0 146 68 186 191 186c62 0 112 -12 112 -12zM376 701l-133 -124h-95l92 124h136z" />
    <glyph glyph-name="uni0157" unicode="&#x157;" horiz-adv-x="376" 
d="M365 500l-19 -109s-42 8 -83 8c-52 0 -69 -24 -69 -80v-319h-132v326c0 146 68 186 191 186c62 0 112 -12 112 -12zM153 -222h-95c15 43 22 84 24 153h97c0 -70 -12 -122 -26 -153z" />
    <glyph glyph-name="rcaron" unicode="&#x159;" horiz-adv-x="376" 
d="M346 391l19 109s-50 12 -112 12c-123 0 -191 -40 -191 -186v-326h132v319c0 56 17 80 69 80c41 0 83 -8 83 -8zM376 701l-113 -124h-100l-112 124h113l53 -63l51 63h108z" />
    <glyph glyph-name="racute.001" horiz-adv-x="376" 
d="M63 0v471c62 23 132 41 214 41c39 0 72 -5 89 -9l-19 -108c-5 0 -33 4 -60 4c-39 0 -70 -6 -92 -13v-386h-132zM374 701l-133 -124h-95l92 124h136z" />
    <glyph glyph-name="uni0157.001" horiz-adv-x="376" 
d="M63 0v471c62 23 132 41 214 41c39 0 72 -5 89 -9l-19 -108c-5 0 -33 4 -60 4c-39 0 -70 -6 -92 -13v-386h-132zM151 -222h-95c15 43 22 84 24 153h97c0 -70 -12 -122 -26 -153z" />
    <glyph glyph-name="rcaron.001" horiz-adv-x="376" 
d="M63 0v471c62 23 132 41 214 41c39 0 72 -5 89 -9l-19 -108c-5 0 -33 4 -60 4c-39 0 -70 -6 -92 -13v-386h-132zM374 701l-113 -124h-100l-112 124h113l53 -63l51 63h108z" />
    <glyph glyph-name="sacute" unicode="&#x15b;" horiz-adv-x="451" 
d="M29 23l19 101c45 -12 104 -29 171 -29c49 0 66 12 66 48c0 30 -10 44 -60 59l-24 7c-113 33 -161 66 -161 160c0 113 70 143 169 143c71 0 151 -16 186 -28l-19 -96c-41 9 -102 21 -150 21c-43 0 -58 -14 -58 -40c0 -23 8 -38 61 -54l24 -7c121 -36 161 -73 161 -167
c0 -115 -74 -150 -180 -150c-94 0 -170 22 -205 32zM386 701l-133 -124h-95l92 124h136z" />
    <glyph glyph-name="scircumflex" unicode="&#x15d;" horiz-adv-x="451" 
d="M29 23l19 101c45 -12 104 -29 171 -29c49 0 66 12 66 48c0 30 -10 44 -60 59l-24 7c-113 33 -161 66 -161 160c0 113 70 143 169 143c71 0 151 -16 186 -28l-19 -96c-41 9 -102 21 -150 21c-43 0 -58 -14 -58 -40c0 -23 8 -38 61 -54l24 -7c121 -36 161 -73 161 -167
c0 -115 -74 -150 -180 -150c-94 0 -170 22 -205 32zM62 577l113 124h100l112 -124h-112l-53 63l-52 -63h-108z" />
    <glyph glyph-name="scedilla" unicode="&#x15f;" horiz-adv-x="451" 
d="M133 -202l14 54s5 -1 12 -3c6 -1 14 -2 22 -4c3 0 7 -1 11 -1c1 0 3 -1 4 -1c6 0 12 -1 17 -1h11c1 0 3 1 5 1c4 0 8 1 11 2c2 0 4 1 5 2l3 2l1 1c1 1 2 2 2 3c0 0 1 0 1 1c1 3 2 6 2 10c0 2 0 4 -1 6c-1 3 -2 6 -4 9c-2 2 -4 4 -6 5c0 1 -1 1 -2 2c-4 3 -9 6 -15 9
c-1 0 -2 0 -3 1c-9 4 -19 8 -27 14l-10 8l-6 8l-3 6c0 1 -1 2 -1 3l-2 7v12c0 4 1 8 2 13c2 5 4 10 7 15l2 5l4 6c-73 6 -131 21 -160 30l19 101c45 -12 104 -29 171 -29c49 0 66 12 66 48c0 30 -10 44 -60 59l-24 7c-113 33 -161 66 -161 160c0 113 70 143 169 143
c71 0 151 -16 186 -28l-19 -96c-41 9 -102 21 -150 21c-43 0 -58 -14 -58 -40c0 -23 8 -38 61 -54l24 -7c121 -36 161 -73 161 -167c0 -108 -65 -145 -160 -149v-1c-2 -2 -3 -4 -4 -6l-4 -10c-1 -1 -1 -2 -1 -3c-1 -3 -1 -6 -1 -9v-5l2 -4c3 -4 6 -8 11 -11l10 -6l6 -3l7 -3
c1 0 2 -1 3 -1c6 -4 12 -7 18 -12c2 -1 4 -3 6 -5c3 -2 6 -5 8 -8c6 -7 10 -15 12 -26c1 -5 2 -10 2 -16v-8c0 -4 -1 -7 -2 -11c0 -2 -1 -5 -1 -7l-6 -15l-4 -5c-2 -3 -3 -6 -6 -8l-7 -6l-12 -7l-7 -3l-8 -2c-6 -2 -13 -4 -21 -5c-4 0 -9 -1 -14 -1c-7 -1 -15 -1 -22 -1
c-5 0 -10 0 -15 1c-10 1 -20 2 -30 4c-23 4 -41 9 -41 9z" />
    <glyph glyph-name="uni0219" unicode="&#x219;" horiz-adv-x="451" 
d="M29 23l19 101c45 -12 104 -29 171 -29c49 0 66 12 66 48c0 30 -10 44 -60 59l-24 7c-113 33 -161 66 -161 160c0 113 70 143 169 143c71 0 151 -16 186 -28l-19 -96c-41 9 -102 21 -150 21c-43 0 -58 -14 -58 -40c0 -23 8 -38 61 -54l24 -7c121 -36 161 -73 161 -167
c0 -115 -74 -150 -180 -150c-94 0 -170 22 -205 32zM246 -222h-95c15 43 22 84 24 153h97c0 -70 -12 -122 -26 -153z" />
    <glyph glyph-name="uni1E63" unicode="&#x1e63;" horiz-adv-x="451" 
d="M29 23l19 101c45 -12 104 -29 171 -29c49 0 66 12 66 48c0 30 -10 44 -60 59l-24 7c-113 33 -161 66 -161 160c0 113 70 143 169 143c71 0 151 -16 186 -28l-19 -96c-41 9 -102 21 -150 21c-43 0 -58 -14 -58 -40c0 -23 8 -38 61 -54l24 -7c121 -36 161 -73 161 -167
c0 -115 -74 -150 -180 -150c-94 0 -170 22 -205 32zM289 -177h-122v108h122v-108z" />
    <glyph glyph-name="tcaron" unicode="&#x165;" horiz-adv-x="350" 
d="M321 563l-72 32c25 45 34 78 22 137h97c16 -74 -15 -133 -47 -169zM63 140v491l132 14v-142h127l-16 -105h-111v-257c0 -37 13 -41 41 -41c26 0 57 8 70 10l16 -99c-17 -7 -68 -18 -118 -18c-98 0 -141 25 -141 147z" />
    <glyph glyph-name="uni0163" unicode="&#x163;" horiz-adv-x="345" 
d="M81 -202l14 54s5 -1 12 -3h4c1 0 2 -1 3 -1c2 -1 4 -1 6 -1l15 -3h5c7 -1 14 -2 21 -2h11c4 0 8 1 12 2c3 0 7 2 9 3l4 3c1 1 2 2 2 3c0 0 1 0 1 1s1 2 1 4c1 2 1 4 1 6v3l-2 7l-3 5c-2 2 -4 4 -6 5c0 1 -1 1 -2 2c-15 11 -40 17 -55 32l-6 8c-3 5 -6 12 -6 20v4
c0 5 0 11 2 17l2 4l3 8l4 8c1 0 1 1 1 2c1 1 2 2 2 3l3 3l2 4c-54 12 -78 49 -78 141v491l132 14v-142h127l-16 -105h-111v-257c0 -37 13 -41 41 -41c26 0 57 8 70 10l16 -99c-17 -7 -68 -18 -118 -18h-1c-2 -2 -3 -4 -4 -6c-1 -1 -1 -3 -2 -5l-4 -8c0 -2 0 -3 -1 -4v-7
c0 -4 1 -8 3 -11c2 -2 3 -4 5 -5c1 -1 2 -2 3 -2l7 -5l5 -3c5 -2 10 -5 16 -7c6 -4 12 -7 18 -12c2 -1 4 -3 6 -5c2 -1 4 -3 6 -5l2 -3c3 -4 6 -9 8 -14l3 -8l3 -14v-6c0 -9 -1 -18 -3 -26l-2 -6l-3 -6c0 -1 -1 -2 -1 -3l-4 -5c-5 -7 -11 -13 -19 -18c-9 -5 -20 -9 -33 -11
l-9 -2c-4 0 -9 -1 -14 -1c-4 0 -8 -1 -11 -1h-11c-17 0 -35 3 -50 6l-30 6c-1 1 -2 1 -3 1c-2 1 -3 1 -3 1z" />
    <glyph glyph-name="tbar" unicode="&#x167;" horiz-adv-x="345" 
d="M6 257v78h57v296l132 14v-142h127l-16 -105h-111v-63h93v-78h-93v-116c0 -37 13 -41 41 -41c26 0 57 8 70 10l16 -99c-17 -7 -68 -18 -118 -18c-98 0 -141 25 -141 147v117h-57z" />
    <glyph glyph-name="uni021B" unicode="&#x21b;" horiz-adv-x="345" 
d="M63 140v491l132 14v-142h127l-16 -105h-111v-257c0 -37 13 -41 41 -41c26 0 57 8 70 10l16 -99c-17 -7 -68 -18 -118 -18c-98 0 -141 25 -141 147zM197 -222h-95c15 43 22 84 24 153h97c0 -70 -12 -122 -26 -153z" />
    <glyph glyph-name="tcaron.s" horiz-adv-x="366" 
d="M338 564l-72 31c25 45 34 78 22 137h97c16 -74 -15 -133 -47 -168zM84 140v269h-69v94h70l10 130l121 12v-142h126l-15 -94h-111v-268c0 -37 13 -41 41 -41c20 0 57 8 69 10l17 -99c-18 -7 -69 -18 -119 -18c-97 0 -140 25 -140 147z" />
    <glyph glyph-name="uni0163.s" horiz-adv-x="368" 
d="M131 -202l14 54s16 -4 34 -7c2 0 4 0 6 -1c5 0 9 -1 14 -1c4 -1 8 -1 12 -1c16 0 28 1 35 7l3 4c1 1 2 3 2 5c1 2 1 4 1 6s0 4 -1 6c0 2 -1 5 -3 7c-8 13 -30 19 -48 29l-6 4l-10 8l-6 8l-4 9c-2 5 -2 10 -2 15c0 3 0 7 1 11c0 3 1 7 3 10l3 8l2 3l2 5c1 0 1 1 1 2
c1 1 2 2 2 3c1 1 2 2 2 3c-72 6 -104 39 -104 145v269h-69v94h70l10 130l121 12v-142h126l-15 -94h-111v-268c0 -37 13 -41 41 -41c20 0 57 8 69 10l17 -99c-15 -6 -50 -14 -89 -17l-3 -4l-2 -3c-1 -1 -1 -3 -2 -5s-3 -5 -3 -7c-1 -2 -1 -4 -2 -5v-12c1 -4 4 -8 8 -11
c4 -4 9 -7 15 -10c11 -5 23 -11 34 -19c2 -1 4 -3 6 -5c3 -2 6 -5 8 -8l5 -6l3 -8c4 -8 6 -17 6 -28v-8c0 -1 -1 -2 -1 -4c0 -5 -1 -9 -2 -14c-1 -1 -1 -2 -1 -3c-1 -3 -2 -6 -4 -9c-1 -3 -3 -6 -5 -8c-3 -5 -8 -10 -13 -14c-6 -4 -12 -7 -19 -10l-8 -2c-1 -1 -2 -1 -3 -1
c-8 -2 -17 -4 -27 -5h-5c-4 0 -8 -1 -11 -1h-20c-2 0 -4 1 -6 1h-6c-33 4 -65 13 -65 13z" />
    <glyph glyph-name="tbar.s" horiz-adv-x="368" 
d="M27 254v78h57v77h-69v94h70l10 130l121 12v-142h126l-15 -94h-111v-77h92v-78h-92v-113c0 -37 13 -41 41 -41c20 0 57 8 69 10l17 -99c-18 -7 -69 -18 -119 -18c-97 0 -140 25 -140 147v114h-57z" />
    <glyph glyph-name="uni021B.s" horiz-adv-x="368" 
d="M84 140v269h-69v94h70l10 130l121 12v-142h126l-15 -94h-111v-268c0 -37 13 -41 41 -41c20 0 57 8 69 10l17 -99c-18 -7 -69 -18 -119 -18c-97 0 -140 25 -140 147zM213 -222h-95c15 43 22 84 24 153h97c0 -70 -12 -122 -26 -153z" />
    <glyph glyph-name="utilde" unicode="&#x169;" 
d="M467 503v-467c-57 -25 -139 -45 -207 -45c-120 0 -198 39 -198 189v323h132v-316c0 -62 20 -88 69 -88c33 0 55 7 72 14v390h132zM192 577h-69c0 11 -1 103 85 103c53 0 77 -37 109 -37c25 0 29 32 29 35h68c0 -9 2 -104 -83 -104c-54 0 -79 37 -109 37
c-27 0 -30 -32 -30 -34z" />
    <glyph glyph-name="umacron" unicode="&#x16b;" 
d="M467 503v-467c-57 -25 -139 -45 -207 -45c-120 0 -198 39 -198 189v323h132v-316c0 -62 20 -88 69 -88c33 0 55 7 72 14v390h132zM406 577h-280v78h280v-78z" />
    <glyph glyph-name="ubreve" unicode="&#x16d;" 
d="M467 503v-467c-57 -25 -139 -45 -207 -45c-120 0 -198 39 -198 189v323h132v-316c0 -62 20 -88 69 -88c33 0 55 7 72 14v390h132zM119 697h81c6 -44 28 -58 65 -58s60 14 66 58h83c-14 -91 -65 -125 -148 -125c-84 0 -134 34 -147 125z" />
    <glyph glyph-name="uring" unicode="&#x16f;" 
d="M467 503v-467c-57 -25 -139 -45 -207 -45c-120 0 -198 39 -198 189v323h132v-316c0 -62 20 -88 69 -88c33 0 55 7 72 14v390h132zM156 675c0 64 43 105 109 105s109 -41 109 -105s-43 -105 -109 -105s-109 41 -109 105zM218 675c0 -31 18 -50 47 -50c30 0 48 19 48 50
s-18 50 -48 50c-29 0 -47 -19 -47 -50z" />
    <glyph glyph-name="uhungarumlaut" unicode="&#x171;" 
d="M467 503v-467c-57 -25 -139 -45 -207 -45c-120 0 -198 39 -198 189v323h132v-316c0 -62 20 -88 69 -88c33 0 55 7 72 14v390h132zM342 701l-126 -124h-68l92 124h102zM488 701l-126 -124h-69l92 124h103z" />
    <glyph glyph-name="uogonek" unicode="&#x173;" 
d="M467 503v-467l-8 -3h8c-67 -36 -101 -79 -101 -113c0 -23 12 -40 76 -40h2v-76h-3c-99 0 -162 26 -162 97c0 32 14 65 58 97c-26 -4 -53 -7 -77 -7c-120 0 -198 39 -198 189v323h132v-316c0 -62 20 -88 69 -88c33 0 55 7 72 14v390h132z" />
    <glyph glyph-name="uni01D4" unicode="&#x1d4;" 
d="M467 503v-467c-57 -25 -139 -45 -207 -45c-120 0 -198 39 -198 189v323h132v-316c0 -62 20 -88 69 -88c33 0 55 7 72 14v390h132zM427 701l-113 -124h-100l-112 124h113l53 -63l51 63h108z" />
    <glyph glyph-name="uni01D6" unicode="&#x1d6;" 
d="M467 503v-467c-57 -25 -139 -45 -207 -45c-120 0 -198 39 -198 189v323h132v-316c0 -62 20 -88 69 -88c33 0 55 7 72 14v390h132zM231 578h-106v99h106v-99zM405 578h-105v99h105v-99zM414 712h-296v74h296v-74z" />
    <glyph glyph-name="uni01D8" unicode="&#x1d8;" 
d="M467 503v-467c-57 -25 -139 -45 -207 -45c-120 0 -198 39 -198 189v323h132v-316c0 -62 20 -88 69 -88c33 0 55 7 72 14v390h132zM231 578h-106v99h106v-99zM405 578h-105v99h105v-99zM439 836l-134 -124h-95l92 124h137z" />
    <glyph glyph-name="uni01DA" unicode="&#x1da;" 
d="M467 503v-467c-57 -25 -139 -45 -207 -45c-120 0 -198 39 -198 189v323h132v-316c0 -62 20 -88 69 -88c33 0 55 7 72 14v390h132zM231 578h-106v99h106v-99zM405 578h-105v99h105v-99zM428 836l-112 -124h-100l-113 124h113l53 -63l51 63h108z" />
    <glyph glyph-name="uni01DC" unicode="&#x1dc;" 
d="M467 503v-467c-57 -25 -139 -45 -207 -45c-120 0 -198 39 -198 189v323h132v-316c0 -62 20 -88 69 -88c33 0 55 7 72 14v390h132zM231 578h-106v99h106v-99zM405 578h-105v99h105v-99zM227 712l-134 124h135l93 -124h-94z" />
    <glyph glyph-name="wgrave" unicode="&#x1e81;" horiz-adv-x="759" 
d="M378 256h5s10 -56 21 -99l12 -46c22 -93 63 -123 132 -123c56 0 107 26 123 122l68 393h-130l-52 -366c-4 -25 -10 -38 -23 -38c-12 0 -16 13 -24 37l-66 249l-4 112h-118l-4 -112l-65 -248c-7 -25 -11 -38 -24 -38c-12 0 -17 13 -21 37l-52 367h-137l67 -391
c17 -98 63 -124 128 -124c70 0 105 32 129 123l14 50c10 38 21 95 21 95zM354 577l-134 124h134l93 -124h-93z" />
    <glyph glyph-name="wacute" unicode="&#x1e83;" horiz-adv-x="759" 
d="M383 256h-5s-11 -57 -21 -95l-14 -50c-24 -91 -59 -123 -129 -123c-65 0 -111 26 -128 124l-67 391h137l52 -367c4 -24 9 -37 21 -37c13 0 17 13 24 38l65 248l4 112h118l4 -112l66 -249c8 -24 12 -37 24 -37c13 0 19 13 23 38l52 366h130l-68 -393
c-16 -96 -67 -122 -123 -122c-69 0 -110 30 -132 123l-12 46c-11 43 -21 99 -21 99zM543 701l-133 -124h-95l92 124h136z" />
    <glyph glyph-name="wdieresis" unicode="&#x1e85;" horiz-adv-x="759" 
d="M378 256h5s10 -56 21 -99l12 -46c22 -93 63 -123 132 -123c56 0 107 26 123 122l68 393h-130l-52 -366c-4 -25 -10 -38 -23 -38c-12 0 -16 13 -24 37l-66 249l-4 112h-118l-4 -112l-65 -248c-7 -25 -11 -38 -24 -38c-12 0 -17 13 -21 37l-52 367h-137l67 -391
c17 -98 63 -124 128 -124c70 0 105 32 129 123l14 50c10 38 21 95 21 95zM347 577h-116v109h116v-109zM531 577h-115v109h115v-109z" />
    <glyph glyph-name="wcircumflex" unicode="&#x175;" horiz-adv-x="759" 
d="M378 256h5s10 -56 21 -99l12 -46c22 -93 63 -123 132 -123c56 0 107 26 123 122l68 393h-130l-52 -366c-4 -25 -10 -38 -23 -38c-12 0 -16 13 -24 37l-66 249l-4 112h-118l-4 -112l-65 -248c-7 -25 -11 -38 -24 -38c-12 0 -17 13 -21 37l-52 367h-137l67 -391
c17 -98 63 -124 128 -124c70 0 105 32 129 123l14 50c10 38 21 95 21 95zM219 577l113 124h100l112 -124h-112l-53 63l-52 -63h-108z" />
    <glyph glyph-name="ycircumflex" unicode="&#x177;" 
d="M229 19c-87 0 -167 39 -167 188v296h132v-289c0 -64 19 -87 68 -87c28 0 54 8 73 19v357h132v-489c0 -134 -68 -178 -154 -198c-36 -8 -97 -17 -142 -22l-18 99c52 9 81 13 122 26c43 13 65 34 65 96v29h-2c-25 -13 -64 -25 -109 -25zM102 577l113 124h100l112 -124h-112
l-53 63l-52 -63h-108z" />
    <glyph glyph-name="yacute.1" horiz-adv-x="472" 
d="M229 -25c2 12 5 25 9 38c-8 -3 -17 -4 -29 -4c-70 0 -107 47 -123 128l-70 366h136l57 -356c3 -20 12 -32 28 -32s25 11 29 32l60 356h130l-71 -365l-1 -1l-33 -172c-19 -99 -72 -139 -184 -160l-60 -11l-19 101l47 10c64 13 85 29 94 70zM399 701l-133 -124h-95l92 124
h136z" />
    <glyph glyph-name="ycircumflex.1" horiz-adv-x="472" 
d="M229 -25c2 12 5 25 9 38c-8 -3 -17 -4 -29 -4c-70 0 -107 47 -123 128l-70 366h136l57 -356c3 -20 12 -32 28 -32s25 11 29 32l60 356h130l-71 -365l-1 -1l-33 -172c-19 -99 -72 -139 -184 -160l-60 -11l-19 101l47 10c64 13 85 29 94 70zM75 577l113 124h100l112 -124
h-112l-53 63l-52 -63h-108z" />
    <glyph glyph-name="ydieresis.1" horiz-adv-x="472" 
d="M229 -25c2 12 5 25 9 38c-8 -3 -17 -4 -29 -4c-70 0 -107 47 -123 128l-70 366h136l57 -356c3 -20 12 -32 28 -32s25 11 29 32l60 356h130l-71 -365l-1 -1l-33 -172c-19 -99 -72 -139 -184 -160l-60 -11l-19 101l47 10c64 13 85 29 94 70zM203 577h-116v109h116v-109z
M387 577h-115v109h115v-109z" />
    <glyph glyph-name="zacute" unicode="&#x17a;" horiz-adv-x="445" 
d="M38 0v59l194 336h-176v108h347v-56l-196 -339h210v-108h-379zM391 701l-133 -124h-95l92 124h136z" />
    <glyph glyph-name="zdotaccent" unicode="&#x17c;" horiz-adv-x="445" 
d="M38 0v59l194 336h-176v108h347v-56l-196 -339h210v-108h-379zM293 577h-130v102h130v-102z" />
    <glyph glyph-name="scedilla.alt" horiz-adv-x="451" 
d="M29 23l19 101c45 -12 104 -29 171 -29c49 0 66 12 66 48c0 30 -10 44 -60 59l-24 7c-113 33 -161 66 -161 160c0 113 70 143 169 143c71 0 151 -16 186 -28l-19 -96c-41 9 -102 21 -150 21c-43 0 -58 -14 -58 -40c0 -23 8 -38 61 -54l24 -7c121 -36 161 -73 161 -167
c0 -115 -74 -150 -180 -150c-94 0 -170 22 -205 32zM227 -213h-86s63 68 37 154h101c31 -94 -52 -154 -52 -154z" />
    <glyph glyph-name="ccedilla.alt" horiz-adv-x="421" 
d="M39 250c0 159 44 262 211 262c41 0 100 -8 138 -21l-19 -100c-25 6 -56 13 -96 13c-77 0 -102 -47 -102 -154c0 -117 25 -151 100 -151c35 0 66 7 99 15l23 -99c-43 -16 -98 -24 -149 -24c-163 0 -205 92 -205 259zM235 -213h-86s63 68 37 154h101
c31 -94 -52 -154 -52 -154z" />
    <glyph glyph-name="eng" unicode="&#x14b;" horiz-adv-x="533" 
d="M243 -203l-19 100c20 5 42 9 64 15c42 12 62 30 62 88h-11v323c0 57 -20 81 -70 81c-35 0 -64 -9 -74 -12v-392h-132v471c62 24 144 41 208 41c128 0 199 -40 199 -186v-258h1v-67c0 -130 -48 -169 -141 -189c-35 -7 -54 -10 -87 -15z" />
    <glyph glyph-name="cacute.loclPLK" horiz-adv-x="421" 
d="M39 250c0 159 44 262 211 262c41 0 100 -8 138 -21l-19 -100c-25 6 -56 13 -96 13c-77 0 -102 -47 -102 -154c0 -117 25 -151 100 -151c35 0 66 7 99 15l23 -99c-43 -16 -98 -24 -149 -24c-163 0 -205 92 -205 259zM354 731l-70 -154h-80l41 154h109z" />
    <glyph glyph-name="nacute.loclPLK" horiz-adv-x="533" 
d="M63 0v471c62 24 144 41 208 41c128 0 199 -40 199 -186v-326h-131v323c0 57 -20 81 -70 81c-35 0 -64 -9 -74 -12v-392h-132zM376 731l-70 -154h-80l41 154h109z" />
    <glyph glyph-name="oacute.loclPLK" horiz-adv-x="503" 
d="M248 -12c-171 0 -209 102 -209 264c0 161 44 263 215 263c172 0 210 -102 210 -263c0 -162 -44 -264 -216 -264zM251 96c63 0 81 46 81 156c0 104 -18 155 -81 155c-62 0 -80 -51 -80 -155c0 -110 18 -156 80 -156zM362 731l-70 -154h-80l41 154h109z" />
    <glyph glyph-name="sacute.loclPLK" horiz-adv-x="451" 
d="M29 23l19 101c45 -12 104 -29 171 -29c49 0 66 12 66 48c0 30 -10 44 -60 59l-24 7c-113 33 -161 66 -161 160c0 113 70 143 169 143c71 0 151 -16 186 -28l-19 -96c-41 9 -102 21 -150 21c-43 0 -58 -14 -58 -40c0 -23 8 -38 61 -54l24 -7c121 -36 161 -73 161 -167
c0 -115 -74 -150 -180 -150c-94 0 -170 22 -205 32zM335 731l-70 -154h-80l41 154h109z" />
    <glyph glyph-name="zacute.loclPLK" horiz-adv-x="445" 
d="M38 0v59l194 336h-176v108h347v-56l-196 -339h210v-108h-379zM339 731l-70 -154h-80l41 154h109z" />
    <glyph glyph-name="f_b.001" horiz-adv-x="839" 
d="M521 682v-107c0 -44 -2 -81 -2 -81h2c24 8 64 18 105 18c101 0 175 -44 175 -244c0 -211 -75 -277 -203 -277c-74 0 -149 17 -209 41v566c-38 3 -76 6 -95 6c-53 0 -72 -5 -72 -59v-42h104l-15 -94h-89v-409h-131v409h-68v94h68v48c0 134 65 154 167 154
c90 0 215 -15 263 -23zM585 99c54 0 84 21 84 166c0 123 -35 139 -74 139c-25 0 -50 -6 -74 -16v-277c16 -7 40 -12 64 -12z" />
    <glyph glyph-name="f_f.001" horiz-adv-x="656" 
d="M222 0h-131v409h-68v94h68v48c0 134 65 154 152 154c41 0 82 -5 111 -12l-16 -95c-17 1 -37 4 -55 4c-42 0 -61 -6 -61 -61v-38h164v48c0 134 65 154 152 154c44 0 109 -7 141 -14l-17 -96c-31 4 -63 7 -84 7c-42 0 -60 -6 -60 -61v-38h139l-15 -94h-124v-409h-132v409
h-164v-409z" />
    <glyph glyph-name="f_h.001" horiz-adv-x="856" 
d="M793 0h-132v340c0 46 -16 64 -48 64c-37 0 -70 -22 -92 -43v-361h-132v598c-38 3 -76 6 -95 6c-53 0 -72 -5 -72 -59v-42h104l-15 -94h-89v-409h-131v409h-68v94h68v48c0 134 65 154 167 154c90 0 215 -15 263 -23v-123c0 -53 -3 -97 -3 -97h3c27 23 70 50 143 50
c71 0 129 -37 129 -148v-364z" />
    <glyph glyph-name="f_i.001" horiz-adv-x="588" 
d="M456 682l-16 -96c-41 7 -108 16 -157 16c-41 0 -61 -6 -61 -61v-38h299v-503h-132v409h-167v-409h-131v409h-68v94h68v48c0 134 65 154 158 154c74 0 178 -16 207 -23z" />
    <glyph glyph-name="f_f_i.001" horiz-adv-x="885" 
d="M754 682l-16 -96c-41 7 -108 16 -157 16c-41 0 -60 -6 -60 -61v-38h298v-503h-132v409h-166v-409h-132v409h-167v-409h-131v409h-68v94h68v48c0 134 65 154 152 154c41 0 82 -5 111 -12l-16 -95c-17 1 -37 4 -55 4c-42 0 -61 -6 -61 -61v-38h167v48c0 134 65 154 158 154
c74 0 178 -16 207 -23z" />
    <glyph glyph-name="f_j.001" horiz-adv-x="584" 
d="M456 682l-16 -96c-41 7 -108 16 -157 16c-41 0 -61 -6 -61 -61v-38h299v-484c0 -146 -48 -187 -141 -207c-35 -7 -54 -10 -87 -15l-19 100c20 5 43 8 65 15c47 15 50 49 50 111v386h-167v-409h-131v409h-68v94h68v48c0 134 65 154 158 154c74 0 178 -16 207 -23z" />
    <glyph glyph-name="f_f_j.001" horiz-adv-x="882" 
d="M754 682l-16 -96c-41 7 -108 16 -157 16c-41 0 -60 -6 -60 -61v-38h298v-484c0 -146 -48 -187 -141 -207c-35 -7 -54 -10 -86 -15l-20 100c20 5 43 8 65 15c47 15 50 49 50 111v386h-166v-409h-132v409h-167v-409h-131v409h-68v94h68v48c0 134 65 154 152 154
c41 0 82 -5 111 -12l-16 -95c-17 1 -37 4 -55 4c-42 0 -61 -6 -61 -61v-38h167v48c0 134 65 154 158 154c74 0 178 -16 207 -23z" />
    <glyph glyph-name="f_k.001" horiz-adv-x="845" 
d="M521 681v-363c106 9 135 59 156 185h132c-17 -114 -44 -188 -104 -233l148 -270h-144l-116 222c-22 -4 -46 -8 -72 -10v-212h-132v598c-38 3 -76 6 -95 6c-53 0 -72 -5 -72 -59v-42h104l-15 -94h-89v-409h-131v409h-68v94h68v48c0 134 65 154 167 154
c90 0 215 -16 263 -24z" />
    <glyph glyph-name="f_l.001" horiz-adv-x="614" 
d="M588 105l12 -100c-18 -6 -55 -12 -95 -12c-76 0 -116 27 -116 147v458c-38 3 -76 6 -95 6c-53 0 -72 -5 -72 -59v-42h104l-15 -94h-89v-409h-131v409h-68v94h68v48c0 134 65 154 167 154c90 0 215 -15 263 -23v-537c0 -38 11 -43 32 -43c15 0 27 2 35 3z" />
    <glyph glyph-name="f_f_l.001" horiz-adv-x="912" 
d="M886 105l12 -100c-18 -6 -55 -12 -95 -12c-76 0 -116 27 -116 147v458c-38 3 -76 6 -95 6c-53 0 -71 -5 -71 -59v-42h103l-15 -94h-88v-409h-132v409h-167v-409h-131v409h-68v94h68v48c0 134 65 154 152 154c41 0 82 -5 111 -12l-16 -95c-17 1 -37 4 -55 4
c-42 0 -61 -6 -61 -61v-38h167v48c0 134 65 154 167 154c90 0 215 -15 263 -23v-537c0 -38 12 -43 32 -43c15 0 28 2 35 3z" />
    <glyph glyph-name="f_t.001" horiz-adv-x="671" 
d="M222 0h-131v409h-68v94h68v48c0 134 65 154 152 154c41 0 82 -5 111 -12l-16 -95c-17 1 -37 4 -55 4c-42 0 -61 -6 -61 -61v-38h168l10 130l121 12v-142h126l-15 -94h-111v-268c0 -37 13 -41 41 -41c20 0 57 8 69 10l17 -99c-18 -7 -69 -18 -119 -18
c-97 0 -140 25 -140 147v269h-167v-409z" />
    <glyph glyph-name="f_i" unicode="&#xf001;" horiz-adv-x="560" 
d="M428 681l-15 -96c-42 7 -108 16 -157 16c-42 0 -61 -6 -61 -61v-37h299v-503h-132v398h-167v-398h-132v550c0 134 65 154 159 154c74 0 177 -16 206 -23z" />
    <glyph glyph-name="f_l" unicode="&#xf002;" horiz-adv-x="587" 
d="M560 105l13 -100c-19 -6 -56 -12 -96 -12c-75 0 -116 27 -116 147v458c-38 3 -75 6 -94 6c-54 0 -72 -6 -72 -60v-41h103l-15 -105h-88v-398h-132v550c0 134 65 154 167 154c91 0 215 -15 263 -23v-536c0 -38 12 -43 32 -43c15 0 28 2 35 3z" />
    <glyph glyph-name="f_l.1" horiz-adv-x="556" 
d="M493 0h-132v598c-38 3 -75 6 -94 6c-54 0 -72 -6 -72 -60v-41h103l-15 -105h-88v-398h-132v550c0 134 65 154 167 154c91 0 215 -15 263 -23v-681z" />
    <glyph glyph-name="f_l.1001" horiz-adv-x="584" 
d="M521 0h-132v598c-38 3 -76 6 -95 6c-53 0 -72 -5 -72 -59v-42h104l-15 -94h-89v-409h-131v409h-68v94h68v48c0 134 65 154 167 154c90 0 215 -15 263 -23v-682z" />
    <glyph glyph-name="f_f_l.1" horiz-adv-x="855" 
d="M791 0h-131v598c-38 3 -76 6 -95 6c-54 0 -72 -6 -72 -60v-41h104l-16 -105h-88v-398h-132v398h-166v-398h-132v503v47c0 134 65 154 152 154c41 0 83 -4 112 -11l-17 -96c-17 1 -37 4 -54 4c-43 0 -61 -6 -61 -61v-37h166v47c0 134 65 154 167 154c91 0 215 -15 263 -23
v-681z" />
    <glyph glyph-name="f_f_l.1001" horiz-adv-x="882" 
d="M819 0h-132v598c-38 3 -76 6 -95 6c-53 0 -71 -5 -71 -59v-42h103l-15 -94h-88v-409h-132v409h-167v-409h-131v409h-68v94h68v48c0 134 65 154 152 154c41 0 82 -5 111 -12l-16 -95c-17 1 -37 4 -55 4c-42 0 -61 -6 -61 -61v-38h167v48c0 134 65 154 167 154
c90 0 215 -15 263 -23v-682z" />
    <glyph glyph-name="s_t" unicode="&#xfb06;" horiz-adv-x="793" 
d="M29 23l19 101c45 -12 104 -29 171 -29c49 0 66 12 66 48c0 30 -10 44 -60 59l-24 7c-113 33 -161 66 -161 160c0 113 70 143 169 143c18 0 36 -1 55 -3c-11 18 -20 42 -20 74c0 84 69 121 179 121c86 0 174 -18 220 -32v-169h126l-18 -105h-108v-257c0 -37 13 -41 41 -41
c20 0 57 8 69 10l17 -99c-18 -7 -69 -18 -119 -18c-97 0 -140 25 -140 147v466c-22 5 -47 9 -77 9c-48 0 -77 -18 -77 -60c0 -35 17 -53 38 -71l-19 -96c-41 9 -102 21 -150 21c-43 0 -58 -14 -58 -40c0 -23 8 -38 61 -54l24 -7c121 -36 161 -73 161 -167
c0 -115 -74 -150 -180 -150c-94 0 -170 22 -205 32z" />
    <glyph glyph-name="s_t.001" horiz-adv-x="809" 
d="M29 23l19 101c45 -12 104 -29 171 -29c49 0 66 12 66 48c0 30 -10 44 -60 59l-24 7c-113 33 -161 66 -161 160c0 113 70 143 169 143c18 0 36 -1 55 -3c-11 18 -20 42 -20 75c0 82 69 120 179 120c85 0 174 -17 236 -37v-164h127l-16 -94h-111v-268c0 -37 13 -41 41 -41
c21 0 58 8 70 10l16 -99c-18 -7 -68 -18 -118 -18c-98 0 -141 25 -141 147v269h-68v94h70l6 97c-28 8 -59 15 -101 15c-48 0 -77 -20 -77 -60c0 -37 17 -53 38 -71l-19 -96c-41 9 -102 21 -150 21c-43 0 -58 -14 -58 -40c0 -23 8 -38 61 -54l24 -7c121 -36 161 -73 161 -167
c0 -115 -74 -150 -180 -150c-94 0 -170 22 -205 32z" />
    <glyph glyph-name="s_h" horiz-adv-x="986" 
d="M516 0v605c-23 5 -49 10 -82 10c-48 0 -77 -18 -77 -60c0 -37 19 -55 38 -71l-19 -96c-41 9 -102 21 -150 21c-43 0 -58 -14 -58 -40c0 -23 8 -38 61 -54l24 -7c121 -36 161 -73 161 -167c0 -115 -74 -150 -180 -150c-94 0 -170 22 -205 32l19 101
c45 -12 104 -29 171 -29c49 0 66 12 66 48c0 30 -10 44 -60 59l-24 7c-113 33 -161 66 -161 160c0 113 70 143 169 143c18 0 37 -1 55 -3c-11 18 -20 43 -20 75c0 83 70 120 179 120c86 0 175 -18 225 -34v-95c0 -44 -2 -80 -2 -80h2c21 7 56 17 98 17
c99 0 177 -40 177 -186v-326h-131v323c0 57 -20 81 -70 81c-35 0 -64 -12 -74 -15v-389h-132z" />
    <glyph glyph-name="c_t" horiz-adv-x="763" 
d="M481 140v469c-17 4 -36 6 -56 6c-46 0 -73 -19 -73 -60c0 -34 18 -52 36 -64l-19 -100c-25 6 -56 13 -96 13c-77 0 -102 -47 -102 -154c0 -117 25 -151 100 -151c35 0 66 7 99 15l23 -99c-43 -16 -98 -24 -149 -24c-163 0 -205 92 -205 259c0 159 44 262 211 262h9
c-11 16 -20 38 -20 70c0 85 68 122 179 122c68 0 159 -18 195 -30v-171h126l-18 -105h-108v-257c0 -37 13 -41 41 -41c20 0 57 8 69 10l17 -99c-18 -7 -69 -18 -119 -18c-97 0 -140 25 -140 147z" />
    <glyph glyph-name="c_t.001" horiz-adv-x="787" 
d="M505 140v269h-69v94h70l7 101c-24 6 -52 11 -83 11c-51 0 -78 -17 -78 -60c0 -33 18 -50 36 -64l-19 -100c-25 6 -56 13 -96 13c-77 0 -102 -47 -102 -154c0 -117 25 -151 100 -151c35 0 66 7 99 15l23 -99c-43 -16 -98 -24 -149 -24c-163 0 -205 92 -205 259
c0 159 44 262 211 262h9c-11 16 -20 37 -20 70c0 85 68 122 181 122c71 0 171 -17 217 -31v-170h126l-15 -94h-111v-268c0 -37 13 -41 41 -41c20 0 57 8 69 10l17 -99c-18 -7 -68 -18 -118 -18c-98 0 -141 25 -141 147z" />
    <glyph glyph-name="c_h" horiz-adv-x="954" 
d="M484 0v608c-17 4 -35 7 -56 7c-45 0 -73 -19 -73 -61c0 -37 17 -49 33 -63l-19 -100c-25 6 -56 13 -96 13c-77 0 -102 -47 -102 -154c0 -117 25 -151 100 -151c35 0 66 7 99 15l23 -99c-43 -16 -98 -24 -149 -24c-163 0 -205 92 -205 259c0 159 44 262 211 262h10
c-10 17 -18 40 -18 71c0 84 71 121 175 121c90 0 160 -20 199 -34v-95c0 -44 -2 -80 -2 -80h2c21 7 56 17 98 17c99 0 177 -40 177 -186v-326h-131v323c0 57 -20 81 -70 81c-35 0 -64 -12 -74 -15v-389h-132z" />
    <glyph glyph-name="Euro" unicode="&#x20ac;" horiz-adv-x="555" 
d="M354 387h-108v-36v-35h108v-77h-105c11 -119 45 -138 122 -138c34 0 76 8 117 16l19 -101c-35 -11 -104 -25 -159 -25c-157 0 -217 63 -232 248h-68v77h65v35v36h-65v77h69c15 180 75 242 231 242c52 0 120 -10 155 -22l-17 -100c-45 8 -87 12 -115 12
c-76 0 -110 -17 -121 -132h104v-77z" />
    <glyph glyph-name="franc" unicode="&#x20a3;" horiz-adv-x="553" 
d="M286 93h-47v-93h-133v93h-46v88h46v516h382v-108h-249v-192h190v-110h-190v-106h47v-88z" />
    <glyph glyph-name="ampersand.001" horiz-adv-x="591" 
d="M518 502l30 -102l-66 -23c18 -53 46 -119 46 -183c0 -149 -99 -206 -242 -206c-137 0 -237 57 -237 199c0 101 52 157 114 187v2c-61 32 -88 81 -88 151c0 104 54 179 199 179c65 0 122 -14 146 -22l-20 -98c-32 6 -71 10 -102 10c-65 0 -92 -26 -92 -79
c0 -52 29 -81 73 -89c79 24 179 56 239 74zM360 339c-34 -11 -85 -28 -112 -42c-43 -22 -68 -56 -68 -106c0 -59 32 -93 107 -93c74 0 110 34 110 94c0 43 -18 98 -37 147z" />
    <glyph glyph-name="Dieresis" horiz-adv-x="1122" 
d="M515 770h-115v109h115v-109zM723 770h-115v109h115v-109z" />
    <glyph glyph-name="dotbelowcomb" unicode="&#x323;" horiz-adv-x="311" 
d="M209 -173h-122v108h122v-108z" />
    <glyph glyph-name="macroncmb" horiz-adv-x="0" 
d="M-1 536h-280v78h280v-78z" />
    <glyph glyph-name="verticallinebelowcmb" horiz-adv-x="311" 
d="M203 -259h-110v194h110v-194z" />
    <glyph glyph-name="commaaccent" horiz-adv-x="263" 
d="M181 -32h-95c15 43 22 84 24 153h97c0 -70 -12 -122 -26 -153z" />
    <glyph glyph-name="commaaccent.001" horiz-adv-x="452" 
d="M254 -213h-86s63 68 37 154h101c31 -94 -52 -154 -52 -154z" />
    <glyph glyph-name="commaaccent.g" horiz-adv-x="263" 
d="M112 131h95c-19 -43 -31 -99 -32 -175h-97c0 81 18 144 34 175z" />
    <glyph glyph-name="apo" horiz-adv-x="275" 
d="M178 -44h-95c19 44 31 99 32 175h97c0 -80 -19 -143 -34 -175z" />
    <glyph glyph-name="dieresismacron" horiz-adv-x="915" 
d="M423 562h-106v99h106v-99zM597 562h-105v99h105v-99zM606 696h-296v74h296v-74z" />
    <glyph glyph-name="dieresisacute" horiz-adv-x="915" 
d="M423 562h-106v99h106v-99zM597 562h-105v99h105v-99zM631 820l-134 -124h-95l92 124h137z" />
    <glyph glyph-name="dieresisgrave" horiz-adv-x="915" 
d="M423 562h-106v99h106v-99zM597 562h-105v99h105v-99zM419 696l-134 124h135l93 -124h-94z" />
    <glyph glyph-name="dieresiscaron" horiz-adv-x="915" 
d="M423 562h-106v99h106v-99zM597 562h-105v99h105v-99zM620 820l-112 -124h-100l-113 124h113l53 -63l51 63h108z" />
    <glyph glyph-name="kreska" horiz-adv-x="277" 
d="M173 794l-70 -154h-80l41 154h109z" />
    <glyph glyph-name="kreskacap" horiz-adv-x="277" 
d="M173 794l-70 -154h-80l41 154h109z" />
    <glyph glyph-name="horn" horiz-adv-x="552" 
d="M418 429v74c47 0 82 42 57 128h93c38 -141 -33 -202 -150 -202z" />
    <glyph glyph-name="periodcentered.loclCAT" horiz-adv-x="55" 
d="M-40 311v115h107v-115h-107z" />
    <glyph glyph-name="periodcentered.loclCATcap" horiz-adv-x="0" 
d="M-131 321v114h106v-114h-106z" />
    <glyph glyph-name="periodcentered.loclCATsc" horiz-adv-x="0" 
d="M-125 264v111h106v-111h-106z" />
    <glyph glyph-name="parenleft.alt" horiz-adv-x="352" 
d="M291 -141h-116s-97 181 -97 457c0 275 97 462 97 462h116s-91 -197 -91 -454c0 -258 91 -465 91 -465z" />
    <glyph glyph-name="parenright.alt" horiz-adv-x="352" 
d="M177 -141h-116s91 207 91 465c0 257 -91 454 -91 454h116s97 -187 97 -462c0 -276 -97 -457 -97 -457z" />
    <glyph glyph-name="uni2117" unicode="&#x2117;" horiz-adv-x="838" 
d="M305 147v408h127c99 0 138 -35 138 -129c0 -91 -46 -137 -138 -137h-36v-142h-91zM396 361h31c41 0 55 17 55 65c0 44 -11 58 -55 58h-31v-123zM78 350c0 226 126 361 341 361s341 -135 341 -361s-126 -362 -341 -362s-341 136 -341 362zM160 350
c0 -183 89 -287 259 -287c169 0 259 104 259 287c0 182 -90 287 -259 287c-170 0 -259 -105 -259 -287z" />
    <glyph glyph-name="EmptyFrame" horiz-adv-x="838" 
d="M78 350c0 226 126 361 341 361s341 -135 341 -361s-126 -362 -341 -362s-341 136 -341 362zM160 350c0 -183 89 -287 259 -287c169 0 259 104 259 287c0 182 -90 287 -259 287c-170 0 -259 -105 -259 -287z" />
    <glyph glyph-name="uni24B9" unicode="&#x24b9;" horiz-adv-x="838" 
d="M393 147h-95v408h93c150 0 174 -44 174 -204c0 -161 -23 -204 -172 -204zM389 218h12c66 0 76 13 76 133c0 123 -12 133 -76 133h-12v-266zM78 350c0 226 126 361 341 361s341 -135 341 -361s-126 -362 -341 -362s-341 136 -341 362zM160 350c0 -183 89 -287 259 -287
c169 0 259 104 259 287c0 182 -90 287 -259 287c-170 0 -259 -105 -259 -287z" />
    <glyph glyph-name="uni2116" unicode="&#x2116;" horiz-adv-x="934" 
d="M636 232v82h276v-82h-276zM774 356c-115 0 -138 56 -138 159s23 168 138 168c114 0 138 -65 138 -168s-24 -159 -138 -159zM774 435c28 0 37 19 37 82c0 57 -9 86 -37 86c-29 0 -38 -29 -38 -86c0 -63 9 -82 38 -82zM66 0v697h168c176 -456 194 -539 194 -539h3
s-8 139 -8 264v275h123v-697h-168c-175 460 -193 539 -193 539h-4s7 -149 8 -276l1 -263h-124z" />
    <glyph glyph-name="ordfeminine.1" horiz-adv-x="345" 
d="M23 405c0 99 22 178 133 178c49 0 101 -13 138 -27v-182c0 -35 8 -38 35 -34l11 -68c-14 -5 -48 -10 -64 -10c-18 0 -47 1 -62 25h-3c-17 -12 -42 -28 -92 -28c-56 0 -96 30 -96 146zM165 503c-25 0 -41 -6 -41 -87c0 -68 12 -77 33 -77c17 0 37 10 37 10v149
c-7 3 -23 5 -29 5z" />
    <glyph glyph-name="notequal" unicode="&#x2260;" horiz-adv-x="515" 
d="M58 365v101h222l65 154l74 -29l-53 -125h91v-101h-133l-43 -103h176v-100h-218l-67 -160l-75 29l55 131h-94v100h136l43 103h-179z" />
    <glyph glyph-name="approxequal" unicode="&#x2248;" horiz-adv-x="515" 
d="M117 157l-66 59c37 52 73 72 120 72c90 0 122 -80 170 -80c29 0 45 22 57 33l66 -58c-38 -52 -73 -73 -120 -73c-89 0 -123 81 -170 81c-29 0 -46 -22 -57 -34zM117 374l-66 59c37 52 73 72 120 72c90 0 122 -80 170 -80c29 0 45 22 57 33l66 -58
c-38 -52 -73 -73 -120 -73c-89 0 -123 81 -170 81c-29 0 -46 -22 -57 -34z" />
    <glyph glyph-name="lessequal" unicode="&#x2264;" horiz-adv-x="515" 
d="M81 0v104h249l-249 203v126l352 242v-131l-253 -177l253 -208v-159h-352z" />
    <glyph glyph-name="greaterequal" unicode="&#x2265;" horiz-adv-x="515" 
d="M433 104v-104h-352v159l253 208l-253 177v131l352 -242v-126l-249 -203h249z" />
    <glyph glyph-name="infinity" unicode="&#x221e;" horiz-adv-x="703" 
d="M303 280c0 54 -19 100 -77 100c-57 0 -76 -44 -76 -99c0 -56 19 -100 76 -100c58 0 77 43 77 99zM351 416c21 34 77 59 134 59c120 0 177 -70 177 -193s-57 -196 -177 -196c-58 0 -113 25 -134 61c-21 -36 -77 -61 -134 -61c-122 0 -176 73 -176 196s59 193 179 193
c60 0 109 -25 131 -59zM399 280c0 -56 20 -99 77 -99c58 0 77 44 77 100c0 55 -19 99 -77 99c-57 0 -77 -46 -77 -100z" />
    <glyph glyph-name="partialdiff" unicode="&#x2202;" horiz-adv-x="511" 
d="M226 596c-54 0 -94 -11 -131 -19l-22 101c29 11 90 28 156 28c197 0 240 -109 240 -376c0 -234 -47 -342 -218 -342c-123 0 -214 51 -214 227c0 172 80 223 176 223c44 0 93 -14 122 -30c-4 137 -26 188 -109 188zM246 331c-48 0 -76 -28 -76 -116c0 -90 29 -117 81 -117
c64 0 82 55 84 207c-22 15 -61 26 -89 26z" />
    <glyph glyph-name="integral" unicode="&#x222b;" horiz-adv-x="378" 
d="M-19 -215l16 80c12 -2 33 -6 71 -6c44 0 71 17 71 84v625c0 129 70 160 162 160c39 0 79 -8 95 -12l-16 -80c-5 1 -33 6 -71 6c-44 0 -71 -17 -71 -82v-627c0 -130 -70 -160 -162 -160c-39 0 -79 7 -95 12z" />
    <glyph glyph-name="longs" unicode="&#x17f;" horiz-adv-x="351" 
d="M83 0v409h-68v94h68v48c0 134 60 154 151 154c45 0 111 -7 142 -14l-17 -96c-31 4 -68 7 -91 7c-38 0 -53 -6 -53 -61v-541h-132z" />
    <glyph glyph-name="radical" unicode="&#x221a;" horiz-adv-x="595" 
d="M248 0l-67 411h-113v90h199l46 -321l108 616h109l-155 -796h-127z" />
    <glyph glyph-name="summation" unicode="&#x2211;" horiz-adv-x="517" 
d="M63 -196v79l151 376l-135 346v92h375v-101h-240l131 -333l-137 -358h244v-101h-389z" />
    <glyph glyph-name="product" unicode="&#x220f;" horiz-adv-x="562" 
d="M71 -259v956h422v-956h-122v848h-178v-848h-122z" />
    <glyph glyph-name="lozenge" unicode="&#x25ca;" horiz-adv-x="486" 
d="M243 -229l-190 492l190 524l188 -526zM243 -41l110 305l-109 326l-112 -328z" />
    <glyph glyph-name="estimated" unicode="&#x212e;" horiz-adv-x="812" 
d="M218 350v-229c53 -52 118 -75 188 -75c105 0 185 51 248 152l42 -25c-96 -134 -174 -173 -290 -173c-99 0 -181 34 -241 100s-89 147 -89 250c0 209 135 352 330 352c159 0 329 -109 329 -352h-517zM218 397h373v182c-53 50 -115 77 -188 77s-132 -27 -185 -77v-182z" />
    <glyph glyph-name="questiondown.cap" horiz-adv-x="414" 
d="M285 499v-63c0 -87 -25 -114 -67 -158l-29 -30c-25 -26 -31 -49 -31 -80c0 -56 28 -70 82 -70c35 0 92 11 126 21l20 -97c-15 -5 -84 -31 -175 -31c-118 0 -183 49 -183 176c0 77 27 113 56 143l31 33c32 33 40 54 40 106v50h130zM285 697v-113h-130v113h130z" />
    <glyph glyph-name="exclamdown.cap" horiz-adv-x="261" 
d="M197 495v-495h-133v495h133zM197 697v-113h-133v113h133z" />
    <glyph glyph-name="nose" horiz-adv-x="584" 
d="M291 -203l-19 100c20 5 42 9 64 15c42 12 62 30 62 89v67h121v-67c0 -130 -48 -169 -141 -189c-35 -7 -54 -10 -87 -15z" />
    <glyph glyph-name="kbar" horiz-adv-x="293" 
d="M6 568v78h281v-78h-281z" />
    <glyph glyph-name="Hbarscbar" horiz-adv-x="540" 
d="M19 385v78h502v-78h-502z" />
    <glyph glyph-name="diastrich" horiz-adv-x="428" 
d="M28 355v94l262 112v-94z" />
    <glyph glyph-name="diastrich.001" horiz-adv-x="428" 
d="M27 225v94l249 166v-94z" />
    <glyph glyph-name="dieresiscircumflex.001" horiz-adv-x="915" 
d="M423 562h-106v99h106v-99zM597 562h-105v99h105v-99zM620 820l-112 -124h-100l-113 124h113l53 -63l51 63h108z" />
    <glyph glyph-name="Lpunktaccent" horiz-adv-x="311" 
d="M201 665h-107v106h107v-106z" />
    <glyph glyph-name="diastrich.cap" horiz-adv-x="428" 
d="M28 252v94l316 133v-94z" />
    <glyph glyph-name="tapo" horiz-adv-x="342" 
d="M336 560h-96c19 44 31 93 32 162h98c0 -71 -19 -130 -34 -162z" />
    <glyph glyph-name="uni01A0" unicode="&#x1a0;" horiz-adv-x="590" 
d="M45 348c0 252 56 361 246 361c67 0 117 -14 153 -43c27 16 41 56 23 119h93c27 -102 -2 -162 -65 -188c26 -58 36 -141 36 -250c0 -252 -56 -359 -246 -359c-189 0 -240 108 -240 360zM288 98c89 0 110 68 110 250s-21 251 -110 251c-88 0 -110 -69 -110 -251
s22 -250 110 -250z" />
    <glyph glyph-name="uni01A1" unicode="&#x1a1;" horiz-adv-x="514" 
d="M249 -12c-171 0 -209 102 -209 264c0 161 44 263 215 263c66 0 112 -15 144 -43c18 20 25 56 10 109h93c26 -97 1 -156 -55 -183c13 -40 18 -90 18 -146c0 -162 -44 -264 -216 -264zM252 96c63 0 81 46 81 156c0 104 -18 155 -81 155c-62 0 -80 -51 -80 -155
c0 -110 18 -156 80 -156z" />
    </font>
</defs>
</svg>
